<svg width="320" height="217" viewBox="0 0 320 217" fill="none" xmlns="http://www.w3.org/2000/svg">
<path fill-rule="evenodd" clip-rule="evenodd" d="M79.5338 42.7165C79.0931 47.0217 80.7046 51.492 83.791 54.5263C84.8914 53.862 85.5955 52.5874 85.5708 51.3023C86.7275 53.2041 86.0796 55.7826 84.6414 57.4814C83.2031 59.1803 81.1399 60.1989 79.1374 61.1708C77.9904 61.7277 76.7994 62.296 75.5244 62.3339C73.5796 62.392 71.8373 61.2225 70.2472 60.1011L65.5817 56.8117C67.9924 61.3098 73.4785 63.929 78.4919 62.9749C81.9779 67.8653 84.1124 73.7093 84.5993 79.6951L83.6621 77.9638C83.6534 77.9428 83.6424 77.9218 83.6283 77.9007L83.6621 77.9638C83.797 78.2957 83.2703 78.6633 82.9155 78.4914C82.5384 78.309 82.3962 77.8546 82.2846 77.4509C80.9122 72.4741 78.4526 67.7999 75.1275 63.8508L80.162 74.5172C81.2382 76.7966 82.3902 79.1712 84.4178 80.668C86.172 79.0761 85.5708 76.2234 84.7374 74.0061C83.1834 69.8709 81.2994 65.8605 79.1091 62.0244C79.5795 61.1484 80.61 60.8668 81.6062 60.5948H81.6066C81.8366 60.5317 82.0656 60.4695 82.2851 60.4C84.4804 59.7079 86.2735 57.8586 86.898 55.6431C87.5225 53.4277 86.9588 50.9141 85.4483 49.1773C85.1013 50.5877 84.5728 51.9537 83.8806 53.2311C81.811 50.6348 80.6095 47.3587 80.5094 44.04C80.4619 42.4605 80.3009 40.3735 78.7571 40.037C79.0067 41.8739 77.7764 43.8014 76.0049 44.3482C74.2333 44.8945 72.1308 43.9957 71.3019 42.3375C69.0768 37.886 66.8079 33.3778 63.4819 29.6756C60.156 25.9738 55.5865 23.1137 50.6133 22.9281C45.2292 22.7274 40.1427 25.6753 36.3659 29.5178C37.7073 26.5558 37.4298 22.9181 35.6555 20.1938C33.8806 17.4694 30.6654 15.7454 27.414 15.7752C26.5893 15.7825 25.72 15.8789 24.8485 15.9754C22.3609 16.2515 19.8553 16.529 18.3164 14.7474C17.2295 13.4888 17.2091 11.7831 17.1885 10.0614C17.179 9.26544 17.1695 8.46584 17.0545 7.70601C16.608 4.75494 14.3798 2.23682 11.636 1.06188C8.89225 -0.113063 5.71836 -0.0444841 2.87189 0.853408C2.01185 1.12497 1.13522 1.49711 0.575361 2.20436C-0.697644 3.81179 0.316645 6.2906 1.91484 7.57526C2.75595 8.25142 3.72278 8.73831 4.6904 9.2252C5.56127 9.66363 6.43278 10.1021 7.21387 10.6795C8.86272 11.8988 10.0681 14.2322 8.99909 15.9823C7.40314 18.595 9.87897 22.1116 12.8395 22.8916C15.2867 23.5366 17.8266 22.9839 20.3305 22.4394C20.8556 22.3251 21.3792 22.2113 21.8999 22.1089C24.9039 21.5182 28.3938 21.445 30.6049 23.5627C33.2729 26.1178 32.7542 30.4368 32.0342 34.0603C31.9472 34.4979 31.8419 34.9688 31.5064 35.2632C31.21 35.5233 30.7956 35.59 30.4051 35.6458L15.4863 37.7813C14.3448 37.9445 13.9573 39.5954 14.6281 40.5335C15.2989 41.4712 16.5546 41.7811 17.7071 41.8177C19.4694 41.8735 21.1889 41.457 22.9118 41.0396C23.7857 40.8279 24.6604 40.6162 25.542 40.4658C28.1615 40.0182 31.2021 40.2642 32.9464 42.2694C35.751 45.4929 41.0744 46.1247 44.5558 43.6469C47.2462 48.4595 51.9282 51.5231 56.6311 54.6003C60.8655 57.3708 65.1168 60.1523 67.9462 64.2316C71.0651 68.7284 72.0988 74.3037 73.057 79.6915C74.1762 79.6755 75.0073 78.2651 74.4788 77.2785L73.4273 78.6656C73.0387 70.1735 68.7015 61.9439 61.9161 56.8231C60.236 55.5549 58.3931 54.4435 56.5543 53.3339C52.5138 50.8967 48.4925 48.471 46.2555 44.4222C46.0539 44.0574 45.8665 43.6715 45.8336 43.256C45.7924 42.7307 46.0018 42.2241 46.2039 41.7349L46.2327 41.6655C47.0391 39.7087 47.6028 37.5623 47.2065 35.4835C46.8106 33.4048 45.2456 31.4394 43.1527 31.1262C46.6954 33.3924 47.4213 39.0157 44.5709 42.1071C41.7199 45.1985 36.0564 44.9301 33.5112 41.5822C31.4715 38.8995 27.3926 39.2283 24.1095 39.989C20.8264 40.7497 16.9601 41.5461 14.4238 39.327C19.8499 37.8348 25.4334 36.9163 31.0515 36.5913C32.3899 36.5135 32.9148 34.8444 33.0951 33.5158C33.3722 31.4736 33.6493 29.3985 33.3457 27.3604C33.0421 25.3219 32.0733 23.2888 30.3437 22.1683C28.2666 20.8228 25.5851 21.0313 23.1238 21.2891L16.5829 21.9735C15.1736 22.1208 13.7252 22.2657 12.3587 21.8903C10.9923 21.515 9.70657 20.496 9.44456 19.1034C9.27911 18.2238 9.53088 17.3579 9.78475 16.4847C9.96753 15.8561 10.1513 15.2238 10.1813 14.5801C10.2667 12.7473 9.08275 11.0681 7.64421 9.92971C6.76277 9.23206 5.78067 8.683 4.79765 8.13393C4.17621 7.78647 3.55441 7.43902 2.95747 7.05362C1.83383 6.32808 0.680922 5.15588 0.993356 3.85522C1.19314 3.02362 1.94574 2.44712 2.70241 2.04846C5.25702 0.701625 8.45021 0.641278 11.054 1.88982C13.6579 3.13883 15.6096 5.66701 16.1585 8.50195C16.294 9.20143 16.3555 9.932 16.4169 10.6612C16.559 12.3473 16.7004 14.0255 17.7541 15.2928C19.0126 16.8061 21.1878 17.1874 23.154 17.0936C23.8281 17.0616 24.5021 16.9862 25.1756 16.9108C26.4664 16.7663 27.7553 16.6218 29.0386 16.7832C33.354 17.3268 36.7541 21.8167 36.1072 26.1178C36.0715 26.356 36.0253 26.596 35.9792 26.8365C35.8146 27.6946 35.6482 28.561 35.9412 29.3665C36.3166 30.3988 37.9578 30.9484 38.4781 29.981C40.8083 25.6479 46.1536 23.4644 51.0403 24.0368C55.9271 24.6092 60.3004 27.5515 63.5089 31.2821C66.7169 35.0122 68.8994 39.5012 70.89 44.0007C71.5913 45.5857 73.6788 46.1595 75.3461 45.6881C77.0138 45.2168 78.3374 43.9701 79.5338 42.7165ZM70.7766 50.2686C70.8242 50.2622 70.9339 50.4771 71.0998 50.8016C71.5076 51.6003 72.2537 53.0601 73.2371 53.5045C73.1932 53.9182 72.5427 53.6965 72.272 53.3806C71.5031 52.4818 70.687 51.4481 70.7766 50.2686ZM73.0981 57.3612C73.6061 58.1055 70.5654 58.4758 69.555 57.8266C69.7329 57.7923 69.9674 57.8106 70.2271 57.8307C70.5352 57.8545 70.8786 57.8815 71.205 57.8266C71.6827 57.7461 72.144 57.5994 72.4924 57.4888C72.8302 57.3813 73.0616 57.3077 73.0981 57.3612ZM72.3685 54.5967C71.1583 54.8042 69.6712 53.1922 69.6712 51.6762C70.02 52.7972 71.2594 53.6864 71.9442 54.1774C72.2926 54.4275 72.4974 54.5747 72.3685 54.5967ZM76.7048 60.9363C75.0928 60.9363 74.3622 58.2179 75.0928 58.0433C75.2674 57.9642 75.2757 58.2074 75.288 58.5672C75.3008 58.9453 75.3177 59.4514 75.5376 59.8459C75.7818 60.2839 76.2988 60.5765 76.6006 60.7475C76.8287 60.8769 76.9338 60.9363 76.7048 60.9363ZM78.5006 57.235C78.8544 57.4298 79.1772 57.7324 79.2691 58.1256C79.3605 58.5192 79.1406 58.9965 78.7447 59.0784C78.6208 58.8964 78.688 58.7803 78.7589 58.6582C78.8631 58.479 78.9751 58.2861 78.5006 57.849C78.3008 57.6648 78.0681 57.5848 77.9049 57.5285C77.7796 57.4855 77.695 57.4563 77.6982 57.4051C77.7188 57.0782 78.2135 57.0768 78.5006 57.235ZM75.4832 53.6928C75.4037 53.7486 75.3488 53.7865 75.3959 53.8304C75.5413 53.9658 75.7127 54.0307 75.8842 53.9324C76.0145 53.8569 76.0808 53.7052 76.1118 53.5575C76.2837 52.7341 75.4142 51.8833 74.5945 52.074C74.6672 52.2655 74.8066 52.3268 74.9753 52.4013C75.1705 52.4873 75.4051 52.5906 75.6231 52.9316C75.9166 53.3915 75.6474 53.579 75.4832 53.6928ZM75.2076 61.4561C74.2585 61.18 73.3199 58.9385 73.8251 58.7684C74.1405 58.6628 74.1387 58.6797 74.1204 58.8571C74.1035 59.0194 74.0728 59.3161 74.2585 59.7765C74.4893 60.3475 74.8121 60.8111 75.0178 61.1064C75.1586 61.3085 75.2446 61.4319 75.2076 61.4561ZM292.605 10.5652C290.567 10.8157 288.961 12.4593 287.948 14.245C287.459 15.1081 287.067 16.022 286.675 16.9355L286.674 16.9359C286.256 17.912 285.837 18.8876 285.3 19.8015C282.736 24.1625 277.864 26.5458 273.196 28.4938C272.391 28.8298 270.981 28.6716 271.232 27.8364C278.875 26.3862 285.456 20.3341 287.539 12.8383C287.785 11.9555 286.636 11.2098 285.75 11.4434C284.948 11.6546 284.377 12.3235 283.861 12.9873L283.701 13.1962C279.443 18.734 273.331 23.4155 266.352 23.7181C265.858 23.7392 265.152 23.4379 265.369 22.994C270.538 22.8207 275.41 20.2692 279.248 16.8029C283.087 13.3366 286.013 8.99159 288.751 4.60407C289.175 3.92562 290.192 4.07055 290.949 4.32886C293.272 5.12114 295.501 6.18956 297.573 7.50485C298.686 8.21119 297.804 10.0952 296.539 10.4646C295.812 10.6772 295.054 10.6255 294.291 10.5739C293.727 10.5355 293.161 10.4971 292.605 10.5652ZM290.619 6.24396L290.441 6.19002C289.897 6.03412 289.29 5.94726 288.852 6.28511C288.683 6.41586 288.561 6.59644 288.45 6.78069L286.995 9.23343C287.759 9.4099 288.49 9.72307 289.146 10.1528C289.681 10.5039 290.419 10.5176 290.967 10.1862C291.515 9.85474 291.845 9.19503 291.783 8.55773C291.759 8.32 292.149 8.25553 292.311 8.43018C292.433 8.56093 292.469 8.74014 292.506 8.9189V8.91936C292.518 8.9797 292.53 9.03959 292.546 9.09811C292.607 9.32898 292.795 9.57723 293.029 9.53014C293.266 9.3043 293.396 8.9701 293.373 8.64368C293.458 8.30674 293.984 8.60711 294.066 8.94496C294.147 9.28281 294.3 9.7633 294.635 9.67324C295.129 9.55117 295.284 8.86404 295.044 8.41646C294.803 7.96843 294.319 7.71561 293.858 7.50166C292.807 7.01431 291.724 6.59416 290.619 6.24396ZM286.198 10.2314C286.957 10.9958 288.063 11.4023 289.136 11.3127C288.478 10.4843 287.359 10.0513 286.314 10.2113L286.198 10.2314ZM231.823 86.3521C228.168 87.3857 224.041 86.5706 221.053 84.2253C218.349 85.6425 215.553 87.0173 212.532 87.4607C209.511 87.9046 206.186 87.282 204.002 85.1479C204.362 85.9296 204.73 86.7411 204.742 87.602C204.753 88.4633 204.307 89.3927 203.492 89.6693C202.146 90.1251 200.97 88.6864 200.272 87.4488C199.889 88.4016 200.283 89.4741 200.667 90.5165C201.105 91.7056 201.528 92.8563 200.768 93.7469C199.975 94.6745 198.472 94.4368 197.382 93.89C193.297 91.8409 191.378 86.684 192.263 82.2009C193.148 77.7178 196.371 73.9635 200.21 71.4843C197.604 69.5737 195.697 66.7301 194.921 63.5934C195.452 64.2783 195.845 65.0742 196.239 65.8697C196.632 66.6652 197.026 67.4616 197.557 68.1464C198.061 68.7965 198.702 69.3355 199.343 69.875H199.343C199.984 70.4145 200.624 70.9535 201.128 71.6036C201.257 71.7695 201.368 72.0484 201.185 72.1522C197.505 74.2419 194.357 77.5725 193.313 81.6738C192.269 85.7747 193.722 90.6161 197.326 92.8348C197.961 93.2257 198.719 93.5398 199.439 93.3491C200.161 93.159 200.702 92.2533 200.288 91.6329C199.119 89.8828 198.977 87.4973 199.93 85.6211L202.949 89.0069C203.644 88.8281 203.815 87.8946 203.63 87.2015C203.572 86.982 203.492 86.7654 203.412 86.5491L203.411 86.5487C203.239 86.0828 203.067 85.6188 203.113 85.1314C203.181 84.4173 204.113 83.7791 204.605 84.3003C206.569 86.3818 209.724 86.972 212.548 86.5139C215.373 86.0558 217.96 84.6998 220.491 83.3635L223.477 81.7867C223.262 82.648 222.563 83.3713 221.71 83.6168C224.593 85.6878 228.448 86.3388 231.851 85.3289C232.437 85.1552 233.039 84.9142 233.419 84.4351C233.799 83.9565 233.861 83.1774 233.401 82.7738C233.345 82.7244 233.283 82.6809 233.22 82.638C233.097 82.5529 232.975 82.4688 232.905 82.3399C232.799 82.1451 232.963 81.8178 233.166 81.907C234.316 81.8269 235.025 83.3717 234.557 84.4251C234.088 85.4779 232.932 86.0385 231.823 86.3521ZM211.419 71.0669C210.763 70.8556 210.026 71.3087 209.741 71.9364C209.455 72.5646 209.536 73.3025 209.752 73.9571C209.821 73.2183 209.915 72.6615 210.195 72.1755C210.315 71.9661 210.688 71.7686 211.017 71.5949C211.441 71.3704 211.79 71.1857 211.419 71.0669ZM210.862 69.2103C211.82 68.9716 212.902 69.3406 213.515 70.1146C214.128 70.8881 214.238 72.026 213.787 72.9033C213.678 72.7721 213.652 72.5344 213.62 72.2363C213.525 71.3558 213.373 69.9486 210.862 69.2103ZM210.032 76.014C209.729 76.3921 210.784 77.3919 212.435 76.7025C212.741 76.5749 212.491 76.5603 212.098 76.537C211.739 76.5159 211.261 76.4881 210.976 76.361C210.734 76.2531 210.611 76.0807 210.518 75.9513C210.381 75.7602 210.312 75.6642 210.032 76.014ZM213.377 77.2794C214.435 76.7523 213.771 78.2976 211.558 78.1083C211.358 78.0909 211.097 78.0141 211.099 77.813C211.1 77.7421 211.287 77.7261 211.578 77.7005C212.031 77.6612 212.733 77.5999 213.377 77.2794ZM206.849 74.3462C207.248 74.7352 207.827 74.7453 208.214 74.6708C208.449 74.6251 208.565 74.4143 208.349 74.3462C208.299 74.3302 208.215 74.3169 208.114 74.3014C207.884 74.2648 207.567 74.215 207.354 74.0865C207.217 74.0038 207.139 73.7221 207.072 73.4808C207.003 73.233 206.946 73.0268 206.849 73.1237C206.658 73.3139 206.451 73.9571 206.849 74.3462ZM207.203 75.6615C207.395 75.955 206.661 75.854 206.504 75.6615C206.346 75.4695 206.19 74.7453 206.455 74.7453C206.531 74.7453 206.558 74.8596 206.589 74.9958C206.618 75.122 206.651 75.2674 206.733 75.3602C206.891 75.5399 206.997 75.5664 207.075 75.586C207.128 75.5993 207.168 75.6094 207.203 75.6615ZM240.22 74.2054C240.615 74.9958 239.923 75.8827 239.255 76.462C236.541 78.8183 233.298 80.561 229.835 81.5243C233.567 81.5494 237.282 79.9525 239.831 77.2268C241.017 75.9582 241.776 73.5777 240.245 72.7575C242.062 72.1559 244.212 70.8991 243.935 69.0055C243.836 68.3293 243.422 67.7469 243.021 67.1932L242.783 66.8663C240.304 63.4782 237.272 59.8958 233.115 59.643C235.507 58.3007 238.357 60.2071 240.466 61.9618L241.085 62.4733C243.877 64.7693 246.799 66.9532 250.111 68.3887C253.668 69.9299 257.759 70.5461 261.448 69.357L271.776 66.0288C273.768 65.3695 276.116 64.1306 275.935 62.0601C275.835 60.9194 274.794 59.9388 273.65 59.9072C272.505 59.8752 271.412 60.7964 271.248 61.9298L271.024 60.1683C270.47 59.6946 269.587 60.1006 269.142 60.6771C268.973 60.8952 268.833 61.1361 268.692 61.3761C268.462 61.7711 268.233 62.1643 267.882 62.4509C266.663 63.448 265.044 62.6288 263.589 61.7675L262.683 61.2257C260.098 59.707 257.035 59.4743 254.01 59.2448C253.357 59.1949 252.706 59.1456 252.061 59.0834C247.845 58.676 243.689 57.6488 239.768 56.045C243.364 58.9938 248.061 59.4884 252.801 59.9877C255.189 60.2396 257.587 60.4919 259.86 61.0602C261.663 61.511 263.656 62.4299 264.099 64.2353C264.741 66.8563 261.628 68.8866 258.94 69.1316C254.545 69.5326 250.262 67.6637 246.53 65.2781L246.11 65.0056C244.759 64.1192 243.45 63.1651 242.142 62.2118C239.741 60.4627 237.343 58.7149 234.693 57.3864C237.43 57.524 239.429 55.5426 241.47 53.5182C242.572 52.4264 243.685 51.3224 244.934 50.5315C248.604 48.2076 253.289 48.737 257.608 49.4832L258.287 49.6025C257.271 44.6824 254.79 40.0749 251.242 36.5186L257.339 48.5053C250.919 46.3666 243.22 49.0392 239.507 54.6954C242.373 45.0225 249.192 36.5849 258.048 31.7525C260.902 32.82 263.312 34.7251 265.718 36.6269L265.72 36.6283C266.496 37.2418 267.272 37.8549 268.062 38.4392C271.302 40.8361 275.242 42.8669 279.209 42.1537C282.061 41.6408 284.461 39.7855 286.593 37.8019L286.936 37.4796C289.474 35.0725 291.834 32.4771 293.989 29.7213C296.347 26.7062 299.245 23.1261 303.047 23.5755C303.718 23.655 304.371 23.8644 305.021 24.0729C305.92 24.3614 306.814 24.648 307.746 24.5881C309.353 24.4848 310.83 22.3274 309.568 21.3266L303.095 16.1884C302.463 15.686 301.732 15.1548 300.932 15.259C300.362 15.3326 299.889 15.7166 299.449 16.0856L297.995 17.3062C294.606 20.1608 291.258 23.0749 288.317 26.3853C288.126 26.5997 287.935 26.8173 287.742 27.0363C285.358 29.7451 282.771 32.6847 279.23 32.8964C275.776 33.103 272.873 30.6096 270.22 28.3301C270.086 28.2158 269.954 28.102 269.822 27.9886L269.327 27.5698C266.514 25.2085 263.505 23.0795 260.343 21.2119C257.547 19.561 254.447 18.0738 251.209 18.2992C247.42 18.563 244.223 21.0967 241.486 23.7588L241.072 24.1652C239.729 25.4846 238.123 26.9106 236.276 26.6285L236.129 26.6088C234.268 26.3972 232.523 27.5515 231.121 28.844L230.902 29.0488C227.236 32.5471 224.535 37.0471 223.173 41.9283C215.174 39.7865 206.404 40.6697 198.993 44.3633C197.126 45.2941 195.305 46.4288 194.005 48.0609C192.149 50.3911 191.605 53.3463 191.056 56.3275C190.655 58.5028 190.252 60.6913 189.335 62.6617C189.063 63.2451 188.745 63.8147 188.427 64.3834C187.682 65.7165 186.938 67.0465 186.801 68.5478C186.606 70.6902 188.606 73.1758 190.589 72.3438C192.576 72.0306 193.628 69.2295 192.338 67.6865C193.141 68.2626 194.262 68.3618 195.155 67.9352L193.082 64.1087C196.578 62.2466 199.682 59.6498 202.131 56.536C203.133 55.2628 204.995 54.9409 206.567 55.3318C207.915 55.6669 209.103 56.4277 210.241 57.2359L210.807 57.6424C210.147 58.1219 210.527 59.3966 211.342 59.4372C210.816 57.2981 212.955 55.0511 215.148 55.2596C217.341 55.4676 219.002 57.8001 218.715 59.984C217.557 62.8528 214.692 64.4895 211.859 66.1083C208.784 67.8648 205.747 69.6003 204.968 72.8654C204.183 76.1543 206.719 79.8378 210.072 80.2776C213.424 80.7174 216.825 77.8125 216.915 74.4321C216.915 74.4321 217.411 74.4833 217.587 73.9571C217.864 73.1283 218.126 72.2098 218.385 71.2996C218.874 69.5884 219.354 67.906 219.908 66.9011C221.463 64.0835 224.356 61.8525 227.573 61.7743C228.594 61.7496 229.609 61.5983 230.623 61.447H230.624C231.919 61.2536 233.213 61.0602 234.517 61.132C236.841 61.2605 239.389 62.621 239.724 64.9247C237.147 64.4241 234.457 64.5087 231.916 65.1702L240.912 66.24C242.888 66.475 243.257 69.534 241.849 70.9393C240.522 72.2647 238.5 72.4823 236.606 72.5669L236.264 72.5806C236.595 73.2558 237.417 73.3253 238.24 73.3953C239.062 73.4652 239.884 73.5347 240.22 74.2054ZM288.074 34.8938C285.285 37.9902 282.025 41.318 277.86 41.4734C274.218 41.6092 271.033 39.2625 268.087 37.0919L267.869 36.9319L267.165 36.4175C263.874 34.0297 260.465 31.8042 256.954 29.7515C254.236 28.1619 251.109 26.6267 248.06 27.4148L252.887 28.934C252.073 29.3706 251.783 30.5584 252.304 31.3209C252.416 30.1794 253.736 29.4534 254.869 29.6317C256.003 29.8104 256.924 30.642 257.626 31.5495C251.541 33.8825 246.364 38.5018 243.355 44.2823C242.796 45.3576 242.309 46.4699 241.822 47.5813C241.163 49.0882 240.504 50.5936 239.665 52.0058C238.205 54.4595 236.045 56.6919 233.265 57.342C232.876 57.433 232.477 57.4924 232.078 57.5523C231.279 57.6721 230.483 57.7914 229.772 58.1613C229.733 58.1814 229.694 58.2019 229.655 58.223L229.58 58.2628L229.524 58.2925C228.69 58.7382 227.661 59.2873 227.147 58.5627C226.304 57.3758 224.961 56.557 223.52 56.3518C225.902 48.3462 232.032 41.5434 239.747 38.3432C240.184 38.1621 240.017 37.5084 239.778 37.1006L236.269 31.0956C235.945 30.541 236.324 29.7871 236.895 29.4927C237.466 29.1983 238.147 29.2426 238.784 29.3222C242.844 29.8274 246.752 31.4933 249.928 34.0713C250.436 34.4837 251.268 34.8883 251.64 34.3497C248.017 30.696 242.834 29.0017 237.734 28.3191C242.143 27.8885 246.702 29.2765 250.122 32.0913L250.288 32.228C251.105 32.8913 252.094 33.5963 253.036 33.1894C249.217 29.5256 243.994 27.3636 238.703 27.2553C239.792 26.4456 240.808 25.5455 241.825 24.6453L241.826 24.6448H241.826C242.859 23.7305 243.892 22.8161 245 21.9964C247.2 20.3702 249.829 19.1002 252.56 19.2597C254.543 19.3754 256.402 20.2312 258.156 21.1625C261.864 23.1311 265.355 25.508 268.547 28.2355C268.773 28.4284 269.001 28.6245 269.23 28.8216C272.263 31.4357 275.572 34.2876 279.493 33.9191C281.884 33.6946 284.002 32.2504 285.685 30.5369C286.616 29.5892 287.446 28.5509 288.276 27.5127C288.947 26.6742 289.618 25.8358 290.341 25.0439C291.386 23.9024 292.595 22.8285 294.08 22.3928C295.565 21.9566 297.374 22.3178 298.256 23.5892L288.074 34.8938ZM191.989 56.1012C192.527 53.1588 193.059 50.2494 195.047 48.1071C196.021 47.0583 197.267 46.3026 198.535 45.6392C205.023 42.2461 212.589 40.9541 219.835 42.0028C221.609 42.2593 223.806 43.2546 223.777 44.9379C223.767 45.0412 223.757 45.1441 223.747 45.247C223.766 45.1418 223.775 45.0385 223.777 44.9379C224.5 37.8983 228.6 31.2752 234.591 27.5035C235.122 31.2085 236.745 34.7498 239.205 37.5705C232.686 40.3159 227.274 45.5949 224.367 52.0429L224.32 52.1448C223.495 53.9525 222.185 56.1721 220.272 55.7218L221.219 49.8718C221.306 49.3355 221.387 48.7544 221.132 48.2744C220.848 47.7381 220.241 47.4912 219.649 47.3129L219.441 47.2521C216.014 46.282 212.169 45.3503 209.038 47.0505C207.382 47.9502 206.194 49.4576 205.082 51.0051L204.257 52.1645C202.298 54.8993 200.105 57.4668 197.71 59.829C196.744 60.78 195.702 61.7254 194.41 62.135C193.118 62.5447 191.513 62.269 190.746 61.1516C191.358 59.5552 191.675 57.8225 191.989 56.1012ZM213.113 78.8969C211.078 79.6517 209.422 79.2796 207.834 78.3547C207.154 77.9588 206.514 77.449 206.131 76.7619C205.557 75.7314 205.643 74.4522 205.974 73.3198C206.469 71.6274 207.482 70.0903 208.842 68.9675C209.782 68.1912 210.864 67.6216 211.947 67.052L211.947 67.0515C212.321 66.8549 212.694 66.6583 213.061 66.4535C216.651 64.4511 219.748 61.5718 222.005 58.137C222.456 57.4513 223.406 57.2291 224.201 57.4316C224.996 57.6341 225.659 58.1786 226.232 58.7657C226.642 59.1858 226.947 60.021 226.399 60.2327C222.566 61.7167 219.48 65.0097 218.246 68.9305C218.213 69.0375 218.18 69.1454 218.148 69.2537C217.96 69.8741 217.77 70.5013 217.368 71.0033C216.896 71.5926 215.948 73.6677 216.431 74.6516C216.431 74.6516 215.148 78.1421 213.113 78.8969ZM218.431 47.8382C219.052 47.9777 219.728 48.1775 220.069 48.7151C220.348 49.1554 220.33 49.7149 220.286 50.2338C220.113 52.2879 219.681 54.3196 219.004 56.2663C218.89 56.5954 218.537 56.9913 218.279 56.7568C217.987 55.2829 216.64 54.0846 215.143 53.9658C213.645 53.8469 212.126 54.8175 211.605 56.227C211.502 56.5049 211.141 56.6082 210.855 56.5314C210.64 56.4743 210.456 56.344 210.281 56.2041L210.107 56.0624C208.323 54.6131 205.909 53.9699 203.64 54.3393C204.848 52.3048 206.382 50.4643 208.164 48.908C208.893 48.2707 209.684 47.67 210.605 47.3715C211.472 47.0903 212.404 47.093 213.314 47.1392C215.035 47.227 216.749 47.4611 218.431 47.8382ZM299.784 21.9516C298.917 21.0267 297.728 20.4082 296.472 20.2326L297.897 18.4227C298.349 17.8553 298.876 17.2733 299.589 17.1842C300.103 17.1193 300.609 17.3305 301.076 17.5531C302.641 18.2988 304.117 19.2328 305.46 20.3286C305.908 20.6944 306.359 21.1026 306.554 21.6476C306.749 22.1921 306.592 22.9053 306.07 23.1544C305.548 23.4036 304.796 22.8577 305.009 22.3205L305.03 22.2602C305.118 21.9543 304.98 21.5936 304.703 21.4327L304.199 22.3996C304.153 22.4842 304.098 22.566 304.015 22.6122C303.679 22.7983 303.405 22.2748 303.383 21.8908L303.379 21.8378C303.343 21.4592 303.145 20.9769 302.797 21.0948C302.75 21.7427 302.287 22.3411 301.671 22.5487C301.056 22.7562 300.325 22.561 299.895 22.0737L299.784 21.9516ZM191.15 69.6908L190.541 67.3802C190.251 67.2993 189.969 67.5896 189.927 67.8872C189.9 68.0856 189.944 68.2822 190.004 68.4756L190.098 68.7641C190.41 69.7447 190.402 70.8246 190.076 71.8006C189.472 70.5653 189.157 69.1897 189.163 67.8145C188.769 67.5983 188.501 68.2575 188.529 68.7056L188.699 71.38C187.874 70.6362 187.583 69.4293 187.724 68.3275C187.866 67.2252 188.383 66.208 188.965 65.2612C189.268 64.7674 189.605 64.2719 190.087 63.9509C190.571 63.6304 191.236 63.5203 191.729 63.8252C192.139 64.078 192.329 64.5279 192.522 64.9837C192.668 65.3284 192.815 65.6768 193.061 65.9465C193.147 66.0421 193.249 66.1399 193.352 66.2391C193.75 66.6236 194.176 67.0346 193.898 67.4488C193.039 66.9217 192.254 66.2752 191.571 65.5341C191.324 67.0652 191.55 68.669 192.211 70.0721C192.346 70.3587 191.9 70.6325 191.619 70.4853C191.337 70.3381 191.23 69.9975 191.15 69.6908ZM273.617 62.1327C274.056 61.7437 274.459 61.388 274.653 61.4849C275.22 61.7675 273.68 63.0096 272.865 63.3607C272.924 63.7543 273.495 63.5779 273.829 63.3607C274.163 63.1436 275.096 62.9099 274.914 63.1463C273.774 64.6198 271.574 65.7911 269.54 66.0206C268.716 66.1134 267.697 65.893 267.434 65.1062C267.194 64.388 267.728 63.6798 268.292 63.1463L268.428 63.0215C268.665 62.8094 269.046 62.6023 269.264 62.8336C269.845 63.4485 270.861 62.9456 271.531 62.4281C271.531 62.4281 273.271 60.7498 273.562 60.8572C273.852 60.9637 272.694 62.8565 272.694 62.8565C272.981 62.6955 273.308 62.4061 273.617 62.1332V62.1327ZM265.289 63.6908C265.497 63.6432 265.714 63.7274 265.894 63.8426C266.547 64.2627 266.86 65.1474 266.614 65.8843C266.368 66.6217 265.588 67.142 264.813 67.0858C264.703 67.078 264.588 67.0574 264.502 66.9879C264.321 66.843 264.344 66.5664 264.384 66.3383L264.676 64.6687C264.747 64.2655 264.89 63.7813 265.289 63.6908ZM228.437 59.8999C229.558 59.7106 230.718 59.7568 231.821 60.0352C231.757 60.4897 231.226 60.6963 230.777 60.7891C229.389 61.0758 227.956 61.1375 226.549 60.9715C226.902 60.3091 227.697 60.0252 228.437 59.8999ZM298.706 22.8801L295.764 21.1433C297.213 20.9266 298.759 21.6878 299.471 22.9688C299.267 23.1549 298.943 23.0205 298.706 22.8801ZM234.248 57.7192C233.001 58.0493 231.768 58.4328 230.554 58.869C231.815 59.5662 233.606 59.0089 234.248 57.7192ZM222.059 56.1419C222.402 56.2128 222.246 56.7532 221.972 56.9717C221.139 57.6373 219.872 57.6949 218.982 57.1075L222.059 56.1419ZM300.337 15.8483C300.539 15.8003 300.747 15.8821 300.936 15.9676C302.164 16.5222 303.29 17.3044 304.237 18.2631L300.01 16.1048C300.075 15.9777 300.198 15.8812 300.337 15.8483ZM235.935 27.509L235.977 27.5383C236.359 27.4834 236.752 27.5154 237.119 27.632C236.799 28.2378 236.353 28.7772 235.817 29.2056C235.549 28.6744 235.597 27.9982 235.935 27.509ZM308.27 21.5781L308.279 21.6046C308.746 21.7943 309.064 22.3013 309.032 22.8042C308.069 22.3055 307.291 21.4611 306.871 20.4621C307.446 20.661 307.948 21.0619 308.27 21.5781ZM220.747 58.473L220.677 58.5686C220.433 58.9001 220.143 59.2594 219.735 59.3069C219.326 59.3545 218.908 58.826 219.196 58.5329C219.68 58.3158 220.248 58.2938 220.747 58.473ZM191.817 62.5748C192.181 62.6599 192.593 62.9259 192.536 63.2953C191.701 63.1865 190.877 62.9936 190.081 62.7202C190.626 62.4925 191.242 62.4409 191.817 62.5748ZM269.344 62.504C269.155 62.5863 268.983 62.2402 269.163 62.1391C269.163 62.1391 270.408 59.9561 270.462 61.4849C270.489 61.8653 269.684 62.3307 269.344 62.504ZM216.748 73.7125C216.84 73.0501 217.014 71.8006 217.368 71.8006C217.87 71.7476 217.677 72.6021 217.541 73.2037C217.503 73.3697 217.47 73.5164 217.457 73.6197C217.411 73.9814 217.074 74.2653 216.687 74.0911C216.702 74.0385 216.722 73.8986 216.748 73.7125ZM100.072 96.6202C102.626 96.8406 105.189 96.9457 107.752 96.9357C107.57 99.3455 109.53 101.719 111.931 101.996C114.331 102.273 116.78 100.408 117.151 98.0201C117.3 97.0609 118.598 96.8941 119.566 96.9691L125.725 97.4486C126.781 97.5309 128.275 97.1986 128.161 96.1457L127.464 89.6949C127.401 89.1134 127.604 88.2653 128.177 88.3806C130.622 88.8711 133.293 86.9971 133.628 84.5261C133.963 82.0551 131.85 79.5228 129.358 79.4446C128.16 79.4071 127.591 77.8408 127.902 76.6837C128.068 76.0615 128.386 75.4983 128.704 74.9341C128.977 74.4491 129.251 73.9635 129.43 73.4391C129.817 72.3054 129.492 70.7249 128.325 70.4515C119.466 68.3746 110.167 68.1981 101.235 69.9376L101.072 69.9701C100.58 70.0693 100.088 70.1909 99.6632 70.4538C98.2684 71.3174 98.1609 73.222 98.2291 74.9012L98.2748 75.8348C98.5194 81.2514 98.0933 86.6977 97.008 92.0101L96.9837 92.1308C96.741 93.3414 96.5435 94.7252 97.3518 95.6428C97.9511 96.3231 98.9098 96.5059 99.8246 96.5974L100.072 96.6202ZM115.785 97.9191C115.856 98.2679 115.767 98.6313 115.627 98.9582L115.582 99.0579C114.758 100.798 112.304 101.544 110.66 100.526C108.985 99.4895 108.574 96.8836 109.849 95.3813C106.609 95.7694 103.326 95.795 100.081 95.4572C99.0762 95.3529 97.7632 94.8107 97.9685 93.8219C99.3812 87.0227 99.8223 80.0225 99.2746 73.0995C99.1754 71.845 100.72 71.194 101.958 70.9667C109.944 69.5006 118.208 69.5614 126.173 71.1446C127.191 71.3471 128.503 72.1216 128.051 73.0569C126.988 75.2596 126.563 77.7654 126.841 80.1953C126.912 80.8148 127.397 81.6258 127.938 81.3154C129.395 80.4787 131.503 81.1494 132.208 82.6741C132.914 84.1988 132.06 86.2396 130.479 86.8083C128.899 87.3771 126.941 86.3475 126.513 84.7227C126.131 88.0688 126.267 91.4734 126.915 94.7778C127.139 95.9235 125.472 96.3555 124.308 96.2687L115.016 95.5765C114.731 96.025 115.022 96.489 115.33 96.9764C115.521 97.2808 115.718 97.594 115.785 97.9191ZM163.868 76.9196L182.068 77.2854L182.365 77.2927C182.912 77.3101 183.463 77.3581 183.955 77.5876C185.067 78.1069 185.577 79.387 185.916 80.567C187.722 86.8673 187.499 93.7318 185.288 99.9014L185.195 100.154C184.907 100.913 184.531 101.67 183.852 102.097C183.292 102.449 182.61 102.522 181.947 102.558L181.805 102.564C179.099 102.693 176.383 102.624 173.687 102.358C175.091 101.493 175.446 99.3884 174.554 98.0014C173.662 96.6143 171.779 96.035 170.192 96.4858C169.225 96.7601 168.325 97.4212 167.975 98.3634C167.625 99.3057 167.963 100.516 168.857 100.976C169.475 101.294 169.368 102.296 168.827 102.733C168.286 103.169 167.534 103.2 166.839 103.211L157.707 103.359C157.021 103.37 156.299 103.373 155.696 103.044C154.842 102.578 154.449 101.574 154.208 100.631C153.627 98.3548 153.549 95.9523 153.98 93.6431C154.499 95.4668 156.746 96.5741 158.509 95.875C160.271 95.1756 161.147 92.8289 160.275 91.1456C159.403 89.4622 156.98 88.8254 155.392 89.8618L155.327 89.2734C155.099 87.2111 154.922 85.1223 155.318 83.091C155.752 80.8664 156.989 78.682 159.017 77.6712C160.497 76.9338 162.205 76.8931 163.868 76.9196ZM183.735 78.8233C183.28 78.549 182.73 78.5019 182.196 78.4795L182.062 78.4745C176.401 78.2628 170.735 78.1558 165.07 78.1531L163.181 78.1563C161.986 78.1604 160.753 78.1773 159.66 78.6592C158.028 79.3774 156.971 81.0438 156.539 82.7738C156.108 84.5037 156.211 86.316 156.318 88.0957C159.187 87.3053 162.272 90.2207 161.932 93.1768C161.592 96.1329 158.314 98.2679 155.394 97.6978C155.261 98.6318 155.131 99.6015 155.405 100.504C155.68 101.406 156.481 102.222 157.423 102.192L165.89 101.92C166.414 101.903 167.138 101.632 166.986 101.13C166.121 98.2802 168.617 94.9538 171.595 94.9872C174.572 95.021 176.993 98.4032 176.064 101.233C177.924 101.651 179.859 101.74 181.75 101.491C182.364 101.411 183.005 101.281 183.476 100.878C183.938 100.482 184.166 99.8826 184.359 99.3048C186.323 93.4177 186.538 86.9583 184.97 80.9533C184.767 80.177 184.486 79.3413 183.836 78.8882L183.735 78.8233ZM103.407 134.889C102.505 129.023 102.507 123.02 103.41 117.155L103.456 116.872C103.68 115.54 104.074 114.136 105.186 113.402C106.019 112.853 107.07 112.812 108.073 112.812L115.752 112.833C116.101 112.834 116.484 112.847 116.747 113.077C117.01 113.308 117.003 113.837 116.666 113.93C115.861 114.153 115.399 115.081 115.497 115.909C115.594 116.738 116.133 117.456 116.766 118C118.275 119.297 120.622 119.758 122.292 118.676C123.963 117.595 124.356 114.808 122.773 113.602C126.359 113.529 129.947 113.54 133.534 113.635L134.878 113.675C135.313 113.689 135.793 113.724 136.097 114.035C136.325 114.269 136.4 114.608 136.451 114.931C136.848 117.413 136.414 120.022 135.234 122.242C135.046 122.595 134.611 122.985 134.314 122.716C133.054 121.572 130.935 121.728 129.646 122.838C128.357 123.949 127.858 125.794 128.086 127.48C128.306 129.103 129.488 130.837 131.125 130.755C131.585 130.732 132.065 130.573 132.535 130.417C133.379 130.137 134.194 129.867 134.819 130.411L133.179 137.739C132.888 139.042 132.365 140.586 131.06 140.865C123.528 142.476 115.631 142.354 108.153 140.512L107.79 140.42C106.882 140.182 105.979 139.875 105.27 139.269C104.038 138.214 103.653 136.492 103.407 134.889ZM133.365 131.721C131.235 132.723 128.459 131.863 127.125 129.923C125.792 127.982 125.922 125.209 127.291 123.293C128.659 121.376 131.118 120.358 133.464 120.558L133.66 120.575C133.989 120.603 134.326 120.616 134.606 120.451C134.959 120.243 135.109 119.815 135.208 119.418C135.599 117.83 135.578 116.143 135.146 114.566L125.219 114.638C125.4 117.394 123.131 120.082 120.385 120.369C117.638 120.655 114.865 118.491 114.474 115.758L114.419 115.351C114.36 114.941 114.268 114.536 113.962 114.276C113.747 114.093 113.464 114.021 113.186 113.965L113.081 113.945C110.193 113.399 106.531 113.173 105.016 115.691C104.5 116.549 104.361 117.575 104.256 118.57C103.653 124.284 103.796 130.077 104.682 135.754L104.725 136.02C104.869 136.865 105.094 137.733 105.723 138.3C106.155 138.689 106.722 138.882 107.286 139.041L107.426 139.08C114.628 141.061 122.296 141.326 129.618 139.85L130.024 139.766C130.385 139.69 130.758 139.602 131.041 139.367C131.41 139.061 131.552 138.567 131.675 138.103L133.365 131.721ZM186.933 146.242C186.933 146.242 186.974 145.1 187.119 144.725C187.379 144.047 188.146 143.083 188.146 143.083C188.093 143.344 188.018 143.623 187.942 143.911C187.677 144.898 187.386 145.989 187.829 146.796C188.171 147.418 193.172 150.695 194.891 151.463C202.241 154.748 209.628 157.72 217.05 160.707H217.051L217.051 160.708L217.058 160.71C220.091 161.93 223.129 163.153 226.173 164.401C220.941 163.763 216.124 161.327 211.429 158.93C210.416 164.551 213.548 170.217 217.774 174.059C220.851 176.858 224.473 178.931 228.095 181.006H228.095L228.096 181.006C229.447 181.78 230.799 182.554 232.122 183.366L232.608 183.667C237.304 186.606 241.794 190.316 243.867 195.434C244.247 196.372 245.415 196.907 246.374 196.581C247.333 196.256 247.933 195.121 247.664 194.145C248.667 194.969 248.088 196.809 246.872 197.265C245.656 197.72 244.262 197.102 243.364 196.164C242.688 195.457 242.216 194.593 241.745 193.731L241.744 193.73V193.729L241.743 193.727C241.589 193.446 241.436 193.165 241.275 192.889C238.377 187.921 233.257 184.835 228.178 182.011L225.793 180.691C220.281 177.613 214.634 173.915 212.273 168.089C203.702 169.449 194.78 168.527 186.669 165.442C184.934 164.782 183.235 164.026 181.537 163.27C178.832 162.065 176.129 160.862 173.286 160.051C171.702 159.6 169.518 159.551 168.925 161.088C168.924 161.088 168.924 161.089 168.922 161.092C168.905 161.122 168.792 161.32 168.287 161.363C168.05 161.383 167.832 160.968 167.765 160.692C167.707 160.615 167.687 160.398 167.687 159.951C167.687 159.71 168.178 158.658 169.101 158.006C169.744 157.553 170.466 157.389 170.845 157.303C171.016 157.264 171.117 157.241 171.108 157.215C171.089 157.154 170.432 156.984 169.836 157.274C169.375 157.497 168.939 157.792 168.538 158.063L168.538 158.064C167.918 158.483 167.381 158.846 166.969 158.798C166.411 158.733 166.015 158.473 166.009 157.911C166.003 157.35 166.152 156.666 166.585 156.314C167.512 155.559 168.707 155.144 169.901 155.161C170.16 155.164 170.445 155.201 170.614 155.397C170.782 155.592 170.699 155.983 170.441 155.994C168.893 156.064 167.103 156.323 166.501 157.911C166.325 158.373 167.434 158.448 167.861 158.201C168.11 158.058 168.324 157.866 168.538 157.673C168.692 157.534 168.847 157.394 169.015 157.274C169.519 156.912 170.144 156.722 170.764 156.744C171.013 156.753 171.288 156.811 171.436 157.013C171.583 157.215 171.479 157.581 171.229 157.585C169.624 157.612 168.16 159.003 168.049 160.604C168.055 160.662 168.1 160.926 168.287 160.989C168.505 161.062 168.747 160.884 168.756 160.867C169.592 159.374 171.117 158.377 172.757 158.877C173.377 159.066 173.974 159.353 174.568 159.639C175.607 160.14 176.638 160.636 177.771 160.594L177.091 156.989C174.335 154.462 170.18 153.571 166.63 154.745C166.25 154.871 165.84 155.054 165.685 155.423C165.53 155.792 165.87 156.327 166.243 156.185C165.656 156.728 164.663 155.805 164.886 155.037C165.11 154.268 165.953 153.873 166.728 153.671C171.076 152.541 175.41 154.511 179.598 156.415L179.601 156.416C180.377 156.769 181.148 157.119 181.914 157.447C190.441 161.103 200.076 162.125 209.181 160.341C208.786 161.422 207.44 161.749 206.297 161.877C198.187 162.789 189.857 161.673 182.273 158.658C181.347 159.835 181.788 161.663 182.842 162.727C183.896 163.791 185.387 164.274 186.822 164.703C194.863 167.106 203.388 168.944 211.604 167.236L210.273 159.444L210.246 159.303C210.18 158.991 210.059 158.67 209.768 158.571L209.695 158.546C199.164 154.97 191.138 152.244 180.716 142.31C180.695 142.29 180.675 142.27 180.655 142.249C180.578 145.234 179.631 145.891 175.683 145.078C167.068 143.301 158.247 142.372 149.552 143.594C150.209 140.344 151.033 137.128 152.018 133.962C149.189 134.875 145.848 132.282 146.032 129.315C146.215 126.348 149.848 124.184 152.544 125.438C153.47 123.301 153.529 120.803 152.704 118.625C152.308 117.581 153.885 116.978 155.002 116.978L161.175 116.976C162.038 116.976 163.241 116.575 163.026 115.74C162.518 113.758 163.881 111.493 165.87 111.014C167.824 110.544 170.023 111.882 170.527 113.82L170.553 113.928C171.022 116.009 173.658 116.67 175.792 116.629L176.854 116.604C178.699 116.565 180.622 116.625 181.857 117.916C183.334 119.459 183.004 121.918 182.517 124.013L182.484 124.152C182.246 125.153 181.9 125.967 181.552 126.785C180.889 128.344 180.218 129.92 180.278 132.844C180.302 134.036 180.345 135.13 180.394 136.132C180.565 135.428 180.716 134.964 180.716 134.964C180.716 134.964 200.836 149.944 213.262 151.977C214.751 150.662 213.891 148.098 212.392 146.796C211.759 146.247 211.04 145.803 210.322 145.36C209.337 144.752 208.355 144.146 207.607 143.274C206.122 141.54 205.857 139.15 205.594 136.781C205.307 134.205 205.024 131.653 203.178 129.993C203.013 129.845 202.838 129.706 202.663 129.568C202.267 129.256 201.872 128.944 201.602 128.524C200.937 127.483 201.264 126.034 202.071 125.098C202.877 124.161 204.056 123.639 205.222 123.231C207.644 122.386 210.299 121.914 212.772 122.595C215.245 123.276 217.46 125.335 217.703 127.889C218.172 126.873 219.202 126.139 220.315 126.028L218.699 127.745L220.744 127.786L217.93 129.357C219.675 132.583 219.392 136.563 218.274 140.056C218.137 140.484 217.988 140.912 217.838 141.341C217.241 143.055 216.638 144.783 216.793 146.573C216.983 148.773 218.936 151.02 221.072 150.569L221.179 150.545C223.745 149.896 226.555 150.272 228.862 151.571C231.551 153.086 233.382 155.655 235.194 158.198C235.615 158.788 236.035 159.377 236.463 159.951C238.474 162.64 240.854 165.14 243.828 166.698C246.802 168.256 250.45 168.77 253.548 167.477C254.118 167.239 254.665 166.943 255.212 166.649C256.141 166.147 257.066 165.648 258.093 165.435C259.724 165.097 261.802 165.895 261.995 167.55C261.151 166.14 259.152 165.89 257.579 166.365C256.692 166.633 255.873 167.072 255.053 167.511C254.42 167.85 253.787 168.189 253.12 168.451C249.783 169.761 245.897 168.967 242.825 167.119C239.85 165.33 237.519 162.657 235.416 159.888L235.213 159.62C234.999 159.336 234.787 159.052 234.575 158.766L234.574 158.765L234.574 158.765L234.573 158.764L234.572 158.764V158.763L234.572 158.762L234.571 158.761L234.571 158.761C233.092 156.774 231.603 154.772 229.651 153.261C227.462 151.565 224.521 150.563 221.886 151.377L221.725 151.429C219.204 152.283 216.533 149.871 216.079 147.248C215.626 144.625 216.695 142.004 217.742 139.556C218.821 137.031 216.839 134.085 214.34 132.947C212.021 131.891 209.236 131.915 206.936 133.011C206.191 133.366 206.056 134.344 206.081 135.18L206.084 135.272C206.213 138.224 207.002 141.326 209.156 143.348C209.797 143.949 210.537 144.434 211.276 144.919C212.2 145.525 213.123 146.13 213.846 146.958C215.146 148.448 215.346 151.24 213.54 152.046C216.638 152.606 219.704 153.347 222.717 154.264C206.51 152.606 191.608 144.961 180.91 135.728C180.691 136.156 180.536 136.608 180.442 137.072C180.468 137.534 180.493 137.975 180.517 138.395C180.551 138.987 180.583 139.537 180.607 140.047C181.123 141.742 182.326 143.236 183.98 143.893C183.848 142.702 184.25 141.463 185.054 140.575C184.532 141.742 183.704 143.978 186.933 146.242ZM211.828 123.427C210.385 123.158 208.919 123.015 207.452 123C207.353 123.184 207.315 123.402 207.347 123.609C208.982 123.745 210.593 124.176 212.078 124.875C211.457 125.496 210.432 125.124 209.599 124.822L209.55 124.805C208.126 124.289 206.564 124.165 205.077 124.448C204.318 124.592 203.56 124.852 202.976 125.356C202.391 125.862 202.009 126.647 202.14 127.408C202.306 128.38 203.22 129.044 204.133 129.418C206.395 130.345 209.106 130.084 211.15 128.742C211.316 128.633 211.549 128.815 211.559 129.013C211.568 129.211 211.435 129.386 211.294 129.525C210.48 130.336 209.268 130.594 208.121 130.661C207.786 130.681 207.449 130.687 207.112 130.694C206.296 130.71 205.479 130.726 204.691 130.925C204.797 131.576 205.609 131.8 206.267 131.847C208.78 132.03 211.328 131.692 213.707 130.86C214.302 130.652 214.849 131.249 215.201 131.773L217.762 135.596C218.604 134.804 218.553 133.435 218.156 132.349C218.001 131.926 217.804 131.516 217.607 131.108C217.299 130.471 216.993 129.835 216.849 129.146C216.769 128.767 216.74 128.377 216.712 127.988C216.672 127.442 216.632 126.897 216.451 126.383C215.814 124.572 213.714 123.778 211.828 123.427ZM180.883 158.322L178.558 156.986C178.3 156.838 177.824 156.813 177.85 157.109C177.771 158.31 177.869 159.78 178.64 160.78C179.127 161.41 179.478 161.733 181.195 162.16L181.068 158.798C181.062 158.62 181.037 158.411 180.883 158.322ZM216.29 140.036C216.573 139.872 216.753 139.58 216.921 139.3C217.222 138.799 217.532 138.268 217.545 137.684C217.559 137.099 217.155 136.462 216.571 136.439C216.28 136.427 216.004 136.566 215.767 136.734C215.24 137.107 214.833 137.647 214.621 138.256C214.89 138.643 215.498 138.297 215.768 137.911C216.039 137.525 216.44 137.037 216.871 137.229C216.586 138.215 216.084 139.137 215.41 139.909C215.59 140.182 216.007 140.2 216.29 140.036ZM220.941 168.428C220.295 167.401 219.596 166.292 218.444 165.958C221 170.769 224.962 174.823 229.713 177.488C231.372 178.419 233.121 179.183 234.87 179.947C237.307 181.012 239.742 182.076 241.923 183.587C244.654 185.48 246.913 188.05 248.442 191.002C247.841 186.793 244.322 183.571 240.565 181.582C238.864 180.681 237.078 179.955 235.292 179.229C233.132 178.352 230.975 177.475 228.972 176.29C225.779 174.403 223.043 171.748 221.059 168.615C221.02 168.553 220.981 168.49 220.941 168.428ZM228.97 169.851L229.042 170.01C229.356 170.738 229.574 171.652 228.984 172.145C228.513 172.538 227.799 172.388 227.244 172.127C226.044 171.564 225.052 170.569 224.492 169.367C225.193 169.228 225.85 168.876 226.352 168.369C226.771 167.947 227.51 168.033 227.981 168.394C228.452 168.754 228.72 169.313 228.97 169.851ZM228.589 171.574C229.194 170.488 227.96 168.887 227.358 168.783C227.096 168.738 226.826 168.997 226.535 169.276C226.236 169.562 225.917 169.868 225.564 169.887C225.564 169.887 227.985 172.659 228.589 171.574ZM259.086 174.695C273.769 174.213 288.104 167.06 297.318 155.618C297.795 155.025 298.739 155.015 299.402 155.387C300.065 155.76 300.513 156.414 300.937 157.045C301.399 156.977 301.413 156.26 301.094 155.919C300.937 155.75 300.74 155.628 300.543 155.505C300.34 155.38 300.138 155.254 299.979 155.078C299.338 154.368 299.681 153.251 300.056 152.37L301.732 148.448C301.956 147.922 302.307 147.309 302.879 147.317C303.296 147.323 303.618 147.673 303.883 147.995C306.774 151.517 309.456 155.211 311.91 159.05C310.397 159.284 308.943 158.539 307.508 157.804C305.906 156.983 304.328 156.174 302.721 156.757C301.321 157.265 300.495 158.674 299.754 159.966C297.329 164.192 294.55 168.261 291.031 171.631C282.858 179.455 271.454 182.842 260.344 184.983C267.216 187.584 274.787 188.314 282.029 187.073C286.174 186.363 290.307 184.965 293.537 182.272C294.845 181.183 295.98 179.902 297.109 178.628L305.429 169.236C305.916 168.687 306.815 169.214 307.269 169.792C307.723 170.369 308.338 171.09 309.03 170.843C308.535 169.734 307.675 168.791 306.616 168.196C306.553 166.871 306.514 165.453 307.218 164.329C307.922 163.205 309.678 162.657 310.592 163.619C313.587 166.77 316.458 170.041 319.195 173.42C317.589 173.673 316.063 172.982 314.549 172.296H314.548H314.548C314.08 172.083 313.614 171.872 313.146 171.689C311.164 170.914 308.387 170.931 307.483 172.857C305.011 178.126 302.443 183.529 298.2 187.513C291.115 194.166 280.762 195.668 271.104 196.763C266.822 197.249 262.422 197.709 258.251 196.619C255.216 195.825 252.454 194.246 249.733 192.684L247.574 191.444C246.939 191.603 247.449 192.566 248.013 192.899C251.628 195.031 255.355 197.203 259.5 197.857C260.556 198.023 261.626 198.088 262.694 198.128C272.532 198.498 282.444 196.772 291.578 193.099C295.386 191.567 299.263 189.519 301.355 185.987L308.726 173.538C309.008 173.061 309.319 172.558 309.82 172.321C310.43 172.033 311.148 172.216 311.796 172.405L318.706 174.412C319.412 174.617 320.068 173.789 319.994 173.057C319.921 172.326 319.392 171.733 318.89 171.196L312.518 164.375C311.678 163.476 310.774 162.537 309.587 162.209C308.4 161.882 306.874 162.458 306.642 163.668C305.956 167.238 303.518 170.179 301.164 172.95C297.521 177.237 293.729 181.643 288.672 184.111C281.422 187.649 272.854 186.621 264.915 185.184L270.063 183.685C272.611 182.942 275.163 182.199 277.633 181.228C287.215 177.463 295.377 170.198 300.227 161.117C301.069 159.54 302.059 157.719 303.818 157.402C305.263 157.142 306.496 157.996 307.756 158.868C308.505 159.387 309.263 159.912 310.082 160.214C311.29 160.66 313.164 160.026 312.88 158.77C312.816 158.486 312.644 158.241 312.476 158.003L305.921 148.762C305.011 147.481 303.648 146.032 302.152 146.513C300.95 146.9 300.499 148.288 300.101 149.512L300.065 149.623L300.049 149.674L300.03 149.73C298.164 155.416 293.148 159.387 288.386 163.011C286.303 164.596 284.214 166.185 281.966 167.526C275.399 171.445 267.697 173.103 260.066 173.599C257.91 173.739 256.555 175.761 255.315 177.613C255.167 177.833 255.021 178.05 254.876 178.263C252.752 181.357 249.727 183.826 246.27 185.288C246.849 185.927 247.902 185.544 248.633 185.087C252.102 182.918 255.045 179.914 257.141 176.401C257.604 175.627 258.185 174.725 259.086 174.695ZM213.018 141.526C212.68 142.265 211.928 142.797 211.118 142.869C210.308 142.941 209.474 142.55 209.011 141.882C208.841 141.636 208.843 141.157 209.14 141.183C209.759 142.005 211.05 142.218 211.9 141.637C212.268 141.386 212.907 141.094 213.018 141.526ZM206.51 136.152C206.583 135.533 207.105 134.995 207.722 134.903C208.339 134.811 208.995 135.173 209.246 135.744C208.796 135.744 208.493 135.663 208.241 135.595C207.729 135.456 207.427 135.375 206.51 136.152ZM211.29 139.602L210.589 139.903L210.548 139.88C210.366 140.227 209.83 139.834 209.789 139.445C209.78 139.364 209.776 139.279 209.772 139.193C209.757 138.863 209.74 138.52 209.468 138.372C209.127 138.863 208.971 139.509 209.169 140.073C209.367 140.637 209.971 141.064 210.558 140.958C211.146 140.852 211.569 140.131 211.29 139.602ZM212.133 134.817C213.021 134.889 213.257 134.937 213.502 135.52C213.55 135.636 213.171 135.527 212.809 135.424C212.543 135.348 212.287 135.275 212.218 135.295C209.246 136.176 211.245 134.746 212.133 134.817ZM211.882 136.352C212.372 136.741 212.231 138.29 211.507 137.998C211.203 137.876 210.841 135.526 211.882 136.352ZM235.368 177.834C235.133 177.542 235.399 177.021 235.773 177.04C235.938 177.147 236.05 177.331 236.069 177.527C235.927 177.757 235.635 177.883 235.37 177.827L235.368 177.834ZM228.695 174.814L229.206 174.736L229.246 174.722C229.424 174.391 228.845 174.013 228.613 174.309C228.562 174.478 228.594 174.67 228.695 174.814ZM232.328 176.827C232.032 176.907 231.992 176.399 232.159 176.142L232.865 176.463C232.756 176.654 232.554 176.788 232.336 176.816L232.328 176.827ZM223.509 169.424C223.431 169.23 223.15 169.156 222.986 169.286L223.031 169.331C222.889 169.516 223.002 169.832 223.229 169.887C223.437 169.866 223.587 169.618 223.509 169.424ZM207.994 138.034C207.71 138.034 207.413 137.756 207.427 137.273C207.442 136.79 207.573 136.344 207.994 136.581C208.415 136.818 208.287 138.034 207.994 138.034ZM75.5824 79.3417C75.7539 79.5671 76.1452 79.4679 76.2956 79.2288C76.4465 78.9893 76.4273 78.6848 76.4003 78.4032C76.0062 74.3325 74.9497 70.3271 73.2851 66.5916C72.811 65.5277 72.3123 64.201 73.0383 63.2903C74.7165 67.4844 76.4085 71.7307 77.0198 76.2069C77.1867 77.4285 77.2466 78.7662 76.5654 79.7943C75.8842 80.8221 74.1871 81.2162 73.4305 80.2424C74.5945 79.9996 75.4851 78.821 75.4009 77.6346C75.9386 78.0013 76.0309 78.8704 75.5824 79.3417ZM89.1473 160.165C95.2369 159.831 102.291 158.952 105.485 153.757C106.313 152.409 106.137 150.292 105.991 148.546C105.874 147.144 105.777 145.983 106.238 145.655C107.271 144.918 108.098 146.818 108.098 146.818C108.111 146.763 108.125 146.703 108.14 146.638C108.159 146.553 108.18 146.46 108.202 146.361C108.491 145.066 109.022 142.682 109.857 143.13C110.201 143.314 110.083 144.473 110.001 145.27V145.27C109.982 145.457 109.965 145.624 109.957 145.753C109.937 145.876 109.935 145.979 109.949 146.052C109.961 146.047 109.973 146.04 109.985 146.032C109.99 146.031 109.996 146.028 110.003 146.023C110.007 146.019 110.012 146.014 110.017 146.008C110.153 145.893 110.337 145.612 110.544 145.298C110.97 144.649 111.485 143.864 111.831 144.153C112.374 144.606 110.444 147.499 110.444 147.499C110.444 147.499 112.736 144.981 112.929 146.052C113.122 147.124 107.904 156.803 103.193 160.599C98.4823 164.396 91.8446 166.521 85.8428 165.76C85.9768 163.379 86.7668 160.296 89.1473 160.165ZM110.017 146.008C110.006 146.017 109.996 146.025 109.985 146.032C109.949 146.038 109.945 145.93 109.957 145.753C110.001 145.473 110.132 145.089 110.341 144.723C110.301 144.849 110.262 144.971 110.224 145.085C110.057 145.598 109.936 145.97 110.062 145.941C110.051 145.959 110.042 145.975 110.033 145.987C110.027 145.995 110.022 146.002 110.017 146.008ZM111.152 143.823C110.814 144.037 110.542 144.372 110.341 144.723C110.654 143.733 110.97 142.484 110.201 142.384C108.895 142.214 107.62 144.339 107.846 145.467C107.484 144.568 105.977 144.957 105.612 145.855C105.332 146.544 105.451 147.299 105.569 148.048V148.048C105.605 148.275 105.641 148.502 105.665 148.726C106.058 152.306 103.373 155.653 100.119 157.197C97.0509 158.653 93.5691 158.857 90.1631 158.963L89.369 158.986C87.4247 159.037 85.3189 158.992 83.8349 157.751C82.3061 156.472 82.3079 153.438 84.2276 152.902C89.1011 151.541 92.8184 146.792 92.9697 141.735C93.0145 140.24 93.9842 138.996 94.921 137.794C95.0051 137.686 95.0892 137.578 95.1719 137.471L95.3777 137.201C96.4264 135.81 97.2887 133.894 96.4081 132.391C95.0439 134.141 92.4879 134.847 90.4187 134.045C89.5551 133.71 88.7902 133.15 88.03 132.595C87.0123 131.851 86.0028 131.113 84.7767 130.928C82.3793 130.567 80.001 132.994 80.4116 135.384C79.7624 134.839 78.7552 135.664 78.6848 136.508C78.6437 137.004 78.774 137.488 78.9052 137.972C78.9971 138.313 79.0894 138.654 79.1228 139.002C79.1617 139.406 79.1201 139.811 79.0789 140.217C79.0506 140.491 79.0227 140.766 79.0195 141.04C79.0021 142.463 79.6357 143.779 80.2598 145.076L80.2607 145.077L80.2612 145.079C80.3238 145.209 80.386 145.338 80.4477 145.468L80.6146 145.823C81.3255 147.364 81.8526 149.198 81.0951 150.716C80.338 152.234 77.76 152.71 77.0299 151.179C73.4506 143.673 65.3381 138.562 57.0225 138.575C47.3944 138.589 38.7318 144.934 33.0576 152.712C32.3499 153.683 31.6573 154.728 31.5031 155.919C31.3488 157.11 31.9015 158.476 33.0343 158.874C34.1671 159.273 35.6358 158.159 35.2669 157.016C35.8415 157.687 37.0169 157.052 37.2876 156.212C37.4398 155.739 37.438 155.241 37.4362 154.74C37.4348 154.351 37.4334 153.96 37.5048 153.579C37.8559 151.714 39.7746 150.637 41.5014 149.849L41.8497 149.691C45.9177 147.85 50.1557 146.206 54.6049 145.894C59.1817 145.572 64.0653 146.845 67.2102 150.185C62.9187 151.203 60.4266 155.509 58.4402 159.486L58.1645 160.04C56.1589 164.068 53.532 168.463 49.1335 169.317C49.3008 170.184 50.0666 170.902 50.9434 171.012L34.8188 180.599L36.056 182.133C32.1299 188.15 27.6896 193.832 22.7993 199.095C20.1405 201.957 16.688 204.923 12.8389 204.256C12.1429 204.136 11.4681 203.897 10.7956 203.659C9.81085 203.31 8.83113 202.963 7.79722 202.993C6.05721 203.042 4.31103 205.159 5.49214 206.438C8.10783 209.27 11.0932 211.76 14.3486 213.824L14.4329 213.878C14.8292 214.124 15.2651 214.355 15.7246 214.302C16.1891 214.249 16.5674 213.919 16.9129 213.604L38.751 193.692C40.5395 192.074 42.5076 190.455 44.8904 190.218L45.0916 190.193C46.8535 189.948 48.3051 188.834 49.7612 187.717C50.3948 187.231 51.0294 186.743 51.6909 186.327C53.9292 184.919 57.6415 184.774 58.512 187.271C58.9742 188.598 58.3689 189.948 57.7723 191.278V191.278C57.5944 191.675 57.417 192.069 57.2694 192.461C56.6257 194.168 57.1532 196.793 58.9769 196.76L69.1829 196.58C69.5495 196.576 69.9359 196.597 70.2211 196.821C70.5197 197.056 70.6244 197.447 70.6815 197.83L70.7053 198.005C71.0898 201.131 71.0367 204.311 70.5485 207.422C70.0191 210.794 68.611 214.502 65.4295 215.739C63.4229 216.519 61.1878 216.114 59.0743 215.63L46.2322 212.63C46.2107 211.075 47.6175 209.809 49.1175 209.397C50.3893 209.047 51.7247 209.153 53.0478 209.259C53.1287 209.266 53.2101 209.272 53.2915 209.279L53.7578 209.314C57.0079 209.537 60.2936 209.235 63.4485 208.423L58.896 197.031C59.36 200.812 60.3832 204.525 61.9216 208.011L46.9564 208.497C45.653 208.534 44.2065 208.476 43.3301 207.525C43.1056 207.281 42.9182 206.981 42.7321 206.683C42.3508 206.072 41.9764 205.471 41.2993 205.393C40.7141 205.326 40.1843 205.716 39.7358 206.099C36.8103 208.594 34.3809 211.67 32.6305 215.094C33.2615 216.656 35.3524 217.093 36.9767 216.645C37.9267 216.383 38.794 215.91 39.6626 215.436C40.2794 215.101 40.8965 214.764 41.5448 214.502C45.1624 213.04 49.1394 214.031 52.96 215.181L55.229 215.873C59.7134 217.219 65.1812 217.91 68.5419 214.65C70.5252 212.726 71.2475 209.863 71.6402 207.128C72.7731 199.236 71.8546 191.058 68.9991 183.613C72.1829 182.385 73.6852 178.824 74.8532 175.617L77.1409 169.338C77.9049 167.239 79.6412 164.665 81.7081 165.51C87.6162 167.926 94.5945 166.905 100.095 163.666C105.596 160.428 109.713 155.181 112.487 149.432L112.561 149.277C113.103 148.135 113.795 145.469 113.177 145.174C112.947 144.993 112.536 145.293 112.257 145.498C112.106 145.608 111.993 145.691 111.967 145.655C111.951 145.632 112.002 145.484 112.074 145.276C112.356 144.452 112.966 142.676 111.152 143.823ZM72.0549 179.073C71.3403 180.68 70.1576 182.571 68.4116 182.358C67.4767 182.244 66.7708 181.538 66.1358 180.813L65.7952 180.419C62.1058 176.136 57.0938 173.289 52.0562 170.669L50.3774 169.802C54.481 168.995 57.0124 164.936 58.8201 161.165L59.3961 159.963C61.0488 156.537 62.9296 153.011 66.3388 151.468C66.8102 151.255 67.3505 151.085 67.8365 151.263C67.9101 151.289 67.9897 151.32 68.0724 151.352C68.6722 151.582 69.4449 151.879 69.4325 151.311C68.339 150.87 68.1588 149.275 68.7897 148.278C69.3658 147.369 70.3638 146.844 71.3517 146.391L71.6334 146.264C71.0034 145.394 69.6373 146.125 68.9237 146.927L68.8647 146.993C68.1488 147.778 67.0493 148.639 66.2227 148C62.8067 145.361 58.2546 144.513 53.9576 144.928C49.661 145.342 45.5616 146.913 41.6362 148.709C40.1975 149.367 38.7364 150.085 37.6689 151.253C36.8428 152.156 36.7573 153.358 36.6713 154.567C36.6462 154.92 36.6206 155.274 36.5767 155.622C36.4711 156.462 36.0089 156.494 35.6015 156.523C35.3835 156.538 35.1814 156.552 35.058 156.688C35.0479 156.699 35.0159 156.748 34.9679 156.822C34.7238 157.197 34.0623 158.213 33.7636 158.112C33.3249 157.963 33.5486 157.016 33.5486 157.016C33.5486 157.016 32.2467 157.388 32.1498 157.016C31.8107 155.714 33.7636 153.05 33.7636 153.05C37.0471 148.219 41.9165 144.212 47.2696 141.882C52.7218 139.509 59.0843 139.051 64.6582 141.122C70.9421 143.458 75.9185 149.037 77.5222 155.546C77.9223 157.169 79.8099 157.885 81.4594 158.155C81.6107 158.18 81.7639 158.204 81.918 158.228L81.9221 158.229L81.9299 158.23C83.4523 158.468 85.0707 158.721 86.0408 159.883C86.327 160.226 86.2479 160.733 86.1496 161.168L86.1208 161.293C85.7592 162.846 85.1278 164.583 83.6196 165.054C82.2485 165.482 80.6246 164.377 80.5195 162.944C80.5103 162.818 80.5076 162.685 80.5048 162.55C80.4934 161.993 80.4811 161.407 80.0138 161.177L72.0549 179.073ZM59.0917 187.562C58.5787 184.928 57.0211 182.558 54.9766 180.82C55.0566 181.855 55.4946 182.859 56.1991 183.623C52.7351 184.724 49.4686 186.443 46.5989 188.674C45.8313 189.271 44.5265 189.816 44.0766 188.953C42.3069 185.56 39.4903 182.721 36.1099 180.926L50.0071 172.94C50.6348 172.579 51.2996 172.208 52.0237 172.2C52.5851 172.195 53.1187 172.41 53.6266 172.66L53.8785 172.788C59.0789 175.467 63.7343 179.198 67.4799 183.692C68.4075 184.804 68.8391 186.229 69.2067 187.638L70.8594 194.096C70.9691 194.524 71.0491 195.053 70.714 195.34C70.5256 195.502 70.26 195.53 70.0122 195.549L69.7224 195.572C65.6073 195.889 62.2873 196.144 58.1645 195.549C57.5496 194.37 58.0141 192.908 58.4941 191.399C58.9056 190.106 59.328 188.778 59.0917 187.562ZM38.4173 183.591C39.9593 184.949 41.3491 186.479 42.5533 188.144C42.6823 188.322 42.8148 188.521 42.8011 188.74C42.7851 188.996 42.5776 189.193 42.3846 189.362L24.4227 205.083C23.6738 205.738 22.479 205.624 21.6401 205.088C20.906 204.619 20.3812 203.901 19.8996 203.169L19.6954 202.855C24.3765 200.394 27.3794 195.987 30.4089 191.541C32.3091 188.752 34.2199 185.948 36.5621 183.599C36.7897 183.371 37.0462 183.134 37.3667 183.098C37.7631 183.054 38.1178 183.327 38.4173 183.591ZM90.7241 139.74L91.1826 139.881C92.076 140.157 92.2241 141.354 92.1107 142.282C91.6398 146.124 89.252 149.926 85.5699 151.12L85.4382 151.165C83.039 152.012 81.3236 154.521 81.426 157.067C79.8154 157.369 78.0887 156.081 77.9195 154.451C77.8857 154.126 77.9821 153.704 78.3049 153.655C79.7683 153.43 81.1138 152.532 81.8832 151.267C82.6526 150.002 82.8309 148.394 82.3573 146.991C82.2608 146.705 82.1379 146.418 82.0149 146.131C81.6647 145.314 81.3136 144.495 81.5595 143.671C82.12 143.723 82.2266 144.492 82.1676 145.052L82.1612 145.12C82.1155 145.672 82.2129 146.38 82.7487 146.454C83.1016 145.643 83.1752 144.736 83.2479 143.835C83.3398 142.698 83.4312 141.571 84.0832 140.665C84.8288 139.629 86.1665 139.153 87.4429 139.138C88.5598 139.125 89.6515 139.415 90.7241 139.74ZM10.0195 204.515L10.1347 204.383C10.7775 204.242 11.3914 205.065 11.073 205.641C10.8688 206.011 11.4969 206.376 11.8476 206.141C12.1984 205.906 12.2691 205.429 12.3077 205.008C12.6606 204.898 12.9658 205.302 13.0324 205.666C13.05 205.762 13.0609 205.861 13.0718 205.961C13.1023 206.238 13.1328 206.515 13.3076 206.724C13.5452 207.007 14.1746 206.861 14.0714 206.506C13.9174 205.976 14.5431 205.544 15.0891 205.465C15.2204 205.447 15.356 205.435 15.4919 205.424C15.9213 205.389 16.3542 205.353 16.6668 205.075L16.7139 205.037C17.1106 204.755 17.6018 205.276 17.9013 205.738L18.0405 205.963C18.6989 206.986 19.818 207.703 21.0245 207.867C21.2609 207.899 21.1406 208.267 20.9669 208.431L16.8951 212.266C16.6977 212.451 16.3778 212.319 16.1466 212.178C13.7296 210.698 11.4983 208.915 9.5216 206.884C8.89888 206.244 9.42701 205.223 10.0195 204.515ZM45.6283 211.652C45.5113 212.136 45.1771 212.677 44.681 212.641C43.4851 212.553 42.2722 212.697 41.1302 213.063C41.2348 212.576 41.0218 212.036 40.6131 211.751C40.3146 212.178 40.4366 212.84 40.8677 213.132L39.7289 214.256L39.184 213.004C38.9151 213.076 38.9074 213.406 38.9261 213.708L38.9394 213.896C38.9938 214.689 38.3213 215.459 37.5285 215.513C36.7353 215.566 35.9654 214.893 35.9129 214.1C35.8562 213.236 36.5177 212.511 37.1326 211.902L41.5005 207.577C41.5933 207.489 41.6998 207.407 41.8251 207.409C41.9636 207.411 42.076 207.516 42.1734 207.615L43.8778 209.335C44.2083 209.668 43.9994 210.178 43.7959 210.676C43.5866 211.188 43.3827 211.686 43.7781 211.964C44.1635 211.986 44.4845 211.652 44.6321 211.295C44.708 211.113 44.7537 210.922 44.7999 210.73C44.8438 210.546 44.8881 210.361 44.9581 210.186C45.1021 209.827 45.4121 209.486 45.7979 209.495C46.1838 209.503 46.4814 210.054 46.1829 210.299C45.8647 210.56 45.7741 210.984 45.6855 211.397C45.6672 211.483 45.6489 211.569 45.6283 211.652ZM15.7657 213.565C11.8398 211.465 8.36961 208.518 5.66098 204.985C6.01616 204.648 6.55032 205.006 6.89384 205.387L6.97888 205.487C9.5525 208.672 12.7846 211.322 16.412 213.221C16.3826 213.508 16.0195 213.701 15.7657 213.565ZM34.5935 212.761C36.2937 210.537 38.1782 208.453 40.2204 206.538C40.5372 206.241 41.1946 206.041 41.2746 206.468C38.8973 208.737 36.6229 211.116 34.4618 213.592C34.227 213.389 34.4046 213.008 34.5935 212.761ZM21.5329 207.2C20.3463 206.778 19.2883 206.001 18.5304 204.995C18.2452 204.616 18.0653 203.959 18.4974 203.764C18.839 203.611 19.167 203.933 19.4053 204.247L19.5839 204.49C20.3515 205.502 21.4463 206.264 22.6641 206.629C22.6662 206.954 22.3972 207.258 22.0746 207.296C21.8908 207.317 21.7072 207.262 21.5329 207.2ZM79.7665 141.384C80.3243 141.397 80.7965 141.978 80.6955 142.527L80.7083 142.535C80.7855 142.933 80.7348 143.355 80.5656 143.723C79.9553 143.125 79.6499 142.23 79.7665 141.384ZM90.3945 141.397C90.4649 141.391 90.5389 141.385 90.6139 141.384C90.7081 141.383 90.8169 141.4 90.9193 141.416C91.1954 141.458 91.4263 141.494 91.2082 141.152C90.9088 140.684 90.0333 140.631 89.8897 141.168C89.93 141.438 90.1384 141.42 90.3945 141.397ZM91.0994 143.714C91.1035 143.698 91.1077 143.681 91.1118 143.666C91.3248 142.859 91.2014 142.223 90.6139 142.223C90.3876 142.24 90.0415 143.394 90.0744 143.744C90.1074 144.094 90.5019 144.418 90.8073 144.245C90.9888 144.141 91.0468 143.917 91.0994 143.714ZM87.2239 143.469C86.8143 142.9 86.7713 142.09 87.1183 141.481C87.17 141.39 87.2326 141.301 87.3236 141.249C87.5536 141.117 87.8608 141.296 87.9623 141.54C88.0633 141.785 88.019 142.063 87.9733 142.324C87.9733 142.324 87.6336 144.038 87.2239 143.469ZM173.989 143.486C166.506 141.651 158.69 141.186 151.043 142.125C152.37 139.032 152.953 135.624 152.728 132.266C150.735 133.663 147.464 132.025 147.388 129.593C147.313 127.16 150.476 125.323 152.552 126.593C153.102 126.929 153.707 126.231 153.927 125.625C154.676 123.559 154.683 121.233 153.947 119.163C153.66 118.357 154.877 117.92 155.733 117.936L162.994 118.08C163.482 118.09 163.999 118.092 164.416 117.838C164.832 117.584 165.069 116.974 164.763 116.594C163.506 115.035 164.951 112.245 166.949 112.37C168.947 112.496 170.031 115.444 168.589 116.834C168.32 117.093 168.843 117.427 169.217 117.436L178.711 117.654C180.599 117.698 181.933 119.709 182.011 121.597C182.076 123.194 181.509 124.723 180.949 126.234C180.9 126.366 180.851 126.498 180.803 126.629L180.648 127.056C178.966 131.775 178.424 136.896 179.083 141.861C179.211 142.83 178.319 143.692 177.365 143.902C176.523 144.087 175.655 143.903 174.812 143.692L173.989 143.486Z" fill="white"/>
</svg>
