<svg width="560" height="64" viewBox="0 0 560 64" fill="none" xmlns="http://www.w3.org/2000/svg">
<g filter="url(#filter0_b_1144_1291)">
<path fill-rule="evenodd" clip-rule="evenodd" d="M0 32C0 14.3269 14.3269 0 32 0H528C545.673 0 560 14.3269 560 32C560 49.6731 545.673 64 528 64H479.343L459.453 40H426.718L407.594 64H153L131.453 38H98.7182L78 64H32C14.3269 64 0 49.6731 0 32Z" fill="black" fill-opacity="0.5"/>
</g>
<path d="M47.9719 8C46.2698 15.9749 43.5747 21.5256 42.4399 23.304C43.9151 22.2931 45.5133 22.3212 46.1279 22.4616L47.9719 17.2667L49.6741 22.4616C50.4684 22.1246 52.3691 22.8828 53.2202 23.304C50.9507 20.3836 48.7757 11.8845 47.9719 8Z" fill="white"/>
<path d="M69.234 45.1054C63.1077 39.6588 59.5989 34.5732 58.6102 32.7113C58.7571 34.4813 57.9335 35.8372 57.5033 36.2939L61.1265 40.4721L55.7302 39.3337C55.6279 40.1831 54.0142 41.4334 53.2201 41.9524C56.91 41.4671 65.4335 43.8522 69.234 45.1054Z" fill="white"/>
<path d="M26.6242 44.8623C34.4526 42.334 40.6565 41.869 42.7799 41.9525C41.1578 41.1934 40.3833 39.8094 40.1988 39.2123L34.7317 40.229L38.4258 36.1724C37.7338 35.66 37.4468 33.6515 37.3898 32.7114C35.9694 36.1171 29.6209 42.2311 26.6242 44.8623Z" fill="white"/>
<path d="M34.071 34.2559L31.8015 37.3448C30.2128 32.5149 31.6124 27.4697 32.5107 25.5508L30.2412 23.0236H34.071C36.2271 18.9799 41.6834 16.8458 44.1421 16.2842L42.2981 20.2155C38.8938 21.3387 37.0971 23.7724 36.6243 24.8488C36.1704 25.4104 36.8134 26.3933 37.1916 26.8145C36.6243 26.3652 36.0096 26.4401 35.7732 26.5337C34.071 27.5446 33.9292 32.103 34.071 34.2559Z" fill="white"/>
<path d="M53.582 19.8479L52.0143 16.358C57.0344 17.4111 60.7487 21.1334 61.9784 22.8629L65.3243 22.1811L63.4094 25.4641C65.8692 29.3341 65.0082 35.0785 64.2703 37.4669L61.7527 33.9206C62.4721 30.4407 61.2412 27.6837 60.5358 26.7402C60.2714 26.0703 59.09 26.1301 58.5323 26.2437C59.2091 25.982 59.4509 25.4176 59.4873 25.1682C59.4539 23.2036 55.5365 20.8028 53.582 19.8479Z" fill="white"/>
<path d="M56.3904 43.7311L60.2277 44.1322C56.7963 47.909 51.6824 49.2318 49.5543 49.4212L48.4779 52.6303L46.563 49.3473C41.9472 49.5209 37.3518 45.9107 35.6311 44.0838L39.9927 43.6989C42.6776 46.0555 45.7052 46.3789 46.8834 46.246C47.6017 46.3543 48.1401 45.3116 48.3195 44.7768C48.2101 45.4878 48.5829 45.9772 48.783 46.1331C50.5186 47.0868 54.5777 44.9291 56.3904 43.7311Z" fill="white"/>
<path d="M47.9719 23.0234C46.4968 30.7737 41.5889 35.9874 39.3194 37.6255C44.8797 34.8174 53.2675 36.4554 56.7664 37.6255C52.7947 35.9406 49.2486 27.1888 47.9719 23.0234Z" fill="white"/>
<path d="M38.752 34.8174C38.3265 32.1497 39.0357 26.1966 45.2769 23.7255C44.1894 26.6739 41.3619 33.0202 38.752 34.8174Z" fill="white"/>
<path d="M50.3833 23.7255C52.9366 24.4275 57.816 27.6849 56.9082 35.0982C55.3952 33.1793 51.972 28.2184 50.3833 23.7255Z" fill="white"/>
<path d="M41.4471 39.1699C43.4802 40.9483 48.9365 43.4382 54.4969 39.1699C52.1328 38.6083 46.2131 37.822 41.4471 39.1699Z" fill="white"/>
<path fill-rule="evenodd" clip-rule="evenodd" d="M495.974 13L523.256 25.9915C522.823 28.4815 520.723 33.7863 515.786 35.0855L510.915 32.812C510.265 32.812 508.576 33.2667 507.017 35.0855C507.017 31.2737 508.64 30.0994 510.356 29.0114C509.677 30.0824 509.132 30.6655 508.868 30.8632C511.234 33.5246 516.884 28.2168 513.171 26.6567C513.43 26.282 513.656 25.8505 513.838 25.3419C511.348 23.0684 505.718 19.3658 503.12 22.7436L495.974 13ZM511.564 25.9915C508.186 22.3538 505.068 26.9658 503.12 31.188C505.027 30.0438 506.038 29.6461 506.835 29.3325C508.075 28.845 508.797 28.5609 511.564 25.9915ZM525.855 31.188L513.838 38.6581L516.761 40.2821L523.256 36.3846C525.595 35.0855 525.963 32.3789 525.855 31.188ZM495 49.7009C496.299 44.396 500.262 33.5915 505.718 32.812C503.986 35.5185 501.171 41.5162 503.769 43.8547L495 49.7009ZM504.419 39.6325C505.679 37.5538 509.274 35.735 510.915 35.0855C511.694 34.7468 512.972 36.027 513.513 36.7094C511.174 37.2291 510.157 38.8746 509.94 39.6325L517.735 42.2308L522.607 38.9829L520.333 44.1795H523.581L524.88 42.8803L530.726 51.9744L504.419 39.6325ZM523.581 22.094C524.88 22.846 526.634 25.4578 523.256 29.8889C525.53 29.0228 530.662 24.9521 533 15.5983L523.581 22.094ZM524.88 18.5214C518.385 13.065 510.265 14.5157 507.017 15.9231C507.017 16.4644 507.732 17.6769 510.59 18.1966C514.487 17.1573 519.792 19.4957 521.957 20.7949C524.036 20.2752 524.772 19.0627 524.88 18.5214ZM525.855 41.5812C527.154 39.849 529.492 34.9556 528.453 29.2393C529.103 28.265 530.726 26.8359 532.026 28.9145C532.35 31.8376 532.221 38.7231 529.103 42.8803C528.345 43.3134 526.634 43.6598 525.855 41.5812ZM517.41 47.7521C509.875 47.7521 506.39 45.4776 506.043 45.1538C505.696 44.8301 501.452 45.8212 504.744 48.4017C508.035 50.9822 514.271 50.9278 517.41 50.6752C520.658 50.6752 519.034 47.7521 517.41 47.7521ZM499.222 21.7692C500.088 21.7692 501.821 22.3538 501.821 24.6923C500.521 26.641 498.183 31.7077 499.222 36.3846C498.681 37.4672 497.209 39.0479 495.65 36.7094C495.325 33.8946 495.585 26.9658 499.222 21.7692Z" fill="white"/>
<path d="M181.747 42L180.505 37.9219H174.259L173.017 42H169.103L175.15 24.7969H179.591L185.661 42H181.747ZM179.638 34.875L178.396 30.8906C178.317 30.625 178.212 30.2852 178.079 29.8711C177.954 29.4492 177.825 29.0234 177.692 28.5938C177.567 28.1562 177.466 27.7773 177.388 27.457C177.31 27.7773 177.2 28.1758 177.06 28.6523C176.927 29.1211 176.798 29.5664 176.673 29.9883C176.548 30.4102 176.458 30.7109 176.403 30.8906L175.173 34.875H179.638ZM195.587 27.6445C194.891 27.6445 194.274 27.7812 193.735 28.0547C193.204 28.3203 192.755 28.707 192.387 29.2148C192.028 29.7227 191.755 30.3359 191.567 31.0547C191.38 31.7734 191.286 32.582 191.286 33.4805C191.286 34.6914 191.434 35.7266 191.731 36.5859C192.036 37.4375 192.505 38.0898 193.137 38.543C193.77 38.9883 194.587 39.2109 195.587 39.2109C196.282 39.2109 196.977 39.1328 197.672 38.9766C198.376 38.8203 199.137 38.5977 199.958 38.3086V41.3555C199.2 41.668 198.454 41.8906 197.719 42.0234C196.985 42.1641 196.161 42.2344 195.247 42.2344C193.481 42.2344 192.028 41.8711 190.887 41.1445C189.755 40.4102 188.915 39.3867 188.368 38.0742C187.821 36.7539 187.547 35.2148 187.547 33.457C187.547 32.1602 187.723 30.9727 188.075 29.8945C188.426 28.8164 188.942 27.8828 189.622 27.0938C190.301 26.3047 191.141 25.6953 192.141 25.2656C193.141 24.8359 194.29 24.6211 195.587 24.6211C196.438 24.6211 197.29 24.7305 198.141 24.9492C199.001 25.1602 199.821 25.4531 200.602 25.8281L199.43 28.7812C198.79 28.4766 198.145 28.2109 197.497 27.9844C196.848 27.7578 196.212 27.6445 195.587 27.6445ZM211.371 27.6445C210.676 27.6445 210.059 27.7812 209.52 28.0547C208.988 28.3203 208.539 28.707 208.172 29.2148C207.813 29.7227 207.539 30.3359 207.352 31.0547C207.164 31.7734 207.07 32.582 207.07 33.4805C207.07 34.6914 207.219 35.7266 207.516 36.5859C207.82 37.4375 208.289 38.0898 208.922 38.543C209.555 38.9883 210.371 39.2109 211.371 39.2109C212.067 39.2109 212.762 39.1328 213.457 38.9766C214.16 38.8203 214.922 38.5977 215.742 38.3086V41.3555C214.985 41.668 214.238 41.8906 213.504 42.0234C212.77 42.1641 211.945 42.2344 211.031 42.2344C209.266 42.2344 207.813 41.8711 206.672 41.1445C205.539 40.4102 204.699 39.3867 204.152 38.0742C203.606 36.7539 203.332 35.2148 203.332 33.457C203.332 32.1602 203.508 30.9727 203.86 29.8945C204.211 28.8164 204.727 27.8828 205.406 27.0938C206.086 26.3047 206.926 25.6953 207.926 25.2656C208.926 24.8359 210.074 24.6211 211.371 24.6211C212.223 24.6211 213.074 24.7305 213.926 24.9492C214.785 25.1602 215.606 25.4531 216.387 25.8281L215.215 28.7812C214.574 28.4766 213.93 28.2109 213.281 27.9844C212.633 27.7578 211.996 27.6445 211.371 27.6445ZM235.429 33.4102C235.429 34.7305 235.265 35.9336 234.937 37.0195C234.609 38.0977 234.109 39.0273 233.437 39.8086C232.773 40.5898 231.929 41.1914 230.906 41.6133C229.882 42.0273 228.672 42.2344 227.273 42.2344C225.875 42.2344 224.664 42.0273 223.64 41.6133C222.617 41.1914 221.769 40.5898 221.097 39.8086C220.433 39.0273 219.937 38.0938 219.609 37.0078C219.281 35.9219 219.117 34.7148 219.117 33.3867C219.117 31.6133 219.406 30.0703 219.984 28.7578C220.57 27.4375 221.468 26.4141 222.679 25.6875C223.89 24.9609 225.429 24.5977 227.297 24.5977C229.156 24.5977 230.683 24.9609 231.879 25.6875C233.082 26.4141 233.972 27.4375 234.55 28.7578C235.136 30.0781 235.429 31.6289 235.429 33.4102ZM222.925 33.4102C222.925 34.6055 223.074 35.6367 223.371 36.5039C223.675 37.3633 224.148 38.0273 224.789 38.4961C225.429 38.957 226.257 39.1875 227.273 39.1875C228.304 39.1875 229.14 38.957 229.781 38.4961C230.422 38.0273 230.886 37.3633 231.175 36.5039C231.472 35.6367 231.621 34.6055 231.621 33.4102C231.621 31.6133 231.285 30.1992 230.613 29.168C229.941 28.1367 228.836 27.6211 227.297 27.6211C226.273 27.6211 225.437 27.8555 224.789 28.3242C224.148 28.7852 223.675 29.4492 223.371 30.3164C223.074 31.1758 222.925 32.207 222.925 33.4102ZM253.405 24.8672V35.9531C253.405 37.1328 253.144 38.1992 252.62 39.1523C252.105 40.0977 251.32 40.8477 250.265 41.4023C249.218 41.957 247.898 42.2344 246.304 42.2344C244.038 42.2344 242.312 41.6562 241.124 40.5C239.937 39.3438 239.343 37.8125 239.343 35.9062V24.8672H242.964V35.3555C242.964 36.7695 243.253 37.7617 243.831 38.332C244.409 38.9023 245.265 39.1875 246.398 39.1875C247.195 39.1875 247.839 39.0508 248.331 38.7773C248.831 38.5039 249.198 38.082 249.433 37.5117C249.667 36.9414 249.784 36.2148 249.784 35.332V24.8672H253.405ZM273.28 42H268.663L261.21 29.0391H261.104C261.135 29.5781 261.163 30.1211 261.186 30.668C261.21 31.2148 261.233 31.7617 261.257 32.3086C261.28 32.8477 261.303 33.3906 261.327 33.9375V42H258.081V24.8672H262.663L270.104 37.6992H270.186C270.171 37.168 270.151 36.6406 270.128 36.1172C270.104 35.5938 270.081 35.0703 270.057 34.5469C270.042 34.0234 270.026 33.5 270.01 32.9766V24.8672H273.28V42ZM284.694 42H281.061V27.8906H276.408V24.8672H289.346V27.8906H284.694V42ZM306.454 27.6445C305.759 27.6445 305.142 27.7812 304.603 28.0547C304.072 28.3203 303.622 28.707 303.255 29.2148C302.896 29.7227 302.622 30.3359 302.435 31.0547C302.247 31.7734 302.154 32.582 302.154 33.4805C302.154 34.6914 302.302 35.7266 302.599 36.5859C302.904 37.4375 303.372 38.0898 304.005 38.543C304.638 38.9883 305.454 39.2109 306.454 39.2109C307.15 39.2109 307.845 39.1328 308.54 38.9766C309.243 38.8203 310.005 38.5977 310.825 38.3086V41.3555C310.068 41.668 309.322 41.8906 308.587 42.0234C307.853 42.1641 307.029 42.2344 306.115 42.2344C304.349 42.2344 302.896 41.8711 301.755 41.1445C300.622 40.4102 299.783 39.3867 299.236 38.0742C298.689 36.7539 298.415 35.2148 298.415 33.457C298.415 32.1602 298.591 30.9727 298.943 29.8945C299.294 28.8164 299.81 27.8828 300.49 27.0938C301.169 26.3047 302.009 25.6953 303.009 25.2656C304.009 24.8359 305.158 24.6211 306.454 24.6211C307.306 24.6211 308.158 24.7305 309.009 24.9492C309.868 25.1602 310.689 25.4531 311.47 25.8281L310.298 28.7812C309.658 28.4766 309.013 28.2109 308.365 27.9844C307.716 27.7578 307.079 27.6445 306.454 27.6445ZM324.829 42H314.962V24.8672H324.829V27.8438H318.595V31.6055H324.395V34.582H318.595V39H324.829V42ZM344.094 42H339.477L332.024 29.0391H331.918C331.95 29.5781 331.977 30.1211 332 30.668C332.024 31.2148 332.047 31.7617 332.071 32.3086C332.094 32.8477 332.117 33.3906 332.141 33.9375V42H328.895V24.8672H333.477L340.918 37.6992H341C340.985 37.168 340.965 36.6406 340.942 36.1172C340.918 35.5938 340.895 35.0703 340.871 34.5469C340.856 34.0234 340.84 33.5 340.825 32.9766V24.8672H344.094V42ZM355.508 42H351.875V27.8906H347.223V24.8672H360.16V27.8906H355.508V42ZM373.144 42H363.277V24.8672H373.144V27.8438H366.91V31.6055H372.71V34.582H366.91V39H373.144V42ZM382.202 24.8672C383.757 24.8672 385.038 25.0547 386.046 25.4297C387.061 25.8047 387.815 26.3711 388.307 27.1289C388.8 27.8867 389.046 28.8438 389.046 30C389.046 30.7812 388.897 31.4648 388.6 32.0508C388.304 32.6367 387.913 33.1328 387.429 33.5391C386.944 33.9453 386.421 34.2773 385.858 34.5352L390.897 42H386.866L382.776 35.4258H380.843V42H377.21V24.8672H382.202ZM381.944 27.8438H380.843V32.4727H382.015C383.218 32.4727 384.077 32.2734 384.593 31.875C385.116 31.4688 385.378 30.875 385.378 30.0938C385.378 29.2812 385.097 28.7031 384.534 28.3594C383.979 28.0156 383.116 27.8438 381.944 27.8438Z" fill="#0080FF"/>
<defs>
<filter id="filter0_b_1144_1291" x="-33" y="-33" width="626" height="130" filterUnits="userSpaceOnUse" color-interpolation-filters="sRGB">
<feFlood flood-opacity="0" result="BackgroundImageFix"/>
<feGaussianBlur in="BackgroundImageFix" stdDeviation="16.5"/>
<feComposite in2="SourceAlpha" operator="in" result="effect1_backgroundBlur_1144_1291"/>
<feBlend mode="normal" in="SourceGraphic" in2="effect1_backgroundBlur_1144_1291" result="shape"/>
</filter>
</defs>
</svg>
