<svg width="121" height="40" viewBox="0 0 121 40" fill="none" xmlns="http://www.w3.org/2000/svg">
<mask id="mask0_3683_554" style="mask-type:luminance" maskUnits="userSpaceOnUse" x="0" y="0" width="121" height="40">
<path d="M121 0H0.70166V40H121V0Z" fill="white"/>
</mask>
<g mask="url(#mask0_3683_554)">
<path fill-rule="evenodd" clip-rule="evenodd" d="M31.5883 27.092H33.5436C34.7201 27.092 35.6811 28.0365 35.6811 29.213V35.609C35.6811 36.7855 34.7201 37.73 33.5436 37.73H31.5883V35.6587H32.7648C32.8311 35.6587 32.9139 35.6421 32.9802 35.609C33.0465 35.5759 33.1128 35.5427 33.1625 35.493C33.2122 35.4433 33.2619 35.377 33.2785 35.3107C33.3116 35.2445 33.3282 35.1782 33.3116 35.0953V29.6769C33.3116 29.3621 33.0631 29.1135 32.7482 29.1135H31.5718V27.092H31.5883ZM29.2022 27.092H31.2072V29.1633H29.9976C29.8485 29.1633 29.7159 29.2295 29.5999 29.329C29.5005 29.4284 29.4342 29.5775 29.4342 29.7266V35.1782C29.4342 35.493 29.6828 35.7416 29.9976 35.7416H31.2072V37.8128H29.2022C28.9206 37.8128 28.6389 37.7631 28.3737 37.6471C28.1086 37.5311 27.8766 37.382 27.6778 37.1666C27.479 36.9677 27.3133 36.7192 27.2138 36.4541C27.1144 36.1889 27.0647 35.9073 27.0647 35.6256V29.213C27.0647 28.0365 28.0258 27.092 29.1857 27.092H29.2022ZM86.4848 35.7416H91.1741V37.8128H86.4848V35.7416ZM86.4848 31.4499H90.3621V33.5212H86.4848V31.4499ZM86.4848 27.1417H91.1741V29.2295H86.4848V27.1417ZM83.6016 27.1417H86.0042V37.7962H83.6016V27.1417ZM71.9197 35.7913H76.5759V37.7797H71.9197V35.7913ZM69.0697 27.1417H71.4889V37.7797H69.0531L69.0697 27.1417ZM45.59 27.0754H48.7714C50.1633 27.0754 51.1741 28.1525 51.0084 30.4226C51.1078 31.1517 50.7764 31.8642 50.1467 32.2618V32.5767C50.445 32.759 50.6935 33.0406 50.8427 33.3555C50.9918 33.6869 51.0581 34.0348 51.0084 34.3994C51.1741 36.6529 50.1799 37.73 48.7714 37.7465H45.59V35.6753H48.0423C48.1252 35.6918 48.208 35.6753 48.2909 35.6587C48.3737 35.6421 48.44 35.5924 48.5063 35.5261C48.5726 35.4599 48.6223 35.3936 48.6389 35.3107C48.672 35.2279 48.672 35.145 48.672 35.0622V33.9851C48.672 33.604 48.4732 33.4052 48.1086 33.4052H45.6065V31.4499H48.1086C48.4732 31.4499 48.672 31.2677 48.672 30.87C48.672 30.4723 48.672 30.174 48.672 29.7929C48.6886 29.7101 48.672 29.6272 48.6389 29.5444C48.6057 29.4615 48.556 29.3952 48.5063 29.329C48.44 29.2627 48.3737 29.2295 48.2909 29.1964C48.208 29.1633 48.1252 29.1633 48.0423 29.1798H45.59V27.0754ZM42.7565 27.0754H45.1757V37.6802H42.7565V27.0754ZM58.498 27.1251H60.9172V37.7797H58.498V27.1251ZM17.6198 27.0754H20.039V37.73H17.6032V27.092L17.6198 27.0754ZM15.2503 31.9304L17.189 27.9371V33.2063L15.1509 36.5369L12.6985 31.831V37.73H10.2793V27.092H12.6985L15.2503 31.9304Z" fill="#262626"/>
<path fill-rule="evenodd" clip-rule="evenodd" d="M106.054 24.739L109.368 26.6611L112.682 28.5667V32.3778V36.1889L109.368 38.0944L106.054 40L102.74 38.0944L99.4258 36.1889V32.3778V28.5667L102.74 26.6611L106.054 24.739Z" fill="#262626"/>
<path fill-rule="evenodd" clip-rule="evenodd" d="M102.508 36.1392L101.58 35.5095V29.2129L102.558 28.5833L103.999 29.4118V35.2113L102.508 36.1392ZM109.583 36.1392L110.528 35.4929V29.2295L109.583 28.633L108.142 29.4615V35.261L109.583 36.1392ZM107.578 29.7266L106.054 30.6048L104.53 29.7266V33.5708L106.021 34.3165L107.512 33.5708V29.7266H107.578Z" fill="white"/>
<path fill-rule="evenodd" clip-rule="evenodd" d="M121 0.447354L116.526 14.217V22.0215H110.892V14.217L106.601 0.447354H112.185C113.046 4.67271 113.543 7.50618 113.676 8.96434C114.024 6.66111 114.587 3.82764 115.366 0.447354H121ZM105.905 0.447354V4.75556H102.326V22.0381H96.2278V4.75556H92.6155V0.447354H105.905ZM91.2899 0.447354V14.8633C91.3231 16.0232 91.2568 17.1665 91.1242 18.3098C90.9751 19.072 90.6106 19.8011 90.0969 20.3811C89.5004 21.0936 88.7216 21.657 87.8434 21.9718C86.7829 22.3529 85.6727 22.5352 84.5459 22.5186C83.2866 22.5352 82.0273 22.3198 80.8508 21.8889C79.9229 21.5575 79.0944 20.9776 78.4482 20.2319C77.9511 19.6023 77.6197 18.8566 77.5037 18.0613C77.4043 17.2991 77.3545 15.7083 77.3545 13.2725V0.463922H83.4523V16.6363C83.4192 17.2493 83.4689 17.8459 83.618 18.4424C83.6677 18.5749 83.7671 18.6909 83.8997 18.7572C84.0323 18.8235 84.1648 18.8566 84.3139 18.8401C84.4631 18.8566 84.6288 18.8235 84.7613 18.7572C84.8939 18.6744 84.9933 18.5584 85.0596 18.4258C85.2087 17.7464 85.2584 17.0505 85.2253 16.3546V0.463922L91.2899 0.447354ZM67.1971 4.1259V18.3264C68.0588 18.3264 68.589 18.1607 68.7879 17.8459C69.0695 16.9842 69.169 16.0894 69.0861 15.1947V6.81024C69.1027 6.18058 69.0695 5.55091 68.9867 4.93782C68.9536 4.80526 68.9038 4.68928 68.821 4.58986C68.7381 4.49044 68.6387 4.39102 68.5227 4.34131C68.1085 4.15904 67.6445 4.09276 67.1971 4.1259ZM61.0994 0.447354H65.6561C67.6445 0.381074 69.6495 0.497064 71.6213 0.811894C72.5161 0.977594 73.328 1.40841 73.9908 2.03807C74.5045 2.55174 74.8525 3.21455 75.0016 3.92706C75.1673 5.2858 75.2336 6.66111 75.2004 8.03642V15.5923C75.2667 16.8848 75.1507 18.1938 74.9022 19.4697C74.7365 20.0828 74.3719 20.6131 73.8748 21.0107C73.328 21.3918 72.6984 21.657 72.0521 21.7895C70.9751 21.9552 69.8815 22.0381 68.7879 22.0049H61.1159L61.0994 0.447354ZM56.3604 5.76632H59.4258V7.34048H58.1831V8.84835H59.2932V10.3562H58.1831V13.6702H56.3604V5.76632ZM53.8748 7.80444C53.8914 7.57246 53.8749 7.34048 53.8251 7.1085C53.792 7.00908 53.7091 6.9428 53.6097 6.95937C53.56 6.95937 53.5269 6.97594 53.4772 6.99251C53.444 7.00908 53.4109 7.04222 53.3943 7.09193C53.328 7.32391 53.2949 7.57245 53.328 7.821V11.5161C53.3115 11.7978 53.328 12.0795 53.3778 12.3612C53.3943 12.4109 53.4109 12.4606 53.4606 12.4937C53.4937 12.5269 53.56 12.5435 53.6097 12.5269C53.6594 12.5269 53.7092 12.5103 53.7589 12.4772C53.8086 12.444 53.8251 12.3943 53.8417 12.3446C53.8914 12.0464 53.908 11.7481 53.8914 11.4664V7.80444H53.8748ZM55.681 10.3894V9.01405C55.6975 8.45067 55.681 7.87072 55.6313 7.30734C55.5981 6.97594 55.4821 6.67768 55.3164 6.39599C55.1507 6.13087 54.9022 5.91545 54.6205 5.76632C54.3057 5.63376 53.9743 5.55092 53.6263 5.56749C53.2618 5.55092 52.9138 5.63377 52.599 5.7829C52.3173 5.93203 52.0687 6.14744 51.903 6.41256C51.7207 6.67768 51.6213 6.99251 51.6048 7.32391C51.6048 7.65531 51.555 8.21869 51.555 9.01405V10.3894C51.5385 10.9527 51.555 11.5327 51.6048 12.0961C51.6379 12.4275 51.7539 12.7257 51.9196 13.0074C52.0853 13.2725 52.3338 13.4879 52.6155 13.6371C52.9304 13.7862 53.2783 13.8525 53.6263 13.8359C53.9743 13.8359 54.3388 13.7696 54.6536 13.6205C54.9353 13.4714 55.1839 13.256 55.3496 12.9908C55.5318 12.7092 55.6313 12.4109 55.6644 12.0795C55.6644 11.7647 55.681 11.1847 55.681 10.3894ZM49.6661 0.430783V17.7133H53.328V22.0215H43.5517V0.447354L49.6661 0.430783ZM38.415 0.430783V17.7133H42.077V22.0215H32.3007V0.447354L38.415 0.430783ZM24.5459 14.3165C24.2477 11.8641 23.9494 8.84835 23.618 5.23608C23.0215 9.37859 22.6404 12.4109 22.4747 14.3165H24.5459ZM27.7771 0.430783L31.2402 22.0049H24.9933L24.6619 18.1276H22.5078L22.193 22.0049H15.8798L18.9618 0.430783H27.7771ZM15.0845 9.85912H9.00327V6.1143C9.05298 5.41836 8.9867 4.72242 8.821 4.04305C8.68844 3.77793 8.40675 3.64537 7.97593 3.64537C7.54511 3.64537 7.164 3.81107 7.03144 4.14247C6.84917 4.83841 6.78289 5.55091 6.8326 6.26343V16.3049C6.78289 17.0008 6.84917 17.6967 7.03144 18.3761C7.13086 18.5252 7.26342 18.6412 7.41255 18.7241C7.89308 18.9892 8.50617 18.8401 8.80443 18.3761C8.9867 17.6305 9.06955 16.8682 9.01984 16.1226V13.3885H15.1176V14.217C15.1839 15.8078 15.0016 17.415 14.5708 18.9561C14.1234 20.0165 13.328 20.8782 12.3173 21.425C10.9917 22.1706 9.50037 22.5352 7.97593 22.4689C6.45149 22.5186 4.94362 22.2203 3.56831 21.5741C2.50783 21.077 1.67932 20.1988 1.26507 19.1052C0.817683 17.5807 0.635414 15.9735 0.701694 14.3827V8.08613C0.685124 6.90966 0.734835 5.74976 0.883965 4.57328C1.01652 3.74478 1.38106 2.96599 1.9113 2.33633C2.54096 1.57411 3.36946 0.994163 4.29738 0.629623C5.40758 0.198802 6.58405 -3.72455e-05 7.76052 0.0165328C9.3181 -0.0497473 10.8591 0.298224 12.251 0.994165C13.2783 1.47469 14.1068 2.31976 14.5708 3.36367C15.0016 4.80526 15.1839 6.31313 15.1176 7.821V9.89226L15.0845 9.85912Z" fill="#262626"/>
<path fill-rule="evenodd" clip-rule="evenodd" d="M118.879 18.8567C118.216 18.8567 117.62 19.2544 117.355 19.8675C117.106 20.4806 117.239 21.1765 117.719 21.657C118.365 22.3033 119.409 22.3033 120.056 21.6736C120.702 21.0274 120.702 19.9834 120.072 19.3372C119.741 19.0224 119.31 18.8567 118.879 18.8567ZM118.879 19.1715C119.608 19.1881 120.188 19.8012 120.155 20.5468C120.138 21.2759 119.525 21.8559 118.78 21.8227C118.631 21.8227 118.481 21.7896 118.349 21.7399C118.1 21.6405 117.901 21.4582 117.752 21.2428C117.603 21.0274 117.52 20.7622 117.537 20.4971C117.537 20.1491 117.686 19.8012 117.935 19.5526C118.051 19.4366 118.2 19.3372 118.365 19.2709C118.531 19.2047 118.697 19.1715 118.879 19.1715Z" fill="#262626"/>
<path fill-rule="evenodd" clip-rule="evenodd" d="M118.581 20.381H118.829C118.929 20.3976 119.028 20.3976 119.128 20.381C119.161 20.3645 119.194 20.3479 119.211 20.3148C119.227 20.2816 119.244 20.2319 119.244 20.1822C119.244 20.1656 119.244 20.1325 119.227 20.1159C119.211 20.0993 119.211 20.0662 119.194 20.0496C119.177 20.0331 119.161 20.0165 119.144 19.9999C119.128 19.9833 119.095 19.9834 119.078 19.9834H118.597L118.581 20.381ZM118.25 21.3255V19.7017H118.945C119.078 19.7017 119.211 19.7182 119.327 19.7348C119.409 19.7679 119.476 19.8177 119.525 19.9005C119.575 19.9834 119.592 20.0662 119.592 20.1491C119.592 20.1988 119.592 20.265 119.575 20.3148C119.559 20.3645 119.525 20.4142 119.492 20.4639C119.409 20.5467 119.293 20.613 119.177 20.613C119.244 20.6461 119.293 20.6959 119.343 20.7456C119.409 20.8284 119.476 20.9113 119.525 21.0107L119.724 21.3255H119.343L119.111 20.9776C119.061 20.8947 119.012 20.8119 118.945 20.729C118.912 20.6959 118.879 20.6793 118.846 20.6627H118.631V21.3587L118.25 21.3255Z" fill="#262626"/>
</g>
</svg>
