<svg width="87" height="40" viewBox="0 0 87 40" fill="none" xmlns="http://www.w3.org/2000/svg">
<path d="M17.9794 0.273553C12.7277 -0.425944 7.38499 0.355688 2.55377 2.53031C1.14097 5.47808 0.553742 8.75372 0.854565 12.0087C1.14675 15.9881 1.7504 19.9384 2.65997 23.8235C7.98416 24.0935 13.322 23.8177 18.59 23.0004C18.9834 21.0643 18.9834 19.0689 18.59 17.1329C15.466 17.4245 12.3286 17.5486 9.19129 17.5046C8.59969 14.1017 8.82722 10.6068 9.85504 7.30933C12.3824 6.3054 15.1161 5.93179 17.8201 6.22077L17.9794 0.273553ZM19.4396 0.00805664V21.4605C23.5533 21.5095 27.6618 21.1538 31.7058 20.3985V14.7964C29.8224 15.0589 27.9252 15.2096 26.024 15.2478L25.5727 0.00805664H19.4396ZM48.3261 0.565606C48.3261 0.565606 39.2725 -0.549499 35.6617 0.724905L35.0511 4.60122H36.1927L31.7058 20.3985H38.0247L38.6619 16.6019H44.7949L45.6977 20.5047H52.1228L48.3261 0.565606ZM39.8301 11.637L41.5027 5.87562H42.5913L43.6267 11.637H39.8301Z" fill="#262626"/>
<path d="M64.9996 0.00809941C60.576 -0.0861642 56.1735 0.643086 52.0166 2.15865C52.0166 2.15865 51.1139 7.65452 50.8218 11.5574C53.2708 12.2531 55.7761 12.7329 58.3089 12.9911V14.3451C56.3177 15.3047 54.1183 15.7519 51.9104 15.6461C51.5236 17.2066 51.5236 18.838 51.9104 20.3986C56.416 20.692 60.9137 19.7171 64.8934 17.5842C65.5692 15.1952 65.7854 12.6996 65.5306 10.2299L58.1496 8.39792V5.74292L65.0792 4.73401L64.9996 0.00809941ZM8.84614 28.4698H3.77507C3.43004 28.4698 3.09914 28.6068 2.85516 28.8508C2.61119 29.0948 2.47412 29.4257 2.47412 29.7707V34.8153C2.47405 35.1628 2.61026 35.4965 2.85351 35.7447C3.09675 35.9929 3.42762 36.1358 3.77507 36.1428H8.84614C9.19359 36.1358 9.52447 35.9929 9.76771 35.7447C10.011 35.4965 10.1472 35.1628 10.1471 34.8153V29.7707C10.1471 29.4257 10.01 29.0948 9.76605 28.8508C9.52208 28.6068 9.19117 28.4698 8.84614 28.4698ZM7.20003 33.6205C7.20003 33.7332 7.15528 33.8412 7.07561 33.9209C6.99595 34.0005 6.8879 34.0453 6.77523 34.0453H5.66013C5.54747 34.0453 5.43942 34.0005 5.35975 33.9209C5.28008 33.8412 5.23533 33.7332 5.23533 33.6205V31.2044C5.23513 31.0892 5.27902 30.9782 5.35801 30.8943C5.43699 30.8104 5.54508 30.7599 5.66013 30.7531H6.77523C6.89028 30.7599 6.99837 30.8104 7.07736 30.8943C7.15634 30.9782 7.20023 31.0892 7.20003 31.2044V33.6205Z" fill="#262626"/>
<path d="M11.4216 29.9034V28.8945C11.4273 28.3598 11.6142 27.8428 11.9518 27.4281C12.2893 27.0133 12.7576 26.7253 13.2801 26.6112C14.2531 26.3701 15.2513 26.2453 16.2537 26.2395V28.2042C16.2537 28.2042 13.8376 28.337 13.8376 29.691H16.2537V31.9478H13.8376V35.9037H11.1826V31.9743H10.1206V29.8503L11.4216 29.9034ZM31.52 22.257V26.4785C29.7286 26.3933 27.9352 26.5995 26.21 27.0891C25.3534 29.5244 25.134 32.1384 25.5728 34.6824C26.0772 35.9834 31.52 35.5586 31.52 35.5586V39.9925C28.3336 40.0542 25.1514 39.7334 22.0416 39.0367C19.9176 38.0809 19.6521 35.2931 19.8645 31.0716C20.0769 26.8502 20.4751 24.7793 22.5195 23.5049C24.8825 21.8853 31.52 22.257 31.52 22.257Z" fill="#262626"/>
<path d="M32.0244 22.1775H37.2017V34.895H42.7241L42.1134 39.5147H32.0244V22.1775Z" fill="#262626"/>
<path d="M55.4416 22.4164L45.7243 22.2571L44.7685 26.0272H46.0163L42.7241 39.5146H47.2376L47.7155 36.6738H52.5477L53.3973 39.5146H58.2559L55.4416 22.4164ZM48.8837 32.0806L50.5033 26.4785H50.8219L52.1229 32.0806H48.8837Z" fill="#262626"/>
<path d="M58.7603 39.5145V22.6818L65.7164 22.5225L68.69 30.1689V22.5225H73.1769V39.5145H66.6987L63.0879 31.8415V39.5145H58.7603Z" fill="#262626"/>
<path d="M84.2748 21.4605C81.4041 21.5209 78.54 21.7603 75.6991 22.1774C74.9557 22.5225 74.6106 23.1066 74.4247 25.3634C74.2389 27.6201 74.0265 29.8769 74.0265 29.8769C74.0265 29.8769 73.5486 31.7619 74.823 32.0806C76.0974 32.3992 81.5402 33.0098 81.5402 33.0098V34.5763H74.1327L73.9468 39.0367C77.4719 39.6033 81.0708 39.5223 84.5669 38.7977C85.443 38.4526 86.0271 38.2402 86.1333 37.1251C86.4054 34.7276 86.2526 32.3009 85.682 29.9565C83.6938 29.351 81.6467 28.9594 79.5755 28.7883V26.4785H84.1421L84.2748 21.4605ZM65.9553 0.00805664L65.7163 21.0092H72.2742V13.4424C73.5566 13.0054 74.9477 13.0054 76.2301 13.4424V20.9561H82.1243V0.00805664H76.2832V6.64558L72.2211 6.77832V0.114254L65.9553 0.00805664Z" fill="#262626"/>
</svg>
