<svg width="76" height="76" viewBox="0 0 76 76" fill="none" xmlns="http://www.w3.org/2000/svg">
<path d="M75.5 38C75.5 58.7107 58.7107 75.5 38 75.5C17.2893 75.5 0.5 58.7107 0.5 38C0.5 17.2893 17.2893 0.5 38 0.5C58.7107 0.5 75.5 17.2893 75.5 38ZM9.875 38C9.875 53.533 22.467 66.125 38 66.125C53.533 66.125 66.125 53.533 66.125 38C66.125 22.467 53.533 9.875 38 9.875C22.467 9.875 9.875 22.467 9.875 38Z" fill="#D9D9D9"/>
<mask id="path-2-inside-1_76_418" fill="white">
<path d="M38 0.5C43.4207 0.5 48.777 1.6752 53.6997 3.94463C58.6225 6.21406 62.9948 9.52376 66.5152 13.6457C70.0357 17.7676 72.6207 22.6038 74.0921 27.821C75.5635 33.0382 75.8863 38.5123 75.0383 43.8663C74.1903 49.2202 72.1917 54.3267 69.1801 58.8339C66.1685 63.341 62.2156 67.1417 57.5937 69.974C52.9718 72.8063 47.7908 74.6029 42.4077 75.2401C37.0245 75.8772 31.5673 75.3397 26.4119 73.6646L29.3089 64.7485C33.1755 66.0048 37.2684 66.4079 41.3058 65.93C45.3431 65.4522 49.2289 64.1047 52.6953 61.9805C56.1617 59.8563 59.1264 57.0058 61.3851 53.6254C63.6438 50.245 65.1427 46.4152 65.7787 42.3997C66.4147 38.3842 66.1726 34.2786 65.0691 30.3657C63.9655 26.4528 62.0268 22.8257 59.3864 19.7343C56.7461 16.6428 53.4669 14.1605 49.7748 12.4585C46.0827 10.7564 42.0655 9.875 38 9.875V0.5Z"/>
</mask>
<path d="M38 0.5C43.4207 0.5 48.777 1.6752 53.6997 3.94463C58.6225 6.21406 62.9948 9.52376 66.5152 13.6457C70.0357 17.7676 72.6207 22.6038 74.0921 27.821C75.5635 33.0382 75.8863 38.5123 75.0383 43.8663C74.1903 49.2202 72.1917 54.3267 69.1801 58.8339C66.1685 63.341 62.2156 67.1417 57.5937 69.974C52.9718 72.8063 47.7908 74.6029 42.4077 75.2401C37.0245 75.8772 31.5673 75.3397 26.4119 73.6646L29.3089 64.7485C33.1755 66.0048 37.2684 66.4079 41.3058 65.93C45.3431 65.4522 49.2289 64.1047 52.6953 61.9805C56.1617 59.8563 59.1264 57.0058 61.3851 53.6254C63.6438 50.245 65.1427 46.4152 65.7787 42.3997C66.4147 38.3842 66.1726 34.2786 65.0691 30.3657C63.9655 26.4528 62.0268 22.8257 59.3864 19.7343C56.7461 16.6428 53.4669 14.1605 49.7748 12.4585C46.0827 10.7564 42.0655 9.875 38 9.875V0.5Z" fill="url(#paint0_linear_76_418)" stroke="white" stroke-width="2" mask="url(#path-2-inside-1_76_418)"/>
<path d="M29.8184 27.0957H25.1797L24.623 30.2598C25.5475 29.765 26.4004 29.5176 27.1816 29.5176C27.8066 29.5176 28.3893 29.6348 28.9297 29.8691C29.4766 30.1035 29.9551 30.429 30.3652 30.8457C30.7754 31.2559 31.0977 31.7441 31.332 32.3105C31.5664 32.877 31.6836 33.4857 31.6836 34.1367C31.6836 35.0807 31.472 35.9401 31.0488 36.7148C30.6257 37.4896 30.0137 38.1048 29.2129 38.5605C28.4186 39.0163 27.5007 39.2441 26.459 39.2441C25.2936 39.2441 24.3464 39.0293 23.6172 38.5996C22.8945 38.1699 22.3802 37.6784 22.0742 37.125C21.7747 36.5651 21.625 36.0768 21.625 35.6602C21.625 35.4062 21.7292 35.1654 21.9375 34.9375C22.1523 34.7096 22.4193 34.5957 22.7383 34.5957C23.2852 34.5957 23.6921 34.9115 23.959 35.543C24.2194 36.1224 24.571 36.5749 25.0137 36.9004C25.4564 37.2194 25.9512 37.3789 26.498 37.3789C26.9993 37.3789 27.4388 37.2487 27.8164 36.9883C28.194 36.7279 28.4837 36.3698 28.6855 35.9141C28.8939 35.4583 28.998 34.9408 28.998 34.3613C28.998 33.7363 28.8874 33.2025 28.666 32.7598C28.4447 32.3171 28.1484 31.9883 27.7773 31.7734C27.4062 31.5521 26.9928 31.4414 26.5371 31.4414C25.9772 31.4414 25.5768 31.5098 25.3359 31.6465C25.0951 31.7832 24.7467 32.0241 24.291 32.3691C23.8418 32.7077 23.4707 32.877 23.1777 32.877C22.8587 32.877 22.5755 32.763 22.3281 32.5352C22.0807 32.3008 21.957 32.0371 21.957 31.7441C21.957 31.7116 21.9928 31.4902 22.0645 31.0801L22.8848 26.4023C22.9759 25.8424 23.1452 25.4355 23.3926 25.1816C23.64 24.9277 24.0436 24.8008 24.6035 24.8008H29.7598C30.7754 24.8008 31.2832 25.1882 31.2832 25.9629C31.2832 26.3014 31.1595 26.5749 30.9121 26.7832C30.6647 26.9915 30.3001 27.0957 29.8184 27.0957ZM41.7129 27.0957H37.0742L36.5176 30.2598C37.4421 29.765 38.2949 29.5176 39.0762 29.5176C39.7012 29.5176 40.2839 29.6348 40.8242 29.8691C41.3711 30.1035 41.8496 30.429 42.2598 30.8457C42.6699 31.2559 42.9922 31.7441 43.2266 32.3105C43.4609 32.877 43.5781 33.4857 43.5781 34.1367C43.5781 35.0807 43.3665 35.9401 42.9434 36.7148C42.5202 37.4896 41.9082 38.1048 41.1074 38.5605C40.3132 39.0163 39.3952 39.2441 38.3535 39.2441C37.1882 39.2441 36.2409 39.0293 35.5117 38.5996C34.7891 38.1699 34.2747 37.6784 33.9688 37.125C33.6693 36.5651 33.5195 36.0768 33.5195 35.6602C33.5195 35.4062 33.6237 35.1654 33.832 34.9375C34.0469 34.7096 34.3138 34.5957 34.6328 34.5957C35.1797 34.5957 35.5866 34.9115 35.8535 35.543C36.1139 36.1224 36.4655 36.5749 36.9082 36.9004C37.3509 37.2194 37.8457 37.3789 38.3926 37.3789C38.8939 37.3789 39.3333 37.2487 39.7109 36.9883C40.0885 36.7279 40.3783 36.3698 40.5801 35.9141C40.7884 35.4583 40.8926 34.9408 40.8926 34.3613C40.8926 33.7363 40.7819 33.2025 40.5605 32.7598C40.3392 32.3171 40.043 31.9883 39.6719 31.7734C39.3008 31.5521 38.8874 31.4414 38.4316 31.4414C37.8717 31.4414 37.4714 31.5098 37.2305 31.6465C36.9896 31.7832 36.6413 32.0241 36.1855 32.3691C35.7363 32.7077 35.3652 32.877 35.0723 32.877C34.7533 32.877 34.4701 32.763 34.2227 32.5352C33.9753 32.3008 33.8516 32.0371 33.8516 31.7441C33.8516 31.7116 33.8874 31.4902 33.959 31.0801L34.7793 26.4023C34.8704 25.8424 35.0397 25.4355 35.2871 25.1816C35.5345 24.9277 35.9382 24.8008 36.498 24.8008H41.6543C42.6699 24.8008 43.1777 25.1882 43.1777 25.9629C43.1777 26.3014 43.054 26.5749 42.8066 26.7832C42.5592 26.9915 42.1947 27.0957 41.7129 27.0957ZM50.9512 28.3555C50.9512 29.599 50.6777 30.5234 50.1309 31.1289C49.584 31.7344 48.8353 32.0371 47.8848 32.0371C47.2988 32.0371 46.7715 31.9102 46.3027 31.6562C45.8405 31.3958 45.4792 30.9922 45.2188 30.4453C44.9583 29.8984 44.8281 29.2311 44.8281 28.4434C44.8281 27.597 44.929 26.8906 45.1309 26.3242C45.3327 25.7578 45.6582 25.3281 46.1074 25.0352C46.5632 24.7422 47.1426 24.5957 47.8457 24.5957C48.3535 24.5957 48.7995 24.6738 49.1836 24.8301C49.5677 24.9863 49.8932 25.2272 50.1602 25.5527C50.4271 25.8717 50.6257 26.2624 50.7559 26.7246C50.8861 27.1868 50.9512 27.7305 50.9512 28.3555ZM49.125 28.2578C49.125 27.4049 49.0339 26.7865 48.8516 26.4023C48.6693 26.0117 48.347 25.8164 47.8848 25.8164C47.5723 25.8164 47.3216 25.9108 47.1328 26.0996C46.9505 26.2819 46.8236 26.5553 46.752 26.9199C46.6868 27.278 46.6543 27.737 46.6543 28.2969C46.6543 28.8763 46.6868 29.3483 46.752 29.7129C46.8236 30.0775 46.9505 30.3542 47.1328 30.543C47.3151 30.7253 47.5658 30.8164 47.8848 30.8164C48.3665 30.8164 48.6921 30.6113 48.8613 30.2012C49.0371 29.791 49.125 29.1432 49.125 28.2578ZM60.9512 35.416C60.9512 36.6595 60.6777 37.584 60.1309 38.1895C59.584 38.7949 58.8353 39.0977 57.8848 39.0977C57.2923 39.0977 56.7617 38.9674 56.293 38.707C55.8307 38.4466 55.4661 38.0462 55.1992 37.5059C54.9388 36.9655 54.8086 36.2982 54.8086 35.5039C54.8086 34.2344 55.0495 33.2806 55.5312 32.6426C56.0195 31.998 56.791 31.6758 57.8457 31.6758C58.3535 31.6758 58.7962 31.7539 59.1738 31.9102C59.5579 32.0664 59.8835 32.3008 60.1504 32.6133C60.4238 32.9258 60.6257 33.3164 60.7559 33.7852C60.8861 34.2474 60.9512 34.791 60.9512 35.416ZM59.125 35.3184C59.125 34.4785 59.0339 33.8665 58.8516 33.4824C58.6693 33.0918 58.347 32.8965 57.8848 32.8965C57.5592 32.8965 57.3053 32.9876 57.123 33.1699C56.9408 33.3522 56.8105 33.6224 56.7324 33.9805C56.6608 34.332 56.625 34.791 56.625 35.3574C56.625 36.2298 56.7161 36.8678 56.8984 37.2715C57.0872 37.6751 57.416 37.877 57.8848 37.877C58.36 37.877 58.6855 37.6719 58.8613 37.2617C59.0371 36.8451 59.125 36.1973 59.125 35.3184ZM57.4648 25.8848L49.3301 39C49.1217 39.3581 48.8874 39.5371 48.627 39.5371C48.4772 39.5371 48.3275 39.4785 48.1777 39.3613C48.028 39.2507 47.9531 39.1042 47.9531 38.9219C47.9531 38.7852 48.0182 38.6191 48.1484 38.4238L56.332 25.2012C56.4753 24.9603 56.599 24.7812 56.7031 24.6641C56.8138 24.5404 56.9701 24.4785 57.1719 24.4785C57.3672 24.4785 57.5234 24.5371 57.6406 24.6543C57.7643 24.765 57.8262 24.9147 57.8262 25.1035C57.8262 25.2402 57.7057 25.5007 57.4648 25.8848Z" fill="black" fill-opacity="0.75"/>
<path d="M21.5303 47.7393C21.5303 47.9671 21.4733 48.2145 21.3594 48.4814C21.2487 48.7451 21.0729 49.0055 20.832 49.2627C20.5911 49.5166 20.2835 49.7233 19.9092 49.8828C19.5348 50.0423 19.0986 50.1221 18.6006 50.1221C18.223 50.1221 17.8796 50.0863 17.5703 50.0146C17.2611 49.943 16.9795 49.8324 16.7256 49.6826C16.4749 49.5296 16.2438 49.3294 16.0322 49.082C15.8434 48.8574 15.6823 48.6068 15.5488 48.3301C15.4154 48.0501 15.3145 47.7523 15.2461 47.4365C15.181 47.1208 15.1484 46.7855 15.1484 46.4307C15.1484 45.8545 15.2314 45.3385 15.3975 44.8828C15.5667 44.4271 15.8076 44.0381 16.1201 43.7158C16.4326 43.3903 16.7988 43.1429 17.2188 42.9736C17.6387 42.8044 18.0863 42.7197 18.5615 42.7197C19.141 42.7197 19.6569 42.8353 20.1094 43.0664C20.5618 43.2975 20.9085 43.584 21.1494 43.9258C21.3903 44.2643 21.5107 44.585 21.5107 44.8877C21.5107 45.0537 21.4521 45.2002 21.335 45.3271C21.2178 45.4541 21.0762 45.5176 20.9102 45.5176C20.7246 45.5176 20.5846 45.4736 20.4902 45.3857C20.3991 45.2979 20.2965 45.1465 20.1826 44.9316C19.9938 44.5768 19.7708 44.3115 19.5137 44.1357C19.2598 43.96 18.9456 43.8721 18.5713 43.8721C17.9756 43.8721 17.5003 44.0983 17.1455 44.5508C16.7939 45.0033 16.6182 45.6462 16.6182 46.4795C16.6182 47.0361 16.6963 47.5 16.8525 47.8711C17.0088 48.2389 17.2301 48.514 17.5166 48.6963C17.8031 48.8786 18.1383 48.9697 18.5225 48.9697C18.9391 48.9697 19.2907 48.8672 19.5771 48.6621C19.8669 48.4538 20.085 48.1494 20.2314 47.749C20.2933 47.5602 20.3698 47.4072 20.4609 47.29C20.5521 47.1696 20.6986 47.1094 20.9004 47.1094C21.0729 47.1094 21.221 47.1696 21.3447 47.29C21.4684 47.4105 21.5303 47.5602 21.5303 47.7393ZM27.7314 47.4121C27.7314 47.8092 27.6696 48.1755 27.5459 48.5107C27.4222 48.846 27.2432 49.1341 27.0088 49.375C26.7744 49.6159 26.4945 49.8014 26.1689 49.9316C25.8434 50.0586 25.4772 50.1221 25.0703 50.1221C24.6667 50.1221 24.3037 50.057 23.9814 49.9268C23.6592 49.7965 23.3792 49.611 23.1416 49.3701C22.9072 49.126 22.7282 48.8395 22.6045 48.5107C22.484 48.1787 22.4238 47.8125 22.4238 47.4121C22.4238 47.0085 22.4857 46.639 22.6094 46.3037C22.7331 45.9684 22.9105 45.682 23.1416 45.4443C23.3727 45.2067 23.6527 45.0244 23.9814 44.8975C24.3102 44.7673 24.6732 44.7021 25.0703 44.7021C25.474 44.7021 25.8402 44.7673 26.1689 44.8975C26.4977 45.0277 26.7793 45.2132 27.0137 45.4541C27.248 45.695 27.4255 45.9814 27.5459 46.3135C27.6696 46.6455 27.7314 47.0117 27.7314 47.4121ZM26.3936 47.4121C26.3936 46.8685 26.2731 46.4453 26.0322 46.1426C25.7946 45.8398 25.474 45.6885 25.0703 45.6885C24.8099 45.6885 24.5804 45.7568 24.3818 45.8936C24.1833 46.027 24.0303 46.2256 23.9229 46.4893C23.8154 46.7529 23.7617 47.0605 23.7617 47.4121C23.7617 47.7604 23.8138 48.0648 23.918 48.3252C24.0254 48.5856 24.1768 48.7858 24.3721 48.9258C24.5706 49.0625 24.8034 49.1309 25.0703 49.1309C25.474 49.1309 25.7946 48.9795 26.0322 48.6768C26.2731 48.3708 26.3936 47.9492 26.3936 47.4121ZM33.2197 47.5098V49.2822C33.2197 49.5622 33.1562 49.7721 33.0293 49.9121C32.9023 50.0521 32.7347 50.1221 32.5264 50.1221C32.3245 50.1221 32.1602 50.0521 32.0332 49.9121C31.9095 49.7721 31.8477 49.5622 31.8477 49.2822V47.1582C31.8477 46.8229 31.8363 46.5625 31.8135 46.377C31.7907 46.1914 31.7288 46.04 31.6279 45.9229C31.527 45.8024 31.3675 45.7422 31.1494 45.7422C30.7132 45.7422 30.4251 45.8919 30.2852 46.1914C30.1484 46.4909 30.0801 46.9206 30.0801 47.4805V49.2822C30.0801 49.5589 30.0166 49.7689 29.8896 49.9121C29.766 50.0521 29.6016 50.1221 29.3965 50.1221C29.1947 50.1221 29.0286 50.0521 28.8984 49.9121C28.7715 49.7689 28.708 49.5589 28.708 49.2822V45.4688C28.708 45.2181 28.765 45.0277 28.8789 44.8975C28.9961 44.7673 29.1491 44.7021 29.3379 44.7021C29.5202 44.7021 29.6715 44.764 29.792 44.8877C29.9157 45.0081 29.9775 45.1758 29.9775 45.3906V45.5176C30.2087 45.2409 30.4561 45.0374 30.7197 44.9072C30.9834 44.777 31.2764 44.7119 31.5986 44.7119C31.9339 44.7119 32.222 44.7786 32.4629 44.9121C32.7038 45.0456 32.9023 45.2474 33.0586 45.5176C33.2832 45.2441 33.5241 45.0423 33.7812 44.9121C34.0384 44.7786 34.3232 44.7119 34.6357 44.7119C35.0003 44.7119 35.3145 44.7835 35.5781 44.9268C35.8418 45.07 36.0387 45.2751 36.1689 45.542C36.2829 45.7829 36.3398 46.1621 36.3398 46.6797V49.2822C36.3398 49.5622 36.2764 49.7721 36.1494 49.9121C36.0225 50.0521 35.8548 50.1221 35.6465 50.1221C35.4447 50.1221 35.2786 50.0521 35.1484 49.9121C35.0215 49.7689 34.958 49.5589 34.958 49.2822V47.041C34.958 46.7546 34.945 46.5251 34.9189 46.3525C34.8962 46.18 34.8311 46.0352 34.7236 45.918C34.6162 45.8008 34.4535 45.7422 34.2354 45.7422C34.0596 45.7422 33.8919 45.7943 33.7324 45.8984C33.5762 46.0026 33.4541 46.1426 33.3662 46.3184C33.2686 46.543 33.2197 46.9401 33.2197 47.5098ZM38.8643 45.4492V45.6104C39.1149 45.3011 39.3753 45.0749 39.6455 44.9316C39.9157 44.7852 40.2217 44.7119 40.5635 44.7119C40.9736 44.7119 41.3512 44.8177 41.6963 45.0293C42.0413 45.2409 42.3132 45.5501 42.5117 45.957C42.7135 46.3639 42.8145 46.8457 42.8145 47.4023C42.8145 47.8125 42.7559 48.1901 42.6387 48.5352C42.5247 48.877 42.3669 49.165 42.165 49.3994C41.9632 49.6305 41.724 49.8096 41.4473 49.9365C41.1738 50.0602 40.8792 50.1221 40.5635 50.1221C40.1826 50.1221 39.862 50.0456 39.6016 49.8926C39.3444 49.7396 39.0986 49.515 38.8643 49.2188V51.2207C38.8643 51.8066 38.651 52.0996 38.2246 52.0996C37.974 52.0996 37.8079 52.0231 37.7266 51.8701C37.6452 51.7204 37.6045 51.5007 37.6045 51.2109V45.459C37.6045 45.2051 37.6598 45.0163 37.7705 44.8926C37.8812 44.7656 38.0326 44.7021 38.2246 44.7021C38.4134 44.7021 38.5664 44.7673 38.6836 44.8975C38.804 45.0244 38.8643 45.2083 38.8643 45.4492ZM41.4766 47.3877C41.4766 47.0361 41.4229 46.735 41.3154 46.4844C41.208 46.2305 41.0583 46.0368 40.8662 45.9033C40.6774 45.7666 40.4674 45.6982 40.2363 45.6982C39.8685 45.6982 39.5576 45.8431 39.3037 46.1328C39.0531 46.4225 38.9277 46.849 38.9277 47.4121C38.9277 47.9427 39.0531 48.3561 39.3037 48.6523C39.5544 48.9453 39.8652 49.0918 40.2363 49.0918C40.4577 49.0918 40.6628 49.0283 40.8516 48.9014C41.0404 48.7712 41.1917 48.5775 41.3057 48.3203C41.4196 48.0632 41.4766 47.7523 41.4766 47.3877ZM43.8838 49.3115V43.5303C43.8838 43.2633 43.9424 43.0615 44.0596 42.9248C44.18 42.7881 44.3411 42.7197 44.543 42.7197C44.7448 42.7197 44.9076 42.7881 45.0312 42.9248C45.1549 43.0583 45.2168 43.2601 45.2168 43.5303V49.3115C45.2168 49.5817 45.1533 49.7852 45.0264 49.9219C44.9027 50.0553 44.7415 50.1221 44.543 50.1221C44.3477 50.1221 44.1882 50.0521 44.0645 49.9121C43.944 49.7721 43.8838 49.5719 43.8838 49.3115ZM50.3193 47.7393H47.7119C47.7152 48.042 47.7754 48.3089 47.8926 48.54C48.013 48.7712 48.1709 48.9453 48.3662 49.0625C48.5648 49.1797 48.7829 49.2383 49.0205 49.2383C49.18 49.2383 49.3249 49.2204 49.4551 49.1846C49.5885 49.1455 49.7171 49.0869 49.8408 49.0088C49.9645 48.9274 50.0785 48.8411 50.1826 48.75C50.2868 48.6589 50.4219 48.5352 50.5879 48.3789C50.6562 48.3203 50.7539 48.291 50.8809 48.291C51.0176 48.291 51.1283 48.3285 51.2129 48.4033C51.2975 48.4782 51.3398 48.584 51.3398 48.7207C51.3398 48.8411 51.2926 48.9827 51.1982 49.1455C51.1038 49.305 50.9606 49.4596 50.7686 49.6094C50.5798 49.7559 50.3405 49.8779 50.0508 49.9756C49.7643 50.0732 49.4339 50.1221 49.0596 50.1221C48.2035 50.1221 47.5378 49.8779 47.0625 49.3896C46.5872 48.9014 46.3496 48.2389 46.3496 47.4023C46.3496 47.0085 46.4082 46.6439 46.5254 46.3086C46.6426 45.9701 46.8135 45.6803 47.0381 45.4395C47.2627 45.1986 47.5394 45.0146 47.8682 44.8877C48.1969 44.7575 48.5615 44.6924 48.9619 44.6924C49.4827 44.6924 49.9287 44.8031 50.2998 45.0244C50.6742 45.2425 50.9541 45.5257 51.1396 45.874C51.3252 46.2223 51.418 46.5771 51.418 46.9385C51.418 47.2738 51.3219 47.4919 51.1299 47.5928C50.9378 47.6904 50.6676 47.7393 50.3193 47.7393ZM47.7119 46.9824H50.1289C50.0964 46.5267 49.9727 46.1865 49.7578 45.9619C49.5462 45.734 49.2663 45.6201 48.918 45.6201C48.5859 45.6201 48.3125 45.7357 48.0977 45.9668C47.8861 46.1947 47.7575 46.5332 47.7119 46.9824ZM52.6191 44.8193H52.7656V44.0186C52.7656 43.8037 52.7705 43.6361 52.7803 43.5156C52.7933 43.3919 52.8258 43.2861 52.8779 43.1982C52.93 43.1071 53.0049 43.0339 53.1025 42.9785C53.2002 42.9199 53.3092 42.8906 53.4297 42.8906C53.599 42.8906 53.752 42.9541 53.8887 43.0811C53.9798 43.1657 54.0368 43.2699 54.0596 43.3936C54.0856 43.514 54.0986 43.6865 54.0986 43.9111V44.8193H54.5869C54.7757 44.8193 54.9189 44.8649 55.0166 44.9561C55.1175 45.0439 55.168 45.1579 55.168 45.2979C55.168 45.4769 55.0964 45.6022 54.9531 45.6738C54.8132 45.7454 54.6113 45.7812 54.3477 45.7812H54.0986V48.2324C54.0986 48.4408 54.1051 48.6019 54.1182 48.7158C54.1344 48.8265 54.1735 48.9176 54.2354 48.9893C54.3005 49.0576 54.4046 49.0918 54.5479 49.0918C54.626 49.0918 54.7318 49.0788 54.8652 49.0527C54.9987 49.0234 55.1029 49.0088 55.1777 49.0088C55.2852 49.0088 55.3812 49.0527 55.4658 49.1406C55.5537 49.2253 55.5977 49.3311 55.5977 49.458C55.5977 49.6729 55.4805 49.8372 55.2461 49.9512C55.0117 50.0651 54.6748 50.1221 54.2354 50.1221C53.8187 50.1221 53.5029 50.0521 53.2881 49.9121C53.0732 49.7721 52.9316 49.5785 52.8633 49.3311C52.7982 49.0837 52.7656 48.7533 52.7656 48.3398V45.7812H52.5898C52.3978 45.7812 52.2513 45.7357 52.1504 45.6445C52.0495 45.5534 51.999 45.4378 51.999 45.2979C51.999 45.1579 52.0511 45.0439 52.1553 44.9561C52.2627 44.8649 52.4173 44.8193 52.6191 44.8193ZM59.8115 47.7393H57.2041C57.2074 48.042 57.2676 48.3089 57.3848 48.54C57.5052 48.7712 57.6631 48.9453 57.8584 49.0625C58.057 49.1797 58.2751 49.2383 58.5127 49.2383C58.6722 49.2383 58.8171 49.2204 58.9473 49.1846C59.0807 49.1455 59.2093 49.0869 59.333 49.0088C59.4567 48.9274 59.5706 48.8411 59.6748 48.75C59.779 48.6589 59.9141 48.5352 60.0801 48.3789C60.1484 48.3203 60.2461 48.291 60.373 48.291C60.5098 48.291 60.6204 48.3285 60.7051 48.4033C60.7897 48.4782 60.832 48.584 60.832 48.7207C60.832 48.8411 60.7848 48.9827 60.6904 49.1455C60.596 49.305 60.4528 49.4596 60.2607 49.6094C60.0719 49.7559 59.8327 49.8779 59.543 49.9756C59.2565 50.0732 58.9261 50.1221 58.5518 50.1221C57.6956 50.1221 57.0299 49.8779 56.5547 49.3896C56.0794 48.9014 55.8418 48.2389 55.8418 47.4023C55.8418 47.0085 55.9004 46.6439 56.0176 46.3086C56.1348 45.9701 56.3057 45.6803 56.5303 45.4395C56.7549 45.1986 57.0316 45.0146 57.3604 44.8877C57.6891 44.7575 58.0537 44.6924 58.4541 44.6924C58.9749 44.6924 59.4209 44.8031 59.792 45.0244C60.1663 45.2425 60.4463 45.5257 60.6318 45.874C60.8174 46.2223 60.9102 46.5771 60.9102 46.9385C60.9102 47.2738 60.8141 47.4919 60.6221 47.5928C60.43 47.6904 60.1598 47.7393 59.8115 47.7393ZM57.2041 46.9824H59.6211C59.5885 46.5267 59.4648 46.1865 59.25 45.9619C59.0384 45.734 58.7585 45.6201 58.4102 45.6201C58.0781 45.6201 57.8047 45.7357 57.5898 45.9668C57.3783 46.1947 57.2497 46.5332 57.2041 46.9824Z" fill="black" fill-opacity="0.75"/>
<defs>
<linearGradient id="paint0_linear_76_418" x1="38" y1="0.5" x2="38" y2="75.5" gradientUnits="userSpaceOnUse">
<stop offset="0.154" stop-color="#666666"/>
<stop offset="0.569" stop-color="#333333"/>
<stop offset="1"/>
</linearGradient>
</defs>
</svg>
