<svg width="560" height="64" viewBox="0 0 560 64" fill="none" xmlns="http://www.w3.org/2000/svg">
<g filter="url(#filter0_b_1144_1290)">
<path fill-rule="evenodd" clip-rule="evenodd" d="M0 32C0 14.3269 14.3269 0 32 0H528C545.673 0 560 14.3269 560 32C560 49.6731 545.673 64 528 64H479.343L459.453 40H426.718L407.594 64H153L131.453 38H98.7182L78 64H32C14.3269 64 0 49.6731 0 32Z" fill="black" fill-opacity="0.5"/>
</g>
<path d="M47.9719 8C46.2698 15.9749 43.5747 21.5256 42.4399 23.304C43.9151 22.2931 45.5133 22.3212 46.1279 22.4616L47.9719 17.2667L49.6741 22.4616C50.4684 22.1246 52.3691 22.8828 53.2202 23.304C50.9507 20.3836 48.7757 11.8845 47.9719 8Z" fill="white"/>
<path d="M69.234 45.1053C63.1077 39.6587 59.5989 34.5731 58.6102 32.7111C58.7571 34.4811 57.9335 35.837 57.5033 36.2938L61.1265 40.4719L55.7302 39.3336C55.6279 40.183 54.0142 41.4333 53.2201 41.9522C56.91 41.4669 65.4335 43.852 69.234 45.1053Z" fill="white"/>
<path d="M26.6242 44.8621C34.4526 42.3337 40.6565 41.8687 42.7799 41.9522C41.1578 41.1931 40.3833 39.8091 40.1988 39.212L34.7317 40.2287L38.4258 36.1721C37.7338 35.6597 37.4468 33.6513 37.3898 32.7111C35.9694 36.1168 29.6209 42.2308 26.6242 44.8621Z" fill="white"/>
<path d="M34.071 34.2555L31.8015 37.3444C30.2128 32.5145 31.6124 27.4693 32.5107 25.5505L30.2412 23.0232H34.071C36.2271 18.9796 41.6834 16.8454 44.1421 16.2838L42.2981 20.2151C38.8938 21.3384 37.0971 23.772 36.6243 24.8485C36.1704 25.4101 36.8134 26.3929 37.1916 26.8141C36.6243 26.3648 36.0096 26.4397 35.7732 26.5333C34.071 27.5442 33.9292 32.1027 34.071 34.2555Z" fill="white"/>
<path d="M53.5823 19.8477L52.0145 16.3577C57.0346 17.4108 60.749 21.1331 61.9786 22.8627L65.3245 22.1808L63.4096 25.4638C65.8694 29.3339 65.0085 35.0782 64.2705 37.4667L61.7529 33.9203C62.4724 30.4404 61.2415 27.6834 60.5361 26.7399C60.2717 26.07 59.0902 26.1298 58.5326 26.2434C59.2094 25.9817 59.4512 25.4174 59.4875 25.1679C59.4541 23.2033 55.5368 20.8025 53.5823 19.8477Z" fill="white"/>
<path d="M56.3906 43.7311L60.2279 44.1322C56.7965 47.909 51.6826 49.2318 49.5546 49.4212L48.4782 52.6303L46.5633 49.3473C41.9474 49.5209 37.3521 45.9107 35.6314 44.0838L39.9929 43.6989C42.6778 46.0555 45.7054 46.3789 46.8836 46.246C47.6019 46.3543 48.1403 45.3116 48.3197 44.7768C48.2103 45.4878 48.5832 45.9772 48.7833 46.1331C50.5188 47.0868 54.578 44.9291 56.3906 43.7311Z" fill="white"/>
<path d="M47.9719 23.0232C46.4968 30.7735 41.5889 35.9872 39.3194 37.6252C44.8797 34.8172 53.2675 36.4552 56.7664 37.6252C52.7947 35.9404 49.2486 27.1885 47.9719 23.0232Z" fill="white"/>
<path d="M38.752 34.8172C38.3265 32.1495 39.0357 26.1964 45.2769 23.7252C44.1894 26.6737 41.3619 33.02 38.752 34.8172Z" fill="white"/>
<path d="M50.3833 23.7252C52.9366 24.4273 57.816 27.6846 56.9082 35.098C55.3952 33.1791 51.972 28.2182 50.3833 23.7252Z" fill="white"/>
<path d="M41.4471 39.1697C43.4802 40.9481 48.9365 43.438 54.4969 39.1697C52.1328 38.6081 46.2131 37.8218 41.4471 39.1697Z" fill="white"/>
<path fill-rule="evenodd" clip-rule="evenodd" d="M495.974 13L523.256 25.9915C522.823 28.4815 520.723 33.7863 515.786 35.0855L510.915 32.812C510.265 32.812 508.576 33.2667 507.017 35.0855C507.017 31.2737 508.64 30.0994 510.356 29.0114C509.677 30.0824 509.132 30.6655 508.868 30.8632C511.234 33.5246 516.884 28.2168 513.171 26.6567C513.43 26.282 513.656 25.8505 513.838 25.3419C511.348 23.0684 505.718 19.3658 503.12 22.7436L495.974 13ZM511.564 25.9915C508.186 22.3538 505.068 26.9658 503.12 31.188C505.027 30.0438 506.038 29.6461 506.835 29.3325C508.075 28.845 508.797 28.5609 511.564 25.9915ZM525.855 31.188L513.838 38.6581L516.761 40.2821L523.256 36.3846C525.595 35.0855 525.963 32.3789 525.855 31.188ZM495 49.7009C496.299 44.396 500.262 33.5915 505.718 32.812C503.986 35.5185 501.171 41.5162 503.769 43.8547L495 49.7009ZM504.419 39.6325C505.679 37.5538 509.274 35.735 510.915 35.0855C511.694 34.7468 512.972 36.027 513.513 36.7094C511.174 37.2291 510.157 38.8746 509.94 39.6325L517.735 42.2308L522.607 38.9829L520.333 44.1795H523.581L524.88 42.8803L530.726 51.9744L504.419 39.6325ZM523.581 22.094C524.88 22.846 526.634 25.4578 523.256 29.8889C525.53 29.0228 530.662 24.9521 533 15.5983L523.581 22.094ZM524.88 18.5214C518.385 13.065 510.265 14.5157 507.017 15.9231C507.017 16.4644 507.732 17.6769 510.59 18.1966C514.487 17.1573 519.792 19.4957 521.957 20.7949C524.036 20.2752 524.772 19.0627 524.88 18.5214ZM525.855 41.5812C527.154 39.849 529.492 34.9556 528.453 29.2393C529.103 28.265 530.726 26.8359 532.026 28.9145C532.35 31.8376 532.221 38.7231 529.103 42.8803C528.345 43.3134 526.634 43.6598 525.855 41.5812ZM517.41 47.7521C509.875 47.7521 506.39 45.4776 506.043 45.1538C505.696 44.8301 501.452 45.8212 504.744 48.4017C508.035 50.9822 514.271 50.9278 517.41 50.6752C520.658 50.6752 519.034 47.7521 517.41 47.7521ZM499.222 21.7692C500.088 21.7692 501.821 22.3538 501.821 24.6923C500.521 26.641 498.183 31.7077 499.222 36.3846C498.681 37.4672 497.209 39.0479 495.65 36.7094C495.325 33.8946 495.585 26.9658 499.222 21.7692Z" fill="white"/>
<path d="M227.488 42H223.867V34.6055H217.082V42H213.449V24.8672H217.082V31.582H223.867V24.8672H227.488V42ZM247.855 33.4102C247.855 34.7305 247.691 35.9336 247.362 37.0195C247.034 38.0977 246.534 39.0273 245.862 39.8086C245.198 40.5898 244.355 41.1914 243.331 41.6133C242.308 42.0273 241.097 42.2344 239.698 42.2344C238.3 42.2344 237.089 42.0273 236.066 41.6133C235.042 41.1914 234.195 40.5898 233.523 39.8086C232.859 39.0273 232.362 38.0938 232.034 37.0078C231.706 35.9219 231.542 34.7148 231.542 33.3867C231.542 31.6133 231.831 30.0703 232.409 28.7578C232.995 27.4375 233.894 26.4141 235.105 25.6875C236.316 24.9609 237.855 24.5977 239.722 24.5977C241.581 24.5977 243.109 24.9609 244.304 25.6875C245.507 26.4141 246.398 27.4375 246.976 28.7578C247.562 30.0781 247.855 31.6289 247.855 33.4102ZM235.351 33.4102C235.351 34.6055 235.499 35.6367 235.796 36.5039C236.101 37.3633 236.573 38.0273 237.214 38.4961C237.855 38.957 238.683 39.1875 239.698 39.1875C240.73 39.1875 241.566 38.957 242.206 38.4961C242.847 38.0273 243.312 37.3633 243.601 36.5039C243.898 35.6367 244.046 34.6055 244.046 33.4102C244.046 31.6133 243.71 30.1992 243.038 29.168C242.366 28.1367 241.261 27.6211 239.722 27.6211C238.698 27.6211 237.862 27.8555 237.214 28.3242C236.573 28.7852 236.101 29.4492 235.796 30.3164C235.499 31.1758 235.351 32.207 235.351 33.4102ZM259.139 42L255.014 28.5586H254.909C254.925 28.8789 254.948 29.3633 254.979 30.0117C255.018 30.6523 255.053 31.3359 255.085 32.0625C255.116 32.7891 255.132 33.4453 255.132 34.0312V42H251.885V24.8672H256.831L260.885 37.9688H260.956L265.257 24.8672H270.202V42H266.815V33.8906C266.815 33.3516 266.823 32.7305 266.839 32.0273C266.862 31.3242 266.889 30.6562 266.921 30.0234C266.952 29.3828 266.975 28.9023 266.991 28.582H266.885L262.467 42H259.139ZM284.873 42H275.006V24.8672H284.873V27.8438H278.639V31.6055H284.44V34.582H278.639V39H284.873V42ZM294.412 24.8672C296.623 24.8672 298.236 25.3438 299.252 26.2969C300.267 27.2422 300.775 28.5469 300.775 30.2109C300.775 30.9609 300.662 31.6797 300.435 32.3672C300.209 33.0469 299.838 33.6523 299.322 34.1836C298.814 34.7148 298.135 35.1367 297.283 35.4492C296.431 35.7539 295.381 35.9062 294.131 35.9062H292.572V42H288.939V24.8672H294.412ZM294.224 27.8438H292.572V32.9297H293.767C294.447 32.9297 295.037 32.8398 295.537 32.6602C296.037 32.4805 296.424 32.1992 296.697 31.8164C296.97 31.4336 297.107 30.9414 297.107 30.3398C297.107 29.4961 296.873 28.8711 296.404 28.4648C295.935 28.0508 295.209 27.8438 294.224 27.8438ZM314.978 42L313.736 37.9219H307.49L306.247 42H302.333L308.38 24.7969H312.822L318.892 42H314.978ZM312.868 34.875L311.626 30.8906C311.548 30.625 311.443 30.2852 311.31 29.8711C311.185 29.4492 311.056 29.0234 310.923 28.5938C310.798 28.1562 310.697 27.7773 310.618 27.457C310.54 27.7773 310.431 28.1758 310.29 28.6523C310.158 29.1211 310.029 29.5664 309.904 29.9883C309.779 30.4102 309.689 30.7109 309.634 30.8906L308.404 34.875H312.868ZM328.044 32.3789H334.841V41.2617C333.942 41.5586 333.009 41.7969 332.04 41.9766C331.071 42.1484 329.973 42.2344 328.747 42.2344C327.044 42.2344 325.598 41.8984 324.411 41.2266C323.223 40.5547 322.321 39.5625 321.704 38.25C321.087 36.9375 320.778 35.3242 320.778 33.4102C320.778 31.6133 321.122 30.0586 321.809 28.7461C322.505 27.4336 323.516 26.418 324.845 25.6992C326.18 24.9805 327.809 24.6211 329.731 24.6211C330.637 24.6211 331.532 24.7188 332.415 24.9141C333.298 25.1094 334.098 25.3633 334.817 25.6758L333.61 28.582C333.087 28.3164 332.489 28.0938 331.817 27.9141C331.145 27.7344 330.442 27.6445 329.708 27.6445C328.653 27.6445 327.735 27.8867 326.954 28.3711C326.18 28.8555 325.579 29.5352 325.149 30.4102C324.727 31.2773 324.516 32.3008 324.516 33.4805C324.516 34.5977 324.669 35.5898 324.973 36.457C325.278 37.3164 325.759 37.9922 326.415 38.4844C327.071 38.9688 327.927 39.2109 328.981 39.2109C329.497 39.2109 329.93 39.1875 330.282 39.1406C330.641 39.0859 330.977 39.0312 331.29 38.9766V35.4023H328.044V32.3789ZM349.278 42H339.41V24.8672H349.278V27.8438H343.043V31.6055H348.844V34.582H343.043V39H349.278V42Z" fill="white"/>
<defs>
<filter id="filter0_b_1144_1290" x="-33" y="-33" width="626" height="130" filterUnits="userSpaceOnUse" color-interpolation-filters="sRGB">
<feFlood flood-opacity="0" result="BackgroundImageFix"/>
<feGaussianBlur in="BackgroundImageFix" stdDeviation="16.5"/>
<feComposite in2="SourceAlpha" operator="in" result="effect1_backgroundBlur_1144_1290"/>
<feBlend mode="normal" in="SourceGraphic" in2="effect1_backgroundBlur_1144_1290" result="shape"/>
</filter>
</defs>
</svg>
