<svg width="17" height="28" viewBox="0 0 17 28" fill="none" xmlns="http://www.w3.org/2000/svg">
<path d="M14.7862 26.3097C14.1233 26.9683 13.053 26.9683 12.39 26.3097L2.85613 16.8376C1.28175 15.2734 1.28175 12.7266 2.85613 11.1624L12.39 1.69033C13.053 1.03168 14.1233 1.03168 14.7862 1.69033C15.4553 2.35507 15.4553 3.43743 14.7862 4.10217L7.67991 11.1624C6.10553 12.7266 6.10553 15.2734 7.67991 16.8376L14.7862 23.8978C15.4553 24.5626 15.4553 25.6449 14.7862 26.3097Z" fill="black"/>
<path d="M12.0381 1.33594C12.896 0.48364 14.2808 0.483584 15.1387 1.33594C16.0044 2.19621 16.0045 3.59683 15.1387 4.45703L8.03223 11.5166C6.65464 12.8853 6.65464 15.1147 8.03223 16.4834L15.1387 23.543C16.0045 24.4032 16.0044 25.8038 15.1387 26.6641C14.2808 27.5164 12.896 27.5164 12.0381 26.6641L2.50391 17.1924C0.732724 15.4327 0.732724 12.5673 2.50391 10.8076L12.0381 1.33594Z" stroke="black" stroke-opacity="0.75"/>
</svg>
