<svg width="48" height="36" viewBox="0 0 48 36" fill="none" xmlns="http://www.w3.org/2000/svg">
<path d="M11.8517 0C7.93512 1.30909 5.86804 4.06061 5.32408 5.27273H8.04391L10.9451 3.09091L11.8517 0Z" fill="black"/>
<path d="M11.8517 3.81818L8.76919 6.18182C10.8 6.18182 13 7.87879 13.8462 8.72727C15.4418 8.14545 15.8407 6.78788 15.8407 6.18182C12.5044 6.18182 11.7912 4.60606 11.8517 3.81818Z" fill="black"/>
<path d="M12.7583 16.1818V14C13.6286 13.7091 14.2089 13.1515 14.3902 12.9091C14.6803 13.4909 13.4231 15.3333 12.7583 16.1818Z" fill="black"/>
<path d="M11.8517 17.2727V14C8.08008 14.5818 3.63179 10 1.87909 7.63636C1.51645 12.1818 1.69777 7.63636 1.69777 14.3636C0.682365 13.4909 0.186705 10.2424 0.0658002 8.72727C-0.949602 22.4 10.0385 32.6061 15.6594 36C9.27689 28.7273 7.07685 22.9091 6.77465 20.9091C6.59333 20.8485 6.19442 20.9455 6.04937 21.8182C1.87855 17.4545 7.13729 10 9.13184 18.7273C9.56701 18.1455 11.1264 17.5152 11.8517 17.2727Z" fill="black"/>
<path d="M36.1487 0C40.0651 1.30909 42.1321 4.06061 42.6761 5.27273H39.9563L37.0553 3.09091L36.1487 0Z" fill="black"/>
<path d="M36.1487 3.81818L39.2311 6.18182C37.2003 6.18182 35.0003 7.87879 34.1542 8.72727C32.5586 8.14545 32.1597 6.78788 32.1597 6.18182C35.4959 6.18182 36.2091 4.60606 36.1487 3.81818Z" fill="black"/>
<path d="M35.2421 16.1818V14C34.3718 13.7091 33.7916 13.1515 33.6103 12.9091C33.3202 13.4909 34.5773 15.3333 35.2421 16.1818Z" fill="black"/>
<path d="M36.1487 17.2727V14C39.9202 14.5818 44.3683 10 46.121 7.63636C46.4836 12.1818 46.3023 7.63636 46.3023 14.3636C47.3177 13.4909 47.8133 10.2424 47.9342 8.72727C48.9496 22.4 37.9618 32.6061 32.3411 36C38.7234 28.7273 40.9234 22.9091 41.2256 20.9091C41.4069 20.8485 41.8058 20.9455 41.9508 21.8182C46.1215 17.4545 40.8629 10 38.8684 18.7273C38.4333 18.1455 36.874 17.5152 36.1487 17.2727Z" fill="black"/>
<path d="M18.198 7.81818C18.3431 12.4727 15.1155 18.3636 13.4836 20.7273C15.2243 24.6545 18.8024 28.4242 20.3739 29.8182C18.3431 26.4727 17.7145 21.6364 17.654 19.6364C17.5936 19.7576 17.2914 20.4727 16.5661 22.3636C17.7266 11.3091 22.3684 12.4242 24.5443 14.3636C29.6213 10.4364 31.2532 17.8182 31.4345 22L30.1652 20.7273C30.8905 22.0364 29.1378 27.3333 28.1707 29.8182C33.2477 25.3091 34.6379 21.1515 34.6983 19.6364C29.9114 14.2545 28.352 8.78788 28.1707 6.72727C29.0169 8.54545 30.7092 12.1091 30.7092 11.8182V7.81818C29.1136 6.94545 27.5059 3.57576 26.9015 2C24.2904 2.29091 20.0112 6 18.198 7.81818Z" fill="black"/>
<path d="M24.1816 16C21.0992 12.5455 16.7474 18 24.1816 23.4545C26.3575 21.8545 27.7476 19.6364 28.1707 18.7273C29.6213 14 25.8135 14.5455 24.1816 16Z" fill="black"/>
</svg>
