<svg width="50" height="40" viewBox="0 0 50 40" fill="none" xmlns="http://www.w3.org/2000/svg">
<path d="M48.9156 0.0199955C48.8358 0.0578566 48.7673 0.115904 48.7168 0.188393C41.8497 8.77056 34.9853 17.3527 28.1236 25.9349C27.9065 26.1236 28.0729 26.5192 28.3651 26.4726C33.3135 26.4786 38.2599 26.4726 43.2084 26.4746C43.422 26.4856 43.6351 26.4454 43.83 26.3571C44.0248 26.2689 44.1957 26.1352 44.3283 25.9674L49.0434 20.0775C49.259 19.793 49.363 19.4393 49.3356 19.0834C49.3315 12.8405 49.3356 6.59966 49.3295 0.35679C49.362 0.133613 49.1266 -0.0591309 48.9156 0.0199955ZM0.800679 0.0483997C0.644455 0.125497 0.650542 0.316212 0.646484 0.464321C0.64919 6.70246 0.649866 12.9413 0.648513 19.1808C0.635131 19.5228 0.749385 19.8576 0.969077 20.1201L16.4697 39.4959C16.7132 39.8043 17.0946 40.0032 17.4943 39.9971C22.4752 39.9971 27.4561 40.0032 32.437 39.9971C32.7251 40.0377 32.8874 39.6441 32.6724 39.4594C22.2744 26.4442 11.8561 13.439 1.45601 0.421714C1.2937 0.230999 1.10298 -0.130142 0.802708 0.0483997H0.800679Z" fill="#262626"/>
</svg>
