<svg width="560" height="64" viewBox="0 0 560 64" fill="none" xmlns="http://www.w3.org/2000/svg">
<g filter="url(#filter0_b_975_2438)">
<path fill-rule="evenodd" clip-rule="evenodd" d="M0 32C0 14.3269 14.3269 0 32 0H528C545.673 0 560 14.3269 560 32C560 49.6731 545.673 64 528 64H479.343L459.453 40H426.718L407.594 64H153L131.453 38H98.7182L78 64H32C14.3269 64 0 49.6731 0 32Z" fill="black" fill-opacity="0.5"/>
</g>
<path d="M186.759 24.8672L180.935 42H176.974L171.161 24.8672H174.829L178.052 35.0625C178.107 35.2344 178.196 35.5586 178.321 36.0352C178.446 36.5039 178.571 37.0039 178.696 37.5352C178.829 38.0586 178.919 38.4922 178.966 38.8359C179.013 38.4922 179.095 38.0586 179.212 37.5352C179.337 37.0117 179.458 36.5156 179.575 36.0469C179.7 35.5703 179.79 35.2422 179.845 35.0625L183.091 24.8672H186.759ZM199.895 42L198.653 37.9219H192.407L191.165 42H187.251L193.297 24.7969H197.739L203.809 42H199.895ZM197.786 34.875L196.544 30.8906C196.465 30.625 196.36 30.2852 196.227 29.8711C196.102 29.4492 195.973 29.0234 195.84 28.5938C195.715 28.1562 195.614 27.7773 195.536 27.457C195.458 27.7773 195.348 28.1758 195.208 28.6523C195.075 29.1211 194.946 29.5664 194.821 29.9883C194.696 30.4102 194.606 30.7109 194.551 30.8906L193.321 34.875H197.786ZM206.457 42V24.8672H210.09V39H217.039V42H206.457ZM236.058 33.4102C236.058 34.7305 235.894 35.9336 235.566 37.0195C235.238 38.0977 234.738 39.0273 234.066 39.8086C233.402 40.5898 232.558 41.1914 231.535 41.6133C230.511 42.0273 229.3 42.2344 227.902 42.2344C226.504 42.2344 225.293 42.0273 224.269 41.6133C223.246 41.1914 222.398 40.5898 221.726 39.8086C221.062 39.0273 220.566 38.0938 220.238 37.0078C219.91 35.9219 219.746 34.7148 219.746 33.3867C219.746 31.6133 220.035 30.0703 220.613 28.7578C221.199 27.4375 222.097 26.4141 223.308 25.6875C224.519 24.9609 226.058 24.5977 227.925 24.5977C229.785 24.5977 231.312 24.9609 232.507 25.6875C233.711 26.4141 234.601 27.4375 235.179 28.7578C235.765 30.0781 236.058 31.6289 236.058 33.4102ZM223.554 33.4102C223.554 34.6055 223.703 35.6367 224 36.5039C224.304 37.3633 224.777 38.0273 225.418 38.4961C226.058 38.957 226.886 39.1875 227.902 39.1875C228.933 39.1875 229.769 38.957 230.41 38.4961C231.05 38.0273 231.515 37.3633 231.804 36.5039C232.101 35.6367 232.25 34.6055 232.25 33.4102C232.25 31.6133 231.914 30.1992 231.242 29.168C230.57 28.1367 229.465 27.6211 227.925 27.6211C226.902 27.6211 226.066 27.8555 225.418 28.3242C224.777 28.7852 224.304 29.4492 224 30.3164C223.703 31.1758 223.554 32.207 223.554 33.4102ZM245.081 24.8672C246.636 24.8672 247.917 25.0547 248.925 25.4297C249.941 25.8047 250.695 26.3711 251.187 27.1289C251.679 27.8867 251.925 28.8438 251.925 30C251.925 30.7812 251.777 31.4648 251.48 32.0508C251.183 32.6367 250.792 33.1328 250.308 33.5391C249.823 33.9453 249.3 34.2773 248.737 34.5352L253.777 42H249.745L245.655 35.4258H243.722V42H240.089V24.8672H245.081ZM244.823 27.8438H243.722V32.4727H244.894C246.097 32.4727 246.956 32.2734 247.472 31.875C247.995 31.4688 248.257 30.875 248.257 30.0938C248.257 29.2812 247.976 28.7031 247.413 28.3594C246.859 28.0156 245.995 27.8438 244.823 27.8438ZM266.901 42L265.659 37.9219H259.413L258.171 42H254.257L260.303 24.7969H264.745L270.815 42H266.901ZM264.792 34.875L263.55 30.8906C263.471 30.625 263.366 30.2852 263.233 29.8711C263.108 29.4492 262.979 29.0234 262.846 28.5938C262.721 28.1562 262.62 27.7773 262.542 27.457C262.464 27.7773 262.354 28.1758 262.214 28.6523C262.081 29.1211 261.952 29.5664 261.827 29.9883C261.702 30.4102 261.612 30.7109 261.557 30.8906L260.327 34.875H264.792ZM288.662 42H284.045L276.592 29.0391H276.487C276.518 29.5781 276.545 30.1211 276.569 30.668C276.592 31.2148 276.615 31.7617 276.639 32.3086C276.662 32.8477 276.686 33.3906 276.709 33.9375V42H273.463V24.8672H278.045L285.487 37.6992H285.569C285.553 37.168 285.533 36.6406 285.51 36.1172C285.487 35.5938 285.463 35.0703 285.44 34.5469C285.424 34.0234 285.408 33.5 285.393 32.9766V24.8672H288.662V42ZM300.076 42H296.443V27.8906H291.791V24.8672H304.728V27.8906H300.076V42ZM324.673 37.2422C324.673 38.2578 324.427 39.1406 323.934 39.8906C323.442 40.6406 322.723 41.2188 321.778 41.625C320.841 42.0312 319.7 42.2344 318.356 42.2344C317.763 42.2344 317.18 42.1953 316.61 42.1172C316.048 42.0391 315.505 41.9258 314.981 41.7773C314.466 41.6211 313.973 41.4297 313.505 41.2031V37.8281C314.317 38.1875 315.161 38.5117 316.036 38.8008C316.911 39.0898 317.778 39.2344 318.638 39.2344C319.231 39.2344 319.708 39.1562 320.067 39C320.434 38.8438 320.7 38.6289 320.864 38.3555C321.028 38.082 321.11 37.7695 321.11 37.418C321.11 36.9883 320.966 36.6211 320.677 36.3164C320.388 36.0117 319.989 35.7266 319.481 35.4609C318.981 35.1953 318.415 34.9102 317.782 34.6055C317.384 34.418 316.95 34.1914 316.481 33.9258C316.013 33.6523 315.567 33.3203 315.145 32.9297C314.723 32.5391 314.376 32.0664 314.102 31.5117C313.837 30.9492 313.704 30.2773 313.704 29.4961C313.704 28.4727 313.938 27.5977 314.407 26.8711C314.876 26.1445 315.544 25.5898 316.411 25.207C317.286 24.8164 318.317 24.6211 319.505 24.6211C320.395 24.6211 321.243 24.7266 322.048 24.9375C322.86 25.1406 323.708 25.4375 324.591 25.8281L323.419 28.6523C322.63 28.332 321.923 28.0859 321.298 27.9141C320.673 27.7344 320.036 27.6445 319.388 27.6445C318.934 27.6445 318.548 27.7188 318.227 27.8672C317.907 28.0078 317.665 28.2109 317.501 28.4766C317.337 28.7344 317.255 29.0352 317.255 29.3789C317.255 29.7852 317.372 30.1289 317.606 30.4102C317.848 30.6836 318.208 30.9492 318.684 31.207C319.169 31.4648 319.77 31.7656 320.489 32.1094C321.364 32.5234 322.11 32.957 322.727 33.4102C323.352 33.8555 323.833 34.3828 324.169 34.9922C324.505 35.5938 324.673 36.3438 324.673 37.2422ZM334.867 42H331.235V27.8906H326.582V24.8672H339.52V27.8906H334.867V42ZM358.187 33.4102C358.187 34.7305 358.023 35.9336 357.695 37.0195C357.367 38.0977 356.867 39.0273 356.195 39.8086C355.531 40.5898 354.687 41.1914 353.664 41.6133C352.64 42.0273 351.43 42.2344 350.031 42.2344C348.633 42.2344 347.422 42.0273 346.398 41.6133C345.375 41.1914 344.527 40.5898 343.855 39.8086C343.191 39.0273 342.695 38.0938 342.367 37.0078C342.039 35.9219 341.875 34.7148 341.875 33.3867C341.875 31.6133 342.164 30.0703 342.742 28.7578C343.328 27.4375 344.226 26.4141 345.437 25.6875C346.648 24.9609 348.187 24.5977 350.055 24.5977C351.914 24.5977 353.441 24.9609 354.637 25.6875C355.84 26.4141 356.73 27.4375 357.308 28.7578C357.894 30.0781 358.187 31.6289 358.187 33.4102ZM345.683 33.4102C345.683 34.6055 345.832 35.6367 346.129 36.5039C346.433 37.3633 346.906 38.0273 347.547 38.4961C348.187 38.957 349.015 39.1875 350.031 39.1875C351.062 39.1875 351.898 38.957 352.539 38.4961C353.18 38.0273 353.644 37.3633 353.933 36.5039C354.23 35.6367 354.379 34.6055 354.379 33.4102C354.379 31.6133 354.043 30.1992 353.371 29.168C352.699 28.1367 351.594 27.6211 350.055 27.6211C349.031 27.6211 348.195 27.8555 347.547 28.3242C346.906 28.7852 346.433 29.4492 346.129 30.3164C345.832 31.1758 345.683 32.207 345.683 33.4102ZM367.21 24.8672C368.765 24.8672 370.046 25.0547 371.054 25.4297C372.07 25.8047 372.824 26.3711 373.316 27.1289C373.808 27.8867 374.054 28.8438 374.054 30C374.054 30.7812 373.906 31.4648 373.609 32.0508C373.312 32.6367 372.921 33.1328 372.437 33.5391C371.952 33.9453 371.429 34.2773 370.867 34.5352L375.906 42H371.874L367.785 35.4258H365.851V42H362.218V24.8672H367.21ZM366.952 27.8438H365.851V32.4727H367.023C368.226 32.4727 369.085 32.2734 369.601 31.875C370.124 31.4688 370.386 30.875 370.386 30.0938C370.386 29.2812 370.105 28.7031 369.542 28.3594C368.988 28.0156 368.124 27.8438 366.952 27.8438ZM388.409 42H378.542V24.8672H388.409V27.8438H382.175V31.6055H387.975V34.582H382.175V39H388.409V42Z" fill="#D63B41"/>
<path d="M46.9719 8C45.2698 15.9749 42.5747 21.5256 41.4399 23.304C42.9151 22.2931 44.5133 22.3212 45.1279 22.4616L46.9719 17.2667L48.6741 22.4616C49.4684 22.1246 51.3691 22.8828 52.2202 23.304C49.9507 20.3836 47.7757 11.8845 46.9719 8Z" fill="white"/>
<path d="M68.234 45.1052C62.1077 39.6586 58.5989 34.5731 57.6102 32.7111C57.7571 34.4811 56.9335 35.837 56.5033 36.2937L60.1265 40.4719L54.7302 39.3336C54.6279 40.183 53.0142 41.4332 52.2201 41.9522C55.91 41.4669 64.4335 43.852 68.234 45.1052Z" fill="white"/>
<path d="M25.6242 44.862C33.4526 42.3337 39.6565 41.8686 41.7799 41.9522C40.1578 41.1931 39.3833 39.8091 39.1988 39.212L33.7317 40.2287L37.4258 36.1721C36.7338 35.6597 36.4468 33.6512 36.3898 32.7111C34.9694 36.1168 28.6209 42.2308 25.6242 44.862Z" fill="white"/>
<path d="M33.071 34.2555L30.8015 37.3444C29.2128 32.5145 30.6124 27.4693 31.5107 25.5505L29.2412 23.0232H33.071C35.2271 18.9796 40.6834 16.8454 43.1421 16.2838L41.2981 20.2151C37.8938 21.3384 36.0971 23.772 35.6243 24.8485C35.1704 25.4101 35.8134 26.3929 36.1916 26.8141C35.6243 26.3648 35.0096 26.4397 34.7732 26.5333C33.071 27.5442 32.9292 32.1027 33.071 34.2555Z" fill="white"/>
<path d="M52.582 19.8476L51.0143 16.3577C56.0344 17.4108 59.7487 21.1331 60.9784 22.8626L64.3243 22.1808L62.4094 25.4638C64.8692 29.3338 64.0082 35.0782 63.2703 37.4666L60.7527 33.9203C61.4721 30.4404 60.2412 27.6834 59.5358 26.7399C59.2714 26.07 58.09 26.1298 57.5323 26.2434C58.2091 25.9817 58.4509 25.4173 58.4873 25.1679C58.4539 23.2033 54.5365 20.8025 52.582 19.8476Z" fill="white"/>
<path d="M55.3904 43.7311L59.2277 44.1322C55.7963 47.909 50.6824 49.2318 48.5543 49.4212L47.4779 52.6303L45.563 49.3473C40.9472 49.5209 36.3518 45.9107 34.6311 44.0838L38.9927 43.6989C41.6776 46.0555 44.7052 46.3789 45.8834 46.246C46.6017 46.3543 47.1401 45.3116 47.3195 44.7768C47.2101 45.4878 47.5829 45.9772 47.783 46.1331C49.5186 47.0868 53.5777 44.9291 55.3904 43.7311Z" fill="white"/>
<path d="M46.9719 23.0233C45.4968 30.7736 40.5889 35.9872 38.3194 37.6253C43.8797 34.8172 52.2675 36.4552 55.7664 37.6253C51.7947 35.9404 48.2486 27.1886 46.9719 23.0233Z" fill="white"/>
<path d="M37.752 34.8172C37.3265 32.1495 38.0357 26.1964 44.2769 23.7253C43.1894 26.6738 40.3619 33.02 37.752 34.8172Z" fill="white"/>
<path d="M49.3833 23.7253C51.9366 24.4273 56.816 27.6847 55.9082 35.098C54.3952 33.1791 50.972 28.2182 49.3833 23.7253Z" fill="white"/>
<path d="M40.4471 39.1697C42.4802 40.9482 47.9365 43.438 53.4969 39.1697C51.1328 38.6081 45.2131 37.8218 40.4471 39.1697Z" fill="white"/>
<path fill-rule="evenodd" clip-rule="evenodd" d="M495.974 13L523.256 25.9915C522.823 28.4815 520.723 33.7863 515.786 35.0855L510.915 32.812C510.265 32.812 508.576 33.2667 507.017 35.0855C507.017 31.2737 508.64 30.0994 510.356 29.0114C509.677 30.0824 509.132 30.6655 508.868 30.8632C511.234 33.5246 516.884 28.2168 513.171 26.6567C513.43 26.282 513.656 25.8505 513.838 25.3419C511.348 23.0684 505.718 19.3658 503.12 22.7436L495.974 13ZM511.564 25.9915C508.186 22.3538 505.068 26.9658 503.12 31.188C505.027 30.0438 506.038 29.6461 506.835 29.3325C508.075 28.845 508.797 28.5609 511.564 25.9915ZM525.855 31.188L513.838 38.6581L516.761 40.2821L523.256 36.3846C525.595 35.0855 525.963 32.3789 525.855 31.188ZM495 49.7009C496.299 44.396 500.262 33.5915 505.718 32.812C503.986 35.5185 501.171 41.5162 503.769 43.8547L495 49.7009ZM504.419 39.6325C505.679 37.5538 509.274 35.735 510.915 35.0855C511.694 34.7468 512.972 36.027 513.513 36.7094C511.174 37.2291 510.157 38.8746 509.94 39.6325L517.735 42.2308L522.607 38.9829L520.333 44.1795H523.581L524.88 42.8803L530.726 51.9744L504.419 39.6325ZM523.581 22.094C524.88 22.846 526.634 25.4578 523.256 29.8889C525.53 29.0228 530.662 24.9521 533 15.5983L523.581 22.094ZM524.88 18.5214C518.385 13.065 510.265 14.5157 507.017 15.9231C507.017 16.4644 507.732 17.6769 510.59 18.1966C514.487 17.1573 519.792 19.4957 521.957 20.7949C524.036 20.2752 524.772 19.0627 524.88 18.5214ZM525.855 41.5812C527.154 39.849 529.492 34.9556 528.453 29.2393C529.103 28.265 530.726 26.8359 532.026 28.9145C532.35 31.8376 532.221 38.7231 529.103 42.8803C528.345 43.3134 526.634 43.6598 525.855 41.5812ZM517.41 47.7521C509.875 47.7521 506.39 45.4776 506.043 45.1538C505.696 44.8301 501.452 45.8212 504.744 48.4017C508.035 50.9822 514.271 50.9278 517.41 50.6752C520.658 50.6752 519.034 47.7521 517.41 47.7521ZM499.222 21.7692C500.088 21.7692 501.821 22.3538 501.821 24.6923C500.521 26.641 498.183 31.7077 499.222 36.3846C498.681 37.4672 497.209 39.0479 495.65 36.7094C495.325 33.8946 495.585 26.9658 499.222 21.7692Z" fill="white"/>
<defs>
<filter id="filter0_b_975_2438" x="-33" y="-33" width="626" height="130" filterUnits="userSpaceOnUse" color-interpolation-filters="sRGB">
<feFlood flood-opacity="0" result="BackgroundImageFix"/>
<feGaussianBlur in="BackgroundImageFix" stdDeviation="16.5"/>
<feComposite in2="SourceAlpha" operator="in" result="effect1_backgroundBlur_975_2438"/>
<feBlend mode="normal" in="SourceGraphic" in2="effect1_backgroundBlur_975_2438" result="shape"/>
</filter>
</defs>
</svg>
