<svg width="48" height="40" viewBox="0 0 48 40" fill="none" xmlns="http://www.w3.org/2000/svg">
<path d="M2.48342 28.269L0.621472 35.2524C0.431018 35.9667 1.05472 36.6336 1.78017 36.4914L5.97 35.6697C7.25958 35.2442 7.65543 34.7307 7.93718 33.4574L15.5249 4.88676C15.7909 4.22914 16.3989 3.42126 17.492 3.38055H37.679C38.484 3.35717 38.8282 3.16816 39.3183 2.62726L40.103 1.66347C40.634 1.01122 40.1831 0.0348401 39.342 0.0325463C32.7478 0.0145627 12.7162 -0.0338637 11.7779 0.0386671C10.6538 0.125555 9.99803 0.509356 9.57649 1.78022C9.25042 2.76328 7.69121 8.64689 7.00173 11.2613C6.83461 11.895 7.31343 12.5119 7.9688 12.5119H8.06081C9.01851 12.5119 9.42841 13.7284 8.66602 14.308L5.80673 16.4818C5.6999 16.563 5.6223 16.6767 5.5856 16.8058C5.47304 17.2017 5.77039 17.5954 6.18197 17.5954H6.67394C7.6243 17.5954 8.03033 18.8031 7.273 19.3772L4.4725 21.5003C4.35031 21.5929 4.2629 21.724 4.22437 21.8724C4.11224 22.3044 4.43829 22.7259 4.88456 22.7259H5.38321C6.33685 22.7259 6.7493 23.9338 5.9948 24.5171L3.90201 26.1349C3.2079 26.6714 2.70945 27.4213 2.48342 28.269Z" fill="#262626"/>
<path d="M16.6958 6.76933L8.07769 39.1528C7.95765 39.5147 8.00141 39.7317 8.09917 39.8553C8.24378 40.0382 8.52101 39.9796 8.7506 39.9391L15.3375 38.7762C16.1869 38.713 16.7875 38.026 17.0785 37.5287C17.1764 37.3615 17.2362 37.1761 17.2863 36.9889L20.1634 26.2549C20.6321 24.5064 22.2168 23.2905 24.0271 23.2905H36.7891C37.7259 23.4035 38.3972 22.8669 38.6158 22.5845L43.4471 16.8829C43.6292 16.668 43.8909 16.4112 43.7755 16.1542C43.6964 15.9778 43.4599 15.9108 43.2995 15.9007H24.9921C24.6152 15.9007 24.225 15.8718 23.8985 15.6836C22.301 14.7627 23.9918 12.5117 25.4076 12.5117H40.4424C41.2668 12.5117 41.8788 12.0411 42.0817 11.8057L46.6227 6.40499C46.9936 5.96387 47.3418 5.12192 46.7655 5.12192C38.0069 5.09054 20.1618 5.04661 18.8503 5.12192C17.5389 5.19723 16.8675 6.25157 16.6958 6.76933Z" fill="#262626"/>
</svg>
