 <svg className='mt-1' width="50" height="50" viewBox="0 0 250 250" fill="none" xmlns="http://www.w3.org/2000/svg">
                        <path d="M242.768 107.57C253.468 107.57 251.292 144.197 242.768 144.197C234.244 144.197 170.223 144.197 170.223 144.197V107.57C170.223 107.57 232.068 107.57 242.768 107.57Z" fill="white" />
                        <path d="M170.709 107.621C183.06 123.497 180.234 131.349 170.639 145.263C170.639 145.263 139.61 138.012 138.461 126.503C137.312 114.995 170.709 107.621 170.709 107.621Z" fill="#582000" />
                        <path d="M106.53 7.30279C106.53 -3.50206 142.802 -1.30467 142.802 7.30278C142.802 15.9102 142.802 80.5567 142.802 80.5567H106.53C106.53 80.5567 106.53 18.1076 106.53 7.30279Z" fill="white" />
                        <path d="M106.58 80.0655C122.302 67.5941 130.078 70.4474 143.857 80.1363C143.857 80.1363 136.676 111.468 125.279 112.629C113.882 113.789 106.58 80.0655 106.58 80.0655Z" fill="#582000" />
                        <path d="M7.23215 144.066C-3.46818 144.066 -1.29205 107.439 7.23214 107.439C15.7563 107.439 79.7775 107.439 79.7775 107.439V144.066C79.7775 144.066 17.9325 144.066 7.23215 144.066Z" fill="white" />
                        <path d="M79.2909 144.015C66.9401 128.139 69.7658 120.287 79.361 106.373C79.361 106.373 110.39 113.624 111.539 125.133C112.688 136.641 79.2909 144.015 79.2909 144.015Z" fill="#582000" />
                        <path d="M142.672 242.697C142.672 253.502 106.4 251.305 106.4 242.697C106.4 234.09 106.4 169.443 106.4 169.443H142.672C142.672 169.443 142.672 231.892 142.672 242.697Z" fill="white" />
                        <path d="M142.622 169.934C126.9 182.406 119.124 179.553 105.344 169.864C105.344 169.864 112.525 138.532 123.922 137.371C135.319 136.211 142.622 169.934 142.622 169.934Z" fill="#582000" />
                    </svg>