<svg width="56" height="56" viewBox="0 0 56 56" fill="none" xmlns="http://www.w3.org/2000/svg">
<rect width="56" height="56" rx="12" fill="black"/>
<path fill-rule="evenodd" clip-rule="evenodd" d="M18.4981 26.0196C19.3011 23.819 23.197 22.8215 24.9219 22.5868L21.0475 30.1565C20.8744 28.9594 17.6104 25.5501 16 23.9951C16.7757 25.0266 17.3347 25.817 17.8736 26.6357C19.6154 29.2821 20.3036 30.9614 20.3717 31.4768C21.2996 32.3922 21.3532 35.6137 21.2639 37.1101C21.1926 41.1237 22.6022 44.709 23.316 46C21.1747 40.4372 22.1859 34.9389 22.9591 32.8851L27.8661 22.0587H28.5799L28.7583 21.8826H30.0074L30.1858 21.7066L33.2193 21.7946C35.1465 25.245 31.5241 32.445 29.4721 35.6137C32.0417 32.8675 35.658 25.9022 37.145 22.7628C38.9676 19.1716 39.8077 13.2274 40 10.7042C39.2862 14.9291 36.8015 19.2714 35.6483 20.9144C34.0541 18.2572 33.534 14.6275 33.487 12.8166C30.2037 13.0279 28.5501 11.0269 28.1338 10C28.8475 13.9433 26.8252 18.9193 25.7249 20.9144C22.1561 22.1115 22.632 20.709 23.316 19.8582C20.9963 21.4425 19.2369 23.9951 18.4981 26.0196ZM29.1895 20.1647L31.8831 19.8056C32.0106 19.7886 32.0808 19.651 32.0151 19.5418C31.4137 18.5424 30.1662 16.8104 28.9202 16.1117C28.8051 16.0472 28.6691 16.1331 28.6691 16.2637V16.7254C28.6691 16.7594 28.6789 16.7928 28.6973 16.8215L29.6848 18.3641C29.7189 18.4173 29.7223 18.4843 29.6938 18.5407L29.0019 19.9059C28.9363 20.0351 29.0442 20.184 29.1895 20.1647Z" fill="white"/>
</svg>
