<svg xmlns="http://www.w3.org/2000/svg" width="60" height="29" viewBox="0 0 60 29" fill="none">
  <path d="M12.0732 0.266635C8.38717 -0.224318 4.63733 0.324282 1.24647 1.85057C0.254874 3.91951 -0.157281 6.21856 0.0538564 8.50312C0.258932 11.2961 0.682613 14.0687 1.32101 16.7955C5.05787 16.985 8.80431 16.7914 12.5018 16.2178C12.7778 14.859 12.7778 13.4585 12.5018 12.0996C10.3091 12.3043 8.10707 12.3914 5.90511 12.3605C5.48989 9.9721 5.64958 7.51917 6.37098 5.2048C8.14481 4.50018 10.0635 4.23796 11.9613 4.44078L12.0732 0.266635ZM13.0981 0.0802917V15.137C15.9853 15.1714 18.8689 14.9218 21.7072 14.3916V10.4597C20.3854 10.644 19.0538 10.7498 17.7194 10.7765L17.4026 0.0802917H13.0981ZM33.3725 0.471616C33.3725 0.471616 27.0181 -0.311037 24.4838 0.583423L24.0552 3.30407H24.8565L21.7072 14.3916H26.1423L26.5895 11.7269H30.8941L31.5277 14.4662H36.0372L33.3725 0.471616ZM27.4094 8.24223L28.5834 4.19853H29.3474L30.0742 8.24223H27.4094Z" fill="#582000"/>
  <path d="M45.075 0.0802849C41.9703 0.0141246 38.8803 0.52596 35.9627 1.58968C35.9627 1.58968 35.3292 5.44704 35.1242 8.18632C36.8431 8.67464 38.6014 9.01135 40.3791 9.19259V10.143C38.9815 10.8165 37.4378 11.1303 35.8882 11.056C35.6167 12.1513 35.6167 13.2963 35.8882 14.3916C39.0505 14.5976 42.2073 13.9133 45.0005 12.4164C45.4748 10.7396 45.6266 8.98798 45.4477 7.25459L40.2673 5.96881V4.10535L45.1309 3.39724L45.075 0.0802849ZM5.66291 20.0565H2.10371C1.86154 20.0565 1.62929 20.1528 1.45805 20.324C1.28681 20.4952 1.19061 20.7275 1.19061 20.9696V24.5102C1.19056 24.7541 1.28617 24.9883 1.45689 25.1625C1.62761 25.3367 1.85984 25.4371 2.10371 25.4419H5.66291C5.90678 25.4371 6.13901 25.3367 6.30973 25.1625C6.48045 24.9883 6.57605 24.7541 6.576 24.5102V20.9696C6.576 20.7275 6.4798 20.4952 6.30856 20.324C6.13733 20.1528 5.90508 20.0565 5.66291 20.0565ZM4.50757 23.6717C4.50757 23.7507 4.47615 23.8266 4.42024 23.8825C4.36433 23.9384 4.28849 23.9698 4.20941 23.9698H3.42676C3.34769 23.9698 3.27185 23.9384 3.21593 23.8825C3.16002 23.8266 3.12861 23.7507 3.12861 23.6717V21.9759C3.12847 21.895 3.15927 21.8171 3.21471 21.7582C3.27015 21.6993 3.34601 21.6639 3.42676 21.6591H4.20941C4.29016 21.6639 4.36603 21.6993 4.42146 21.7582C4.4769 21.8171 4.50771 21.895 4.50757 21.9759V23.6717Z" fill="#582000"/>
  <path d="M7.47047 21.0628V20.3547C7.47447 19.9794 7.60566 19.6165 7.8426 19.3254C8.07953 19.0343 8.4082 18.8322 8.77489 18.7521C9.4578 18.5828 10.1584 18.4953 10.862 18.4912V19.8702C10.862 19.8702 9.16621 19.9633 9.16621 20.9137H10.862V22.4977H9.16621V25.2742H7.30276V22.5163H6.55737V21.0255L7.47047 21.0628ZM21.5768 15.696V18.6589C20.3195 18.5991 19.0608 18.7439 17.8499 19.0875C17.2487 20.7968 17.0948 22.6315 17.4027 24.417C17.7568 25.3301 21.5768 25.032 21.5768 25.032V28.1439C19.3405 28.1873 17.107 27.9621 14.9243 27.4731C13.4335 26.8022 13.2472 24.8456 13.3963 21.8827C13.5453 18.9198 13.8249 17.4663 15.2597 16.5719C16.9182 15.4351 21.5768 15.696 21.5768 15.696Z" fill="#582000"/>
  <path d="M21.9309 15.6401H25.5646V24.5661H29.4406L29.012 27.8085H21.9309V15.6401Z" fill="#582000"/>
  <path d="M38.3665 15.8079L31.5463 15.6961L30.8754 18.3422H31.7512L29.4406 27.8085H32.6084L32.9439 25.8146H36.3353L36.9317 27.8085H40.3418L38.3665 15.8079ZM33.7638 22.5909L34.9005 18.659H35.1241L36.0372 22.5909H33.7638Z" fill="#582000"/>
  <path d="M40.6959 27.8085V15.9942L45.5782 15.8824L47.6653 21.2491V15.8824H50.8145V27.8085H46.2677L43.7334 22.4231V27.8085H40.6959Z" fill="#582000"/>
  <path d="M58.6038 15.137C56.5889 15.1794 54.5787 15.3474 52.5848 15.6402C52.063 15.8824 51.8208 16.2924 51.6903 17.8763C51.5599 19.4602 51.4108 21.0442 51.4108 21.0442C51.4108 21.0442 51.0754 22.3672 51.9698 22.5909C52.8643 22.8145 56.6844 23.2431 56.6844 23.2431V24.3425H51.4853L51.3549 27.4731C53.8291 27.8708 56.355 27.814 58.8087 27.3054C59.4237 27.0632 59.8336 26.9141 59.9082 26.1314C60.0992 24.4487 59.9919 22.7455 59.5914 21.1001C58.196 20.6751 56.7592 20.4002 55.3054 20.2802V18.659H58.5106L58.6038 15.137ZM45.7459 0.0802917L45.5782 14.8202H50.1809V9.50939C51.081 9.2027 52.0574 9.2027 52.9575 9.50939V14.783H57.0944V0.0802917H52.9947V4.73893L50.1437 4.83211V0.154828L45.7459 0.0802917Z" fill="#582000"/>
</svg>