<svg width="60" height="29" viewBox="0 0 60 29" fill="none" xmlns="http://www.w3.org/2000/svg">
<path d="M12.0732 0.192034C8.38717 -0.298919 4.63733 0.249682 1.24647 1.77597C0.254874 3.84491 -0.157281 6.14396 0.0538564 8.42852C0.258932 11.2215 0.682613 13.9941 1.32101 16.7209C5.05787 16.9104 8.80431 16.7168 12.5018 16.1432C12.7778 14.7844 12.7778 13.3839 12.5018 12.025C10.3091 12.2297 8.10707 12.3168 5.90511 12.2859C5.48989 9.8975 5.64958 7.44457 6.37098 5.1302C8.14481 4.42558 10.0635 4.16335 11.9613 4.36618L12.0732 0.192034ZM13.0981 0.00569153V15.0624C15.9853 15.0968 18.8689 14.8472 21.7072 14.317V10.3851C20.3854 10.5694 19.0538 10.6752 17.7194 10.7019L17.4026 0.00569153H13.0981ZM33.3725 0.397016C33.3725 0.397016 27.0181 -0.385637 24.4838 0.508822L24.0552 3.22947H24.8565L21.7072 14.317H26.1423L26.5895 11.6523H30.8941L31.5277 14.3916H36.0372L33.3725 0.397016ZM27.4094 8.16763L28.5834 4.12393H29.3474L30.0742 8.16763H27.4094Z" fill="black" fill-opacity="0.75"/>
<path d="M45.0751 0.00568469C41.9703 -0.0604756 38.8804 0.45136 35.9628 1.51508C35.9628 1.51508 35.3292 5.37244 35.1242 8.11172C36.8431 8.60004 38.6015 8.93675 40.3792 9.11799V10.0684C38.9816 10.7419 37.4379 11.0557 35.8883 10.9814C35.6168 12.0767 35.6168 13.2217 35.8883 14.317C39.0506 14.523 42.2074 13.8387 45.0006 12.3418C45.4749 10.665 45.6266 8.91338 45.4478 7.17999L40.2674 5.89421V4.03075L45.131 3.32264L45.0751 0.00568469ZM5.66297 19.9819H2.10377C1.8616 19.9819 1.62935 20.0781 1.45811 20.2494C1.28687 20.4206 1.19067 20.6529 1.19067 20.895V24.4356C1.19063 24.6795 1.28623 24.9137 1.45695 25.0879C1.62767 25.2621 1.8599 25.3625 2.10377 25.3673H5.66297C5.90684 25.3625 6.13907 25.2621 6.30979 25.0879C6.48051 24.9137 6.57611 24.6795 6.57606 24.4356V20.895C6.57606 20.6529 6.47986 20.4206 6.30863 20.2494C6.13739 20.0781 5.90514 19.9819 5.66297 19.9819ZM4.50763 23.5971C4.50763 23.6761 4.47622 23.752 4.4203 23.8079C4.36439 23.8638 4.28855 23.8952 4.20947 23.8952H3.42682C3.34775 23.8952 3.27191 23.8638 3.216 23.8079C3.16008 23.752 3.12867 23.6761 3.12867 23.5971V21.9013C3.12853 21.8204 3.15933 21.7425 3.21477 21.6836C3.27021 21.6247 3.34608 21.5893 3.42682 21.5845H4.20947C4.29022 21.5893 4.36609 21.6247 4.42153 21.6836C4.47696 21.7425 4.50777 21.8204 4.50763 21.9013V23.5971Z" fill="black" fill-opacity="0.75"/>
<path d="M7.47047 20.9882V20.2801C7.47447 19.9048 7.60566 19.5419 7.8426 19.2508C8.07953 18.9597 8.4082 18.7576 8.77489 18.6775C9.4578 18.5083 10.1584 18.4207 10.862 18.4166V19.7956C10.862 19.7956 9.16621 19.8888 9.16621 20.8391H10.862V22.4231H9.16621V25.1996H7.30276V22.4417H6.55737V20.9509L7.47047 20.9882ZM21.5768 15.6214V18.5843C20.3195 18.5245 19.0608 18.6693 17.8499 19.0129C17.2487 20.7222 17.0948 22.5569 17.4027 24.3424C17.7568 25.2555 21.5768 24.9574 21.5768 24.9574V28.0693C19.3405 28.1127 17.107 27.8875 14.9243 27.3985C13.4335 26.7276 13.2472 24.771 13.3963 21.8081C13.5453 18.8452 13.8249 17.3917 15.2597 16.4973C16.9182 15.3606 21.5768 15.6214 21.5768 15.6214Z" fill="black" fill-opacity="0.75"/>
<path d="M21.9309 15.5655H25.5646V24.4915H29.4406L29.012 27.7339H21.9309V15.5655Z" fill="black" fill-opacity="0.75"/>
<path d="M38.3666 15.7333L31.5464 15.6215L30.8755 18.2676H31.7514L29.4407 27.7339H32.6086L32.944 25.74H36.3355L36.9318 27.7339H40.3419L38.3666 15.7333ZM33.7639 22.5163L34.9006 18.5844H35.1242L36.0373 22.5163H33.7639Z" fill="black" fill-opacity="0.75"/>
<path d="M40.6958 27.7339V15.9196L45.5781 15.8078L47.6651 21.1745V15.8078H50.8144V27.7339H46.2675L43.7332 22.3485V27.7339H40.6958Z" fill="black" fill-opacity="0.75"/>
<path d="M58.6037 15.0624C56.5889 15.1048 54.5786 15.2728 52.5847 15.5656C52.063 15.8078 51.8207 16.2178 51.6903 17.8017C51.5598 19.3856 51.4107 20.9696 51.4107 20.9696C51.4107 20.9696 51.0753 22.2926 51.9698 22.5163C52.8642 22.7399 56.6843 23.1685 56.6843 23.1685V24.2679H51.4853L51.3548 27.3985C53.829 27.7962 56.3549 27.7394 58.8087 27.2308C59.4236 26.9886 59.8336 26.8395 59.9081 26.0568C60.0991 24.3741 59.9919 22.6709 59.5913 21.0255C58.1959 20.6005 56.7591 20.3256 55.3054 20.2056V18.5844H58.5105L58.6037 15.0624ZM45.7458 0.00569153L45.5781 14.7456H50.1809V9.43478C51.081 9.1281 52.0573 9.1281 52.9574 9.43478V14.7084H57.0943V0.00569153H52.9947V4.66433L50.1436 4.75751V0.080228L45.7458 0.00569153Z" fill="black" fill-opacity="0.75"/>
</svg>
