<svg xmlns="http://www.w3.org/2000/svg" width="85" height="29" viewBox="0 0 85 29" fill="none">
  <mask id="mask0_131_1148" style="mask-type:luminance" maskUnits="userSpaceOnUse" x="0" y="0" width="85" height="29">
    <path d="M85 0.263092H0V28.5262H85V0.263092Z" fill="white"/>
  </mask>
  <g mask="url(#mask0_131_1148)">
    <path fill-rule="evenodd" clip-rule="evenodd" d="M21.8238 19.4057H23.2054C24.0366 19.4057 24.7157 20.073 24.7157 20.9043V25.4236C24.7157 26.2548 24.0366 26.9222 23.2054 26.9222H21.8238V25.4587H22.6551C22.7019 25.4587 22.7604 25.447 22.8073 25.4236C22.8541 25.4002 22.9009 25.3767 22.9361 25.3416C22.9712 25.3065 23.0063 25.2597 23.018 25.2128C23.0414 25.166 23.0531 25.1192 23.0414 25.0606V21.2321C23.0414 21.0097 22.8658 20.834 22.6434 20.834H21.8121V19.4057H21.8238ZM20.1379 19.4057H21.5545V20.8692H20.6998C20.5945 20.8692 20.5008 20.916 20.4188 20.9863C20.3486 21.0565 20.3018 21.1619 20.3018 21.2672V25.1192C20.3018 25.3416 20.4774 25.5172 20.6998 25.5172H21.5545V26.9807H20.1379C19.9388 26.9807 19.7398 26.9456 19.5525 26.8637C19.3651 26.7817 19.2012 26.6763 19.0607 26.5241C18.9202 26.3836 18.8031 26.208 18.7329 26.0207C18.6627 25.8334 18.6275 25.6343 18.6275 25.4353V20.9043C18.6275 20.073 19.3066 19.4057 20.1261 19.4057H20.1379ZM60.6124 25.5172H63.9257V26.9807H60.6124V25.5172ZM60.6124 22.4849H63.352V23.9484H60.6124V22.4849ZM60.6124 19.4408H63.9257V20.916H60.6124V19.4408ZM58.5752 19.4408H60.2728V26.969H58.5752V19.4408ZM50.3211 25.5524H53.611V26.9573H50.3211V25.5524ZM48.3073 19.4408H50.0166V26.9573H48.2956L48.3073 19.4408ZM31.7171 19.394H33.965C34.9485 19.394 35.6626 20.155 35.5456 21.759C35.6158 22.2741 35.3817 22.7776 34.9368 23.0586V23.281C35.1475 23.4098 35.3231 23.6088 35.4285 23.8313C35.5339 24.0655 35.5807 24.3113 35.5456 24.5689C35.6626 26.1612 34.9602 26.9222 33.965 26.9339H31.7171V25.4704H33.4498C33.5084 25.4821 33.5669 25.4704 33.6255 25.4587C33.684 25.447 33.7308 25.4119 33.7777 25.365C33.8245 25.3182 33.8596 25.2714 33.8713 25.2128C33.8947 25.1543 33.8947 25.0958 33.8947 25.0372V24.2762C33.8947 24.0069 33.7542 23.8664 33.4967 23.8664H31.7288V22.4849H33.4967C33.7542 22.4849 33.8947 22.3561 33.8947 22.0751C33.8947 21.7941 33.8947 21.5834 33.8947 21.3141C33.9065 21.2555 33.8947 21.197 33.8713 21.1385C33.8479 21.0799 33.8128 21.0331 33.7777 20.9863C33.7308 20.9394 33.684 20.916 33.6255 20.8926C33.5669 20.8692 33.5084 20.8692 33.4498 20.8809H31.7171V19.394ZM29.715 19.394H31.4244V26.8871H29.715V19.394ZM40.8376 19.4291H42.5469V26.9573H40.8376V19.4291ZM11.954 19.394H13.6633V26.9222H11.9423V19.4057L11.954 19.394ZM10.2797 22.8244L11.6496 20.0028V23.7259L10.2095 26.0792L8.4767 22.7542V26.9222H6.76733V19.4057H8.4767L10.2797 22.8244Z" fill="#582000"/>
    <path fill-rule="evenodd" clip-rule="evenodd" d="M74.4394 17.7431L76.781 19.1012L79.1226 20.4476V23.1405V25.8333L76.781 27.1797L74.4394 28.5262L72.0978 27.1797L69.7562 25.8333V23.1405V20.4476L72.0978 19.1012L74.4394 17.7431Z" fill="#582000"/>
    <path fill-rule="evenodd" clip-rule="evenodd" d="M71.934 25.7982L71.2783 25.3533V20.9043L71.9691 20.4594L72.9877 21.0448V25.1426L71.934 25.7982ZM76.9333 25.7982L77.6006 25.3416V20.916L76.9333 20.4945L75.9147 21.0799V25.1777L76.9333 25.7982ZM75.5166 21.2672L74.4395 21.8878L73.3623 21.2672V23.9835L74.4161 24.5103L75.4698 23.9835V21.2672H75.5166Z" fill="white"/>
    <path fill-rule="evenodd" clip-rule="evenodd" d="M85.0001 0.579202L81.8389 10.3085V15.823H77.8582V10.3085L74.8258 0.579202H78.7714C79.3802 3.56474 79.7315 5.56681 79.8251 6.59711C80.071 4.9697 80.4691 2.96763 81.0193 0.579202H85.0001ZM74.3341 0.579202V3.62328H71.8052V15.8347H67.4966V3.62328H64.9443V0.579202H74.3341ZM64.0076 0.579202V10.7652C64.0311 11.5847 63.9842 12.3926 63.8906 13.2004C63.7852 13.739 63.5276 14.2541 63.1647 14.6639C62.7432 15.1674 62.1929 15.5654 61.5724 15.7879C60.8231 16.0572 60.0386 16.186 59.2425 16.1742C58.3527 16.186 57.4629 16.0337 56.6316 15.7293C55.976 15.4952 55.3906 15.0854 54.9339 14.5585C54.5827 14.1136 54.3485 13.5868 54.2666 13.0248C54.1963 12.4862 54.1612 11.3623 54.1612 9.64119V0.590909H58.4698V12.0179C58.4463 12.4511 58.4815 12.8726 58.5868 13.2941C58.622 13.3877 58.6922 13.4697 58.7859 13.5165C58.8795 13.5634 58.9732 13.5868 59.0786 13.5751C59.1839 13.5868 59.301 13.5634 59.3947 13.5165C59.4884 13.458 59.5586 13.376 59.6054 13.2824C59.7108 12.8023 59.7459 12.3106 59.7225 11.8189V0.590909L64.0076 0.579202ZM46.9842 3.17838V13.2121C47.593 13.2121 47.9677 13.095 48.1082 12.8726C48.3072 12.2638 48.3775 11.6315 48.3189 10.9993V5.07507C48.3306 4.63017 48.3072 4.18526 48.2487 3.75207C48.2253 3.6584 48.1901 3.57645 48.1316 3.5062C48.0731 3.43595 48.0028 3.3657 47.9209 3.33058C47.6282 3.20179 47.3003 3.15496 46.9842 3.17838ZM42.6757 0.579202H45.8954C47.3003 0.53237 48.717 0.614326 50.1103 0.836778C50.7425 0.953857 51.3162 1.25826 51.7845 1.70317C52.1474 2.06612 52.3933 2.53444 52.4987 3.03788C52.6158 3.99793 52.6626 4.9697 52.6392 5.94146V11.2803C52.686 12.1935 52.6041 13.1185 52.4284 14.02C52.3114 14.4532 52.0538 14.8278 51.7025 15.1088C51.3162 15.3781 50.8713 15.5654 50.4147 15.6591C49.6536 15.7762 48.8809 15.8347 48.1082 15.8113H42.6874L42.6757 0.579202ZM39.3272 4.33747H41.4932V5.44972H40.6151V6.51515H41.3995V7.58058H40.6151V9.92218H39.3272V4.33747ZM37.571 5.77755C37.5827 5.61364 37.571 5.44973 37.5359 5.28581C37.5125 5.21557 37.4539 5.16873 37.3837 5.18044C37.3485 5.18044 37.3251 5.19215 37.29 5.20386C37.2666 5.21557 37.2432 5.23898 37.2315 5.2741C37.1846 5.43802 37.1612 5.61364 37.1846 5.78926V8.40014C37.1729 8.59918 37.1846 8.79821 37.2198 8.99725C37.2315 9.03237 37.2432 9.06749 37.2783 9.09091C37.3017 9.11433 37.3485 9.12604 37.3837 9.11433C37.4188 9.11433 37.4539 9.10262 37.489 9.0792C37.5242 9.05579 37.5359 9.02066 37.5476 8.98554C37.5827 8.77479 37.5944 8.56405 37.5827 8.36501V5.77755H37.571ZM38.8472 7.60399V6.63223C38.8589 6.23416 38.8472 5.82438 38.812 5.42631C38.7886 5.19215 38.7067 4.98141 38.5896 4.78237C38.4725 4.59504 38.2969 4.44284 38.0979 4.33747C37.8754 4.2438 37.6412 4.18526 37.3954 4.19697C37.1378 4.18526 36.8919 4.2438 36.6695 4.34917C36.4705 4.45455 36.2948 4.60675 36.1777 4.79408C36.049 4.98141 35.9787 5.20386 35.967 5.43802C35.967 5.67218 35.9319 6.07025 35.9319 6.63223V7.60399C35.9202 8.00207 35.9319 8.41185 35.967 8.80992C35.9904 9.04408 36.0724 9.25482 36.1895 9.45386C36.3065 9.64119 36.4822 9.79339 36.6812 9.89876C36.9036 10.0041 37.1495 10.051 37.3954 10.0393C37.6412 10.0393 37.8988 9.99242 38.1213 9.88705C38.3203 9.78168 38.4959 9.62948 38.613 9.44215C38.7418 9.24311 38.812 9.03237 38.8355 8.79821C38.8355 8.57576 38.8472 8.16598 38.8472 7.60399ZM34.5972 0.567493V12.7789H37.1846V15.823H30.2769V0.579202L34.5972 0.567493ZM26.6474 0.567493V12.7789H29.2349V15.823H22.3272V0.579202L26.6474 0.567493ZM16.8479 10.3788C16.6371 8.64601 16.4264 6.51515 16.1922 3.96281C15.7707 6.88981 15.5014 9.03237 15.3844 10.3788H16.8479ZM19.1309 0.567493L21.5779 15.8113H17.164L16.9298 13.0716H15.4078L15.1853 15.8113H10.7246L12.9023 0.567493H19.1309ZM10.1626 7.22934H5.86576V4.58333C5.90089 4.0916 5.85406 3.59986 5.73698 3.11984C5.64331 2.93251 5.44428 2.83884 5.13987 2.83884C4.83546 2.83884 4.56618 2.95592 4.47251 3.19008C4.34373 3.68182 4.29689 4.18526 4.33202 4.6887V11.7837C4.29689 12.2755 4.34373 12.7672 4.47251 13.2472C4.54276 13.3526 4.63643 13.4346 4.7418 13.4931C5.08133 13.6804 5.51452 13.5751 5.72527 13.2472C5.85406 12.7204 5.9126 12.1818 5.87747 11.655V9.72314H10.186V10.3085C10.2328 11.4325 10.1041 12.5682 9.79965 13.657C9.48353 14.4063 8.92155 15.0152 8.20736 15.4015C7.27072 15.9284 6.217 16.186 5.13987 16.1391C4.06273 16.1742 2.99731 15.9635 2.02554 15.5069C1.27623 15.1556 0.690832 14.5351 0.398132 13.7624C0.0820167 12.6853 -0.0467704 11.5496 6.15139e-05 10.4256V5.97658C-0.0116465 5.14532 0.0234782 4.32576 0.12885 3.49449C0.222514 2.90909 0.480089 2.35882 0.854745 1.91391C1.29965 1.37534 1.88505 0.965565 2.54069 0.707989C3.32513 0.403581 4.1564 0.263086 4.98767 0.274794C6.08822 0.227962 7.17706 0.473831 8.16053 0.965566C8.88643 1.3051 9.47182 1.9022 9.79965 2.63981C10.1041 3.6584 10.2328 4.72383 10.186 5.78926V7.25275L10.1626 7.22934Z" fill="#582000"/>
    <path fill-rule="evenodd" clip-rule="evenodd" d="M83.5015 13.5868C83.0332 13.5868 82.6117 13.8678 82.4244 14.301C82.2488 14.7342 82.3424 15.2259 82.682 15.5654C83.1386 16.0221 83.8762 16.0221 84.3328 15.5771C84.7894 15.1205 84.7894 14.3829 84.3445 13.9263C84.1103 13.7039 83.8059 13.5868 83.5015 13.5868ZM83.5015 13.8092C84.0167 13.821 84.4264 14.2541 84.403 14.781C84.3913 15.2962 83.9581 15.7059 83.4313 15.6825C83.3259 15.6825 83.2205 15.6591 83.1269 15.624C82.9512 15.5537 82.8107 15.4249 82.7054 15.2727C82.6 15.1205 82.5415 14.9332 82.5532 14.7459C82.5532 14.5 82.6585 14.2541 82.8342 14.0785C82.9161 13.9966 83.0215 13.9263 83.1386 13.8795C83.2556 13.8327 83.3727 13.8092 83.5015 13.8092Z" fill="#582000"/>
    <path fill-rule="evenodd" clip-rule="evenodd" d="M83.2908 14.6639H83.4664C83.5367 14.6757 83.6069 14.6757 83.6772 14.6639C83.7006 14.6522 83.724 14.6405 83.7357 14.6171C83.7474 14.5937 83.7591 14.5586 83.7591 14.5234C83.7591 14.5117 83.7591 14.4883 83.7474 14.4766C83.7357 14.4649 83.7357 14.4415 83.724 14.4298C83.7123 14.4181 83.7006 14.4064 83.6889 14.3947C83.6772 14.3829 83.6537 14.383 83.642 14.383H83.3025L83.2908 14.6639ZM83.0566 15.3313V14.1839H83.5484C83.642 14.1839 83.7357 14.1956 83.8177 14.2073C83.8762 14.2307 83.923 14.2659 83.9582 14.3244C83.9933 14.383 84.005 14.4415 84.005 14.5C84.005 14.5352 84.005 14.582 83.9933 14.6171C83.9816 14.6522 83.9582 14.6874 83.9347 14.7225C83.8762 14.781 83.7942 14.8279 83.7123 14.8279C83.7591 14.8513 83.7942 14.8864 83.8294 14.9215C83.8762 14.9801 83.923 15.0386 83.9582 15.1088L84.0986 15.3313H83.8294L83.6655 15.0854C83.6303 15.0269 83.5952 14.9684 83.5484 14.9098C83.525 14.8864 83.5015 14.8747 83.4781 14.863H83.3259V15.3547L83.0566 15.3313Z" fill="#582000"/>
  </g>
</svg>