<svg width="85" height="29" viewBox="0 0 85 29" fill="none" xmlns="http://www.w3.org/2000/svg">
<mask id="mask0_131_1145" style="mask-type:luminance" maskUnits="userSpaceOnUse" x="0" y="0" width="85" height="29">
<path d="M85 0H0V28.2631H85V0Z" fill="white"/>
</mask>
<g mask="url(#mask0_131_1145)">
<path fill-rule="evenodd" clip-rule="evenodd" d="M21.8238 19.1426H23.2054C24.0366 19.1426 24.7157 19.8099 24.7157 20.6412V25.1605C24.7157 25.9918 24.0366 26.6591 23.2054 26.6591H21.8238V25.1956H22.6551C22.7019 25.1956 22.7604 25.1839 22.8073 25.1605C22.8541 25.1371 22.9009 25.1137 22.9361 25.0785C22.9712 25.0434 23.0063 24.9966 23.018 24.9497C23.0414 24.9029 23.0531 24.8561 23.0414 24.7975V20.969C23.0414 20.7466 22.8658 20.571 22.6434 20.571H21.8121V19.1426H21.8238ZM20.1379 19.1426H21.5545V20.6061H20.6998C20.5945 20.6061 20.5008 20.6529 20.4188 20.7232C20.3486 20.7934 20.3018 20.8988 20.3018 21.0042V24.8561C20.3018 25.0785 20.4774 25.2542 20.6998 25.2542H21.5545V26.7177H20.1379C19.9388 26.7177 19.7398 26.6825 19.5525 26.6006C19.3651 26.5186 19.2012 26.4132 19.0607 26.261C18.9202 26.1205 18.8031 25.9449 18.7329 25.7576C18.6627 25.5703 18.6275 25.3712 18.6275 25.1722V20.6412C18.6275 19.8099 19.3066 19.1426 20.1261 19.1426H20.1379ZM60.6124 25.2542H63.9257V26.7177H60.6124V25.2542ZM60.6124 22.2218H63.352V23.6853H60.6124V22.2218ZM60.6124 19.1777H63.9257V20.6529H60.6124V19.1777ZM58.5752 19.1777H60.2728V26.7059H58.5752V19.1777ZM50.3211 25.2893H53.611V26.6942H50.3211V25.2893ZM48.3073 19.1777H50.0166V26.6942H48.2956L48.3073 19.1777ZM31.7171 19.1309H33.965C34.9485 19.1309 35.6626 19.8919 35.5456 21.4959C35.6158 22.011 35.3817 22.5145 34.9368 22.7955V23.0179C35.1475 23.1467 35.3231 23.3458 35.4285 23.5682C35.5339 23.8024 35.5807 24.0482 35.5456 24.3058C35.6626 25.8981 34.9602 26.6591 33.965 26.6708H31.7171V25.2073H33.4498C33.5084 25.219 33.5669 25.2073 33.6255 25.1956C33.684 25.1839 33.7308 25.1488 33.7777 25.1019C33.8245 25.0551 33.8596 25.0083 33.8713 24.9497C33.8947 24.8912 33.8947 24.8327 33.8947 24.7741V24.0131C33.8947 23.7438 33.7542 23.6033 33.4967 23.6033H31.7288V22.2218H33.4967C33.7542 22.2218 33.8947 22.093 33.8947 21.812C33.8947 21.531 33.8947 21.3203 33.8947 21.051C33.9065 20.9924 33.8947 20.9339 33.8713 20.8754C33.8479 20.8168 33.8128 20.77 33.7777 20.7232C33.7308 20.6763 33.684 20.6529 33.6255 20.6295C33.5669 20.6061 33.5084 20.6061 33.4498 20.6178H31.7171V19.1309ZM29.715 19.1309H31.4244V26.624H29.715V19.1309ZM40.8376 19.166H42.5469V26.6942H40.8376V19.166ZM11.954 19.1309H13.6633V26.6591H11.9423V19.1426L11.954 19.1309ZM10.2797 22.5613L11.6496 19.7397V23.4628L10.2095 25.8161L8.4767 22.4911V26.6591H6.76733V19.1426H8.4767L10.2797 22.5613Z" fill="black" fill-opacity="0.74"/>
<path fill-rule="evenodd" clip-rule="evenodd" d="M74.4393 17.48L76.7809 18.8382L79.1225 20.1846V22.8774V25.5702L76.7809 26.9167L74.4393 28.2631L72.0977 26.9167L69.7561 25.5702V22.8774V20.1846L72.0977 18.8382L74.4393 17.48Z" fill="black" fill-opacity="0.74"/>
<path fill-rule="evenodd" clip-rule="evenodd" d="M71.934 25.5351L71.2783 25.0902V20.6412L71.9691 20.1963L72.9877 20.7817V24.8795L71.934 25.5351ZM76.9333 25.5351L77.6006 25.0785V20.6529L76.9333 20.2314L75.9147 20.8168V24.9146L76.9333 25.5351ZM75.5166 21.0041L74.4395 21.6247L73.3623 21.0041V23.7204L74.4161 24.2473L75.4698 23.7204V21.0041H75.5166Z" fill="white"/>
<path fill-rule="evenodd" clip-rule="evenodd" d="M85.0001 0.316118L81.8389 10.0455V15.5599H77.8582V10.0455L74.8258 0.316118H78.7714C79.3802 3.30165 79.7315 5.30372 79.8251 6.33402C80.071 4.70661 80.4691 2.70455 81.0193 0.316118H85.0001ZM74.3341 0.316118V3.36019H71.8052V15.5716H67.4966V3.36019H64.9443V0.316118H74.3341ZM64.0076 0.316118V10.5021C64.0311 11.3216 63.9842 12.1295 63.8906 12.9373C63.7852 13.4759 63.5276 13.991 63.1647 14.4008C62.7432 14.9043 62.1929 15.3023 61.5724 15.5248C60.8231 15.7941 60.0386 15.9229 59.2425 15.9112C58.3527 15.9229 57.4629 15.7707 56.6316 15.4663C55.976 15.2321 55.3906 14.8223 54.9339 14.2955C54.5827 13.8506 54.3485 13.3237 54.2666 12.7617C54.1963 12.2231 54.1612 11.0992 54.1612 9.3781V0.327825H58.4698V11.7548C58.4463 12.188 58.4815 12.6095 58.5868 13.031C58.622 13.1247 58.6922 13.2066 58.7859 13.2534C58.8795 13.3003 58.9732 13.3237 59.0786 13.312C59.1839 13.3237 59.301 13.3003 59.3947 13.2534C59.4884 13.1949 59.5586 13.1129 59.6054 13.0193C59.7108 12.5393 59.7459 12.0475 59.7225 11.5558V0.327825L64.0076 0.316118ZM46.9842 2.91529V12.949C47.593 12.949 47.9677 12.832 48.1082 12.6095C48.3072 12.0007 48.3775 11.3685 48.3189 10.7362V4.81198C48.3306 4.36708 48.3072 3.92218 48.2487 3.48898C48.2253 3.39532 48.1901 3.31336 48.1316 3.24311C48.0731 3.17287 48.0028 3.10262 47.9209 3.0675C47.6282 2.93871 47.3003 2.89187 46.9842 2.91529ZM42.6757 0.316118H45.8954C47.3003 0.269286 48.717 0.351241 50.1103 0.573693C50.7425 0.690773 51.3162 0.99518 51.7845 1.44008C52.1474 1.80303 52.3933 2.27135 52.4987 2.7748C52.6158 3.73485 52.6626 4.70661 52.6392 5.67838V11.0172C52.686 11.9304 52.6041 12.8554 52.4284 13.7569C52.3114 14.1901 52.0538 14.5647 51.7025 14.8457C51.3162 15.115 50.8713 15.3023 50.4147 15.396C49.6536 15.5131 48.8809 15.5716 48.1082 15.5482H42.6874L42.6757 0.316118ZM39.3272 4.07438H41.4932V5.18664H40.6151V6.25207H41.3995V7.3175H40.6151V9.65909H39.3272V4.07438ZM37.571 5.51447C37.5827 5.35055 37.571 5.18664 37.5359 5.02273C37.5125 4.95248 37.4539 4.90565 37.3837 4.91736C37.3485 4.91736 37.3251 4.92907 37.29 4.94077C37.2666 4.95248 37.2432 4.9759 37.2315 5.01102C37.1846 5.17493 37.1612 5.35055 37.1846 5.52617V8.13705C37.1729 8.33609 37.1846 8.53513 37.2198 8.73416C37.2315 8.76929 37.2432 8.80441 37.2783 8.82783C37.3017 8.85124 37.3485 8.86295 37.3837 8.85124C37.4188 8.85124 37.4539 8.83953 37.489 8.81612C37.5242 8.7927 37.5359 8.75758 37.5476 8.72245C37.5827 8.51171 37.5944 8.30096 37.5827 8.10193V5.51447H37.571ZM38.8472 7.34091V6.36915C38.8589 5.97108 38.8472 5.5613 38.812 5.16322C38.7886 4.92906 38.7067 4.71832 38.5896 4.51928C38.4725 4.33196 38.2969 4.17975 38.0979 4.07438C37.8754 3.98072 37.6412 3.92218 37.3954 3.93389C37.1378 3.92218 36.8919 3.98072 36.6695 4.08609C36.4705 4.19146 36.2948 4.34367 36.1777 4.53099C36.049 4.71832 35.9787 4.94077 35.967 5.17493C35.967 5.40909 35.9319 5.80716 35.9319 6.36915V7.34091C35.9202 7.73898 35.9319 8.14876 35.967 8.54683C35.9904 8.78099 36.0724 8.99174 36.1895 9.19077C36.3065 9.3781 36.4822 9.5303 36.6812 9.63568C36.9036 9.74105 37.1495 9.78788 37.3954 9.77617C37.6412 9.77617 37.8988 9.72934 38.1213 9.62397C38.3203 9.5186 38.4959 9.36639 38.613 9.17906C38.7418 8.98003 38.812 8.76929 38.8355 8.53513C38.8355 8.31267 38.8472 7.90289 38.8472 7.34091ZM34.5972 0.304409V12.5158H37.1846V15.5599H30.2769V0.316118L34.5972 0.304409ZM26.6474 0.304409V12.5158H29.2349V15.5599H22.3272V0.316118L26.6474 0.304409ZM16.8479 10.1157C16.6371 8.38292 16.4264 6.25207 16.1922 3.69973C15.7707 6.62672 15.5014 8.76929 15.3844 10.1157H16.8479ZM19.1309 0.304409L21.5779 15.5482H17.164L16.9298 12.8085H15.4078L15.1853 15.5482H10.7246L12.9023 0.304409H19.1309ZM10.1626 6.96626H5.86576V4.32025C5.90089 3.82851 5.85406 3.33678 5.73698 2.85675C5.64331 2.66942 5.44428 2.57576 5.13987 2.57576C4.83546 2.57576 4.56618 2.69284 4.47251 2.927C4.34373 3.41874 4.29689 3.92218 4.33202 4.42562V11.5207C4.29689 12.0124 4.34373 12.5041 4.47251 12.9842C4.54276 13.0895 4.63643 13.1715 4.7418 13.23C5.08133 13.4174 5.51452 13.312 5.72527 12.9842C5.85406 12.4573 5.9126 11.9187 5.87747 11.3919V9.46006H10.186V10.0455C10.2328 11.1694 10.1041 12.3051 9.79965 13.3939C9.48353 14.1433 8.92155 14.7521 8.20736 15.1384C7.27072 15.6653 6.217 15.9229 5.13987 15.876C4.06273 15.9112 2.99731 15.7004 2.02554 15.2438C1.27623 14.8926 0.690832 14.272 0.398132 13.4993C0.0820167 12.4222 -0.0467704 11.2865 6.15139e-05 10.1625V5.7135C-0.0116465 4.88223 0.0234782 4.06267 0.12885 3.23141C0.222514 2.64601 0.480089 2.09573 0.854745 1.65083C1.29965 1.11226 1.88505 0.70248 2.54069 0.444905C3.32513 0.140497 4.1564 1.40537e-06 4.98767 0.0117094C6.08822 -0.0351226 7.17706 0.210746 8.16053 0.702482C8.88643 1.04201 9.47182 1.63912 9.79965 2.37672C10.1041 3.39532 10.2328 4.46074 10.186 5.52617V6.98967L10.1626 6.96626Z" fill="black" fill-opacity="0.74"/>
<path fill-rule="evenodd" clip-rule="evenodd" d="M83.5015 13.3237C83.0332 13.3237 82.6117 13.6047 82.4244 14.0379C82.2488 14.4711 82.3424 14.9628 82.682 15.3023C83.1386 15.759 83.8762 15.759 84.3328 15.3141C84.7894 14.8574 84.7894 14.1198 84.3445 13.6632C84.1103 13.4408 83.8059 13.3237 83.5015 13.3237ZM83.5015 13.5462C84.0167 13.5579 84.4264 13.9911 84.403 14.5179C84.3913 15.0331 83.9581 15.4428 83.4313 15.4194C83.3259 15.4194 83.2205 15.396 83.1269 15.3609C82.9512 15.2906 82.8107 15.1619 82.7054 15.0096C82.6 14.8574 82.5415 14.6701 82.5532 14.4828C82.5532 14.2369 82.6585 13.9911 82.8342 13.8154C82.9161 13.7335 83.0215 13.6632 83.1386 13.6164C83.2556 13.5696 83.3727 13.5462 83.5015 13.5462Z" fill="black" fill-opacity="0.74"/>
<path fill-rule="evenodd" clip-rule="evenodd" d="M83.2908 14.4009H83.4664C83.5367 14.4126 83.6069 14.4126 83.6772 14.4009C83.7006 14.3891 83.724 14.3774 83.7357 14.354C83.7474 14.3306 83.7591 14.2955 83.7591 14.2604C83.7591 14.2486 83.7591 14.2252 83.7474 14.2135C83.7357 14.2018 83.7357 14.1784 83.724 14.1667C83.7123 14.155 83.7006 14.1433 83.6889 14.1316C83.6772 14.1199 83.6537 14.1199 83.642 14.1199H83.3025L83.2908 14.4009ZM83.0566 15.0682V13.9208H83.5484C83.642 13.9208 83.7357 13.9325 83.8177 13.9442C83.8762 13.9677 83.923 14.0028 83.9582 14.0613C83.9933 14.1199 84.005 14.1784 84.005 14.2369C84.005 14.2721 84.005 14.3189 83.9933 14.354C83.9816 14.3891 83.9582 14.4243 83.9347 14.4594C83.8762 14.5179 83.7942 14.5648 83.7123 14.5648C83.7591 14.5882 83.7942 14.6233 83.8294 14.6584C83.8762 14.717 83.923 14.7755 83.9582 14.8458L84.0986 15.0682H83.8294L83.6655 14.8223C83.6303 14.7638 83.5952 14.7053 83.5484 14.6467C83.525 14.6233 83.5015 14.6116 83.4781 14.5999H83.3259V15.0916L83.0566 15.0682Z" fill="black" fill-opacity="0.74"/>
</g>
</svg>
