<svg width="32" height="33" viewBox="0 0 32 33" fill="none" xmlns="http://www.w3.org/2000/svg">
<rect y="0.5" width="32" height="32" rx="16" fill="black"/>
<path d="M21.9998 13.8333C22.3535 13.8333 22.6926 13.9738 22.9426 14.2238C23.1927 14.4739 23.3332 14.813 23.3332 15.1666V17.8333C23.3332 18.1869 23.1927 18.5261 22.9426 18.7761C22.6926 19.0262 22.3535 19.1666 21.9998 19.1666H21.2918C21.1294 20.4556 20.5022 21.6409 19.5278 22.5001C18.5534 23.3594 17.299 23.8334 15.9998 23.8333V22.5C17.0607 22.5 18.0781 22.0785 18.8283 21.3284C19.5784 20.5783 19.9998 19.5608 19.9998 18.5V14.5C19.9998 13.4391 19.5784 12.4217 18.8283 11.6715C18.0781 10.9214 17.0607 10.5 15.9998 10.5C14.939 10.5 13.9216 10.9214 13.1714 11.6715C12.4213 12.4217 11.9998 13.4391 11.9998 14.5V19.1666H9.99984C9.64622 19.1666 9.30708 19.0262 9.05703 18.7761C8.80698 18.5261 8.6665 18.1869 8.6665 17.8333V15.1666C8.6665 14.813 8.80698 14.4739 9.05703 14.2238C9.30708 13.9738 9.64622 13.8333 9.99984 13.8333H10.7078C10.8705 12.5446 11.4979 11.3595 12.4722 10.5004C13.4465 9.64136 14.7009 9.16736 15.9998 9.16736C17.2988 9.16736 18.5531 9.64136 19.5275 10.5004C20.5018 11.3595 21.1292 12.5446 21.2918 13.8333H21.9998ZM13.1732 19.0233L13.8798 17.8926C14.5152 18.2907 15.2501 18.5013 15.9998 18.5C16.7496 18.5013 17.4845 18.2907 18.1198 17.8926L18.8265 19.0233C17.9794 19.5542 16.9995 19.835 15.9998 19.8333C15.0001 19.835 14.0203 19.5542 13.1732 19.0233Z" fill="white"/>
</svg>
