<svg width="267" height="266" viewBox="0 0 267 266" fill="none" xmlns="http://www.w3.org/2000/svg">
<g clip-path="url(#clip0_7044_10048)">
<path d="M179.182 0.228149H85.6112C85.1679 0.228149 84.8086 0.534562 84.8086 0.91254V20.4327C84.8086 20.8107 85.1679 21.1171 85.6112 21.1171H179.182C179.625 21.1171 179.985 20.8107 179.985 20.4327V0.91254C179.985 0.534562 179.625 0.228149 179.182 0.228149Z" stroke="white"/>
<path d="M100.094 7.3949H101.506V10.6252L103.304 7.3949H104.717L103.034 10.2091L104.742 15.0601H103.266L102.071 11.6436L101.506 12.6182V15.0601H100.094V7.3949ZM105.668 7.3949H107.44L108.814 11.9831H108.84V7.3949H110.098V15.0601H108.647L106.952 9.4645H106.927V15.0601H105.668V7.3949ZM113.447 15.1696C112.754 15.1696 112.223 15.0017 111.855 14.6659C111.486 14.3301 111.302 13.8556 111.302 13.2423V9.21265C111.302 8.59943 111.486 8.12492 111.855 7.78911C112.223 7.4533 112.754 7.2854 113.447 7.2854C114.14 7.2854 114.671 7.4533 115.039 7.78911C115.407 8.12492 115.592 8.59943 115.592 9.21265V13.2423C115.592 13.8556 115.407 14.3301 115.039 14.6659C114.671 15.0017 114.14 15.1696 113.447 15.1696ZM113.447 14.0746C113.935 14.0746 114.179 13.8227 114.179 13.319V9.13599C114.179 8.63228 113.935 8.38043 113.447 8.38043C112.959 8.38043 112.715 8.63228 112.715 9.13599V13.319C112.715 13.8227 112.959 14.0746 113.447 14.0746ZM118.794 15.1696C118.118 15.1696 117.6 15.0053 117.24 14.6768C116.889 14.3483 116.714 13.8848 116.714 13.2861V9.16884C116.714 8.57023 116.889 8.10667 117.24 7.77816C117.6 7.44965 118.118 7.2854 118.794 7.2854C119.47 7.2854 119.984 7.44965 120.335 7.77816C120.694 8.10667 120.874 8.57023 120.874 9.16884V9.97916H119.539V9.09219C119.539 8.61768 119.303 8.38043 118.832 8.38043C118.362 8.38043 118.126 8.61768 118.126 9.09219V13.3737C118.126 13.841 118.362 14.0746 118.832 14.0746C119.303 14.0746 119.539 13.841 119.539 13.3737V12.2021H120.874V13.2861C120.874 13.8848 120.694 14.3483 120.335 14.6768C119.984 15.0053 119.47 15.1696 118.794 15.1696ZM121.977 7.3949H123.389V10.6252L125.187 7.3949H126.6L124.917 10.2091L126.625 15.0601H125.148L123.954 11.6436L123.389 12.6182V15.0601H121.977V7.3949ZM129.392 15.1696C128.698 15.1696 128.167 15.0017 127.799 14.6659C127.431 14.3301 127.247 13.8556 127.247 13.2423V9.21265C127.247 8.59943 127.431 8.12492 127.799 7.78911C128.167 7.4533 128.698 7.2854 129.392 7.2854C130.085 7.2854 130.616 7.4533 130.984 7.78911C131.352 8.12492 131.536 8.59943 131.536 9.21265V13.2423C131.536 13.8556 131.352 14.3301 130.984 14.6659C130.616 15.0017 130.085 15.1696 129.392 15.1696ZM129.392 14.0746C129.88 14.0746 130.123 13.8227 130.123 13.319V9.13599C130.123 8.63228 129.88 8.38043 129.392 8.38043C128.904 8.38043 128.66 8.63228 128.66 9.13599V13.319C128.66 13.8227 128.904 14.0746 129.392 14.0746ZM134.803 15.1696C134.118 15.1696 133.596 15.0053 133.237 14.6768C132.877 14.341 132.697 13.8629 132.697 13.2423V7.3949H134.11V13.3299C134.11 13.5927 134.17 13.7826 134.29 13.8994C134.418 14.0162 134.598 14.0746 134.829 14.0746C135.06 14.0746 135.236 14.0162 135.355 13.8994C135.484 13.7826 135.548 13.5927 135.548 13.3299V7.3949H136.909V13.2423C136.909 13.8629 136.729 14.341 136.37 14.6768C136.01 15.0053 135.488 15.1696 134.803 15.1696ZM139.276 8.48993H137.8V7.3949H142.166V8.48993H140.689V15.0601H139.276V8.48993ZM147.256 15.1696C146.572 15.1696 146.054 15.0053 145.703 14.6768C145.352 14.341 145.176 13.8629 145.176 13.2423V12.8043H146.512V13.3299C146.512 13.8264 146.756 14.0746 147.244 14.0746C147.483 14.0746 147.663 14.0162 147.783 13.8994C147.911 13.7753 147.976 13.5781 147.976 13.308C147.976 12.9868 147.89 12.7058 147.719 12.4649C147.548 12.2167 147.231 11.921 146.768 11.5779C146.186 11.1399 145.78 10.7457 145.548 10.3953C145.317 10.0376 145.202 9.63606 145.202 9.19075C145.202 8.58483 145.382 8.11762 145.741 7.78911C146.101 7.4533 146.623 7.2854 147.308 7.2854C147.984 7.2854 148.494 7.4533 148.836 7.78911C149.187 8.11762 149.362 8.59213 149.362 9.21265V9.5302H148.027V9.13599C148.027 8.87319 147.967 8.68338 147.847 8.56658C147.727 8.44248 147.552 8.38043 147.321 8.38043C146.85 8.38043 146.614 8.62498 146.614 9.11409C146.614 9.3915 146.7 9.65066 146.871 9.89156C147.051 10.1325 147.372 10.4245 147.834 10.7676C148.425 11.2056 148.832 11.6035 149.054 11.9612C149.277 12.3189 149.388 12.7386 149.388 13.2204C149.388 13.8483 149.204 14.3301 148.836 14.6659C148.476 15.0017 147.95 15.1696 147.256 15.1696ZM151.559 8.48993H150.082V7.3949H154.448V8.48993H152.972V15.0601H151.559V8.48993ZM155.891 7.3949H157.805L159.269 15.0601H157.856L157.599 13.538V13.5599H155.994L155.737 15.0601H154.427L155.891 7.3949ZM157.432 12.5196L156.803 8.73083H156.777L156.161 12.5196H157.432ZM162.189 15.1696C161.504 15.1696 160.982 15.0053 160.622 14.6768C160.263 14.341 160.083 13.8629 160.083 13.2423V9.21265C160.083 8.59213 160.263 8.11762 160.622 7.78911C160.982 7.4533 161.504 7.2854 162.189 7.2854C162.874 7.2854 163.396 7.4533 163.756 7.78911C164.115 8.11762 164.295 8.59213 164.295 9.21265V9.86966H162.96V9.13599C162.96 8.63228 162.716 8.38043 162.228 8.38043C161.74 8.38043 161.496 8.63228 161.496 9.13599V13.3299C161.496 13.8264 161.74 14.0746 162.228 14.0746C162.716 14.0746 162.96 13.8264 162.96 13.3299V11.8298H162.253V10.7347H164.295V13.2423C164.295 13.8629 164.115 14.341 163.756 14.6768C163.396 15.0053 162.874 15.1696 162.189 15.1696ZM165.459 7.3949H169.311V8.48993H166.872V10.5157H168.811V11.6108H166.872V13.9651H169.311V15.0601H165.459V7.3949Z" fill="white"/>
<path d="M179.248 58.0742H85.6112C85.1679 58.0742 84.8086 58.3806 84.8086 58.7586V82.4842C84.8086 82.8621 85.1679 83.1686 85.6112 83.1686H179.248C179.692 83.1686 180.051 82.8621 180.051 82.4842V58.7586C180.051 58.3806 179.692 58.0742 179.248 58.0742Z" stroke="white"/>
<path d="M104.812 70.8806C104.17 70.8806 103.776 70.6361 103.63 70.1469C103.365 70.2345 103.052 70.2783 102.693 70.2783C101.999 70.2783 101.469 70.1104 101.101 69.7746C100.732 69.4388 100.548 68.9643 100.548 68.3511V64.3214C100.548 63.7082 100.732 63.2337 101.101 62.8979C101.469 62.5621 101.999 62.3942 102.693 62.3942C103.386 62.3942 103.917 62.5621 104.285 62.8979C104.653 63.2337 104.837 63.7082 104.837 64.3214V68.3511C104.837 68.8621 104.705 69.2819 104.439 69.6104C104.491 69.6834 104.555 69.7308 104.632 69.7527C104.709 69.7746 104.82 69.7856 104.966 69.7856H105.184V70.8806H104.812ZM102.693 69.1833C103.181 69.1833 103.425 68.9315 103.425 68.4278V64.2448C103.425 63.741 103.181 63.4892 102.693 63.4892C102.205 63.4892 101.961 63.741 101.961 64.2448V68.4278C101.961 68.9315 102.205 69.1833 102.693 69.1833ZM108.105 70.2783C107.42 70.2783 106.897 70.1141 106.538 69.7856C106.178 69.4498 105.999 68.9716 105.999 68.3511V62.5037H107.411V68.4387C107.411 68.7015 107.471 68.8913 107.591 69.0081C107.719 69.1249 107.899 69.1833 108.13 69.1833C108.361 69.1833 108.537 69.1249 108.657 69.0081C108.785 68.8913 108.849 68.7015 108.849 68.4387V62.5037H110.211V68.3511C110.211 68.9716 110.031 69.4498 109.671 69.7856C109.312 70.1141 108.789 70.2783 108.105 70.2783ZM112.54 62.5037H114.453L115.917 70.1688H114.505L114.248 68.6468V68.6687H112.643L112.386 70.1688H111.076L112.54 62.5037ZM114.081 67.6284L113.452 63.8396H113.426L112.809 67.6284H114.081ZM116.859 62.5037H118.272V69.0738H120.596V70.1688H116.859V62.5037ZM121.531 62.5037H122.943V70.1688H121.531V62.5037ZM124.258 62.5037H127.995V63.5987H125.67V65.734H127.494V66.829H125.67V70.1688H124.258V62.5037ZM128.929 62.5037H130.342V70.1688H128.929V62.5037ZM131.656 62.5037H135.509V63.5987H133.069V65.6245H135.008V66.7195H133.069V69.0738H135.509V70.1688H131.656V62.5037ZM136.578 62.5037H138.672C139.399 62.5037 139.93 62.6497 140.264 62.9417C140.598 63.2264 140.765 63.668 140.765 64.2667V64.7375C140.765 65.5332 140.457 66.0369 139.84 66.2487V66.2706C140.183 66.3582 140.422 66.537 140.559 66.8071C140.705 67.0772 140.778 67.4386 140.778 67.8912V69.2381C140.778 69.4571 140.786 69.6359 140.803 69.7746C140.82 69.906 140.863 70.0374 140.932 70.1688H139.493C139.442 70.0447 139.408 69.9279 139.391 69.8184C139.374 69.7089 139.365 69.5118 139.365 69.2271V67.8255C139.365 67.4751 139.297 67.2305 139.16 67.0918C139.031 66.9531 138.804 66.8838 138.479 66.8838H137.991V70.1688H136.578V62.5037ZM138.505 65.7887C138.787 65.7887 138.997 65.7267 139.134 65.6026C139.279 65.4785 139.352 65.2704 139.352 64.9784V64.3871C139.352 64.1097 139.292 63.9089 139.172 63.7848C139.061 63.6607 138.881 63.5987 138.633 63.5987H137.991V65.7887H138.505ZM146.165 70.2783C145.48 70.2783 144.962 70.1141 144.611 69.7856C144.26 69.4498 144.084 68.9716 144.084 68.3511V67.9131H145.42V68.4387C145.42 68.9351 145.664 69.1833 146.152 69.1833C146.392 69.1833 146.571 69.1249 146.691 69.0081C146.82 68.884 146.884 68.6869 146.884 68.4168C146.884 68.0956 146.798 67.8145 146.627 67.5736C146.456 67.3254 146.139 67.0298 145.677 66.6867C145.095 66.2487 144.688 65.8544 144.457 65.504C144.226 65.1463 144.11 64.7448 144.11 64.2995C144.11 63.6936 144.29 63.2264 144.649 62.8979C145.009 62.5621 145.531 62.3942 146.216 62.3942C146.892 62.3942 147.402 62.5621 147.744 62.8979C148.095 63.2264 148.271 63.7009 148.271 64.3214V64.639H146.935V64.2448C146.935 63.982 146.875 63.7921 146.755 63.6753C146.636 63.5512 146.46 63.4892 146.229 63.4892C145.758 63.4892 145.523 63.7337 145.523 64.2229C145.523 64.5003 145.608 64.7594 145.779 65.0003C145.959 65.2412 146.28 65.5332 146.743 65.8763C147.333 66.3144 147.74 66.7122 147.963 67.0699C148.185 67.4276 148.296 67.8474 148.296 68.3292C148.296 68.957 148.112 69.4388 147.744 69.7746C147.385 70.1104 146.858 70.2783 146.165 70.2783ZM150.467 63.5987H148.99V62.5037H153.357V63.5987H151.88V70.1688H150.467V63.5987ZM154.8 62.5037H156.713L158.177 70.1688H156.764L156.508 68.6468V68.6687H154.902L154.646 70.1688H153.336L154.8 62.5037ZM156.341 67.6284L155.711 63.8396H155.686L155.069 67.6284H156.341ZM161.097 70.2783C160.413 70.2783 159.89 70.1141 159.531 69.7856C159.171 69.4498 158.991 68.9716 158.991 68.3511V64.3214C158.991 63.7009 159.171 63.2264 159.531 62.8979C159.89 62.5621 160.413 62.3942 161.097 62.3942C161.782 62.3942 162.305 62.5621 162.664 62.8979C163.024 63.2264 163.203 63.7009 163.203 64.3214V64.9784H161.868V64.2448C161.868 63.741 161.624 63.4892 161.136 63.4892C160.648 63.4892 160.404 63.741 160.404 64.2448V68.4387C160.404 68.9351 160.648 69.1833 161.136 69.1833C161.624 69.1833 161.868 68.9351 161.868 68.4387V66.9385H161.162V65.8435H163.203V68.3511C163.203 68.9716 163.024 69.4498 162.664 69.7856C162.305 70.1141 161.782 70.2783 161.097 70.2783ZM164.367 62.5037H168.22V63.5987H165.78V65.6245H167.719V66.7195H165.78V69.0738H168.22V70.1688H164.367V62.5037Z" fill="white"/>
<path d="M123.321 75.3665H121.42V74.6365H124.246V75.3373L122.773 79.7466H121.814L123.321 75.3665ZM125.062 79.1918C125.062 78.8268 125.131 78.5151 125.268 78.2574C125.405 77.9946 125.65 77.7048 126.004 77.3886C126.352 77.0725 126.592 76.8023 126.723 76.5783C126.86 76.3543 126.928 76.1207 126.928 75.8775C126.928 75.6585 126.886 75.5075 126.8 75.4249C126.72 75.3373 126.6 75.2935 126.44 75.2935C126.115 75.2935 125.952 75.4614 125.952 75.7972V76.3447H125.062V75.8483C125.062 75.4345 125.182 75.1183 125.422 74.8993C125.661 74.6753 126.01 74.5635 126.466 74.5635C126.923 74.5635 127.271 74.6753 127.511 74.8993C127.75 75.1183 127.87 75.4345 127.87 75.8483C127.87 76.1599 127.782 76.4638 127.605 76.7608C127.434 77.0579 127.134 77.3982 126.706 77.7829C126.427 78.0361 126.238 78.2428 126.141 78.4034C126.044 78.559 125.995 78.7269 125.995 78.9071V79.0166H127.785V79.7466H125.062V79.1918ZM130.957 75.3665H129.972V74.6365H132.883V75.3665H131.899V79.7466H130.957V75.3665ZM133.51 74.6365H136.079V75.3665H134.452V76.717H135.745V77.447H134.452V79.0166H136.079V79.7466H133.51V74.6365ZM137.52 74.6365H138.795L139.771 79.7466H138.829L138.658 78.7319V78.7465H137.588L137.417 79.7466H136.544L137.52 74.6365ZM138.547 78.053L138.127 75.5271H138.11L137.699 78.053H138.547ZM140.399 74.6365H141.743L142.342 78.2939H142.359L142.959 74.6365H144.303V79.7466H143.412V75.8775H143.395L142.71 79.7466H141.923L141.238 75.8775H141.221V79.7466H140.399V74.6365ZM146.401 79.8196C145.945 79.8196 145.599 79.7101 145.365 79.4911C145.132 79.2671 145.014 78.9486 145.014 78.5348V78.2428H145.905V78.5932C145.905 78.924 146.067 79.0896 146.393 79.0896C146.553 79.0896 146.673 79.0508 146.752 78.9728C146.838 78.8902 146.881 78.7588 146.881 78.5786C146.881 78.3646 146.823 78.1771 146.709 78.0165C146.595 77.8508 146.384 77.6537 146.076 77.4251C145.688 77.1331 145.417 76.8703 145.263 76.6367C145.109 76.3981 145.031 76.1307 145.031 75.8337C145.031 75.4299 145.151 75.1183 145.391 74.8993C145.631 74.6753 145.979 74.5635 146.435 74.5635C146.887 74.5635 147.226 74.6753 147.454 74.8993C147.688 75.1183 147.805 75.4345 147.805 75.8483V76.06H146.915V75.7972C146.915 75.622 146.875 75.4956 146.795 75.4176C146.715 75.335 146.598 75.2935 146.444 75.2935C146.13 75.2935 145.973 75.4564 145.973 75.7826C145.973 75.9674 146.03 76.1403 146.144 76.3009C146.264 76.4615 146.478 76.6563 146.786 76.8849C147.18 77.1769 147.452 77.442 147.6 77.6806C147.748 77.9193 147.822 78.199 147.822 78.5202C147.822 78.9386 147.7 79.2598 147.454 79.4838C147.215 79.7078 146.864 79.8196 146.401 79.8196Z" fill="white"/>
<path d="M179.248 120.126H85.6112C85.1679 120.126 84.8086 120.432 84.8086 120.81V144.536C84.8086 144.914 85.1679 145.22 85.6112 145.22H179.248C179.692 145.22 180.051 144.914 180.051 144.536V120.81C180.051 120.432 179.692 120.126 179.248 120.126Z" stroke="white"/>
<path d="M111.099 132.33C110.415 132.33 109.897 132.165 109.546 131.837C109.195 131.501 109.019 131.023 109.019 130.402V129.964H110.355V130.49C110.355 130.987 110.599 131.235 111.087 131.235C111.326 131.235 111.506 131.176 111.626 131.06C111.754 130.935 111.819 130.738 111.819 130.468C111.819 130.147 111.733 129.866 111.562 129.625C111.39 129.377 111.074 129.081 110.611 128.738C110.029 128.3 109.623 127.906 109.391 127.555C109.16 127.198 109.045 126.796 109.045 126.351C109.045 125.745 109.225 125.278 109.584 124.949C109.944 124.613 110.466 124.446 111.151 124.446C111.827 124.446 112.336 124.613 112.679 124.949C113.03 125.278 113.205 125.752 113.205 126.373V126.69H111.87V126.296C111.87 126.033 111.81 125.844 111.69 125.727C111.57 125.603 111.395 125.541 111.164 125.541C110.693 125.541 110.457 125.785 110.457 126.274C110.457 126.552 110.543 126.811 110.714 127.052C110.894 127.293 111.215 127.585 111.677 127.928C112.268 128.366 112.675 128.764 112.897 129.121C113.12 129.479 113.231 129.899 113.231 130.381C113.231 131.008 113.047 131.49 112.679 131.826C112.319 132.162 111.793 132.33 111.099 132.33ZM114.298 124.555H118.151V125.65H115.711V127.676H117.65V128.771H115.711V131.125H118.151V132.22H114.298V124.555ZM119.22 124.555H121.236L122.135 130.041H122.161L123.06 124.555H125.076V132.22H123.74V126.417H123.715L122.687 132.22H121.506L120.479 126.417H120.453V132.22H119.22V124.555ZM126.387 124.555H127.799V132.22H126.387V124.555ZM131.222 127.84H134.047V128.935H131.222V127.84ZM137.459 124.555H141.196V125.65H138.872V127.785H140.695V128.88H138.872V132.22H137.459V124.555ZM142.13 124.555H143.543V132.22H142.13V124.555ZM144.858 124.555H146.63L148.004 129.143H148.03V124.555H149.288V132.22H147.837L146.142 126.625H146.117V132.22H144.858V124.555ZM151.687 124.555H153.6L155.064 132.22H153.651L153.395 130.698V130.72H151.789L151.533 132.22H150.223L151.687 124.555ZM153.228 129.68L152.598 125.891H152.573L151.956 129.68H153.228ZM156.006 124.555H157.418V131.125H159.743V132.22H156.006V124.555Z" fill="white"/>
<path d="M123.056 140.871H121.258V140.141L122.97 136.688H123.997V140.141H124.443V140.871H123.997V141.798H123.056V140.871ZM123.056 140.141V138.148H123.039L122.114 140.141H123.056ZM126.441 141.871C125.967 141.871 125.602 141.764 125.345 141.55C125.094 141.331 124.968 141.017 124.968 140.608V140.156C124.968 139.903 125.017 139.691 125.114 139.52C125.211 139.345 125.368 139.209 125.584 139.112V139.097C125.385 139.005 125.237 138.878 125.139 138.717C125.048 138.552 125.002 138.343 125.002 138.09V137.878C125.002 137.469 125.125 137.158 125.37 136.943C125.622 136.724 125.978 136.615 126.441 136.615C126.903 136.615 127.257 136.724 127.502 136.943C127.754 137.158 127.879 137.469 127.879 137.878V138.09C127.879 138.576 127.685 138.912 127.297 139.097V139.112C127.514 139.209 127.671 139.345 127.767 139.52C127.865 139.691 127.913 139.903 127.913 140.156V140.608C127.913 141.017 127.785 141.331 127.528 141.55C127.277 141.764 126.915 141.871 126.441 141.871ZM126.441 138.769C126.772 138.769 126.937 138.598 126.937 138.258V137.856C126.937 137.516 126.772 137.345 126.441 137.345C126.11 137.345 125.944 137.516 125.944 137.856V138.258C125.944 138.598 126.11 138.769 126.441 138.769ZM126.441 141.141C126.795 141.141 126.971 140.949 126.971 140.564V140.075C126.971 139.691 126.795 139.499 126.441 139.499C126.087 139.499 125.91 139.691 125.91 140.075V140.564C125.91 140.949 126.087 141.141 126.441 141.141ZM130.957 137.418H129.973V136.688H132.883V137.418H131.899V141.798H130.957V137.418ZM133.51 136.688H136.079V137.418H134.452V138.769H135.745V139.499H134.452V141.068H136.079V141.798H133.51V136.688ZM137.52 136.688H138.795L139.771 141.798H138.83L138.658 140.783V140.798H137.588L137.417 141.798H136.544L137.52 136.688ZM138.547 140.104L138.128 137.579H138.11L137.699 140.104H138.547ZM140.399 136.688H141.743L142.342 140.345H142.359L142.959 136.688H144.303V141.798H143.412V137.929H143.395L142.71 141.798H141.923L141.238 137.929H141.221V141.798H140.399V136.688ZM146.401 141.871C145.945 141.871 145.599 141.762 145.365 141.543C145.132 141.319 145.014 141 145.014 140.586V140.294H145.905V140.645C145.905 140.976 146.067 141.141 146.393 141.141C146.553 141.141 146.673 141.102 146.752 141.024C146.838 140.942 146.881 140.81 146.881 140.63C146.881 140.416 146.823 140.229 146.71 140.068C146.596 139.903 146.384 139.706 146.076 139.477C145.688 139.185 145.417 138.922 145.263 138.688C145.109 138.45 145.032 138.182 145.032 137.885C145.032 137.481 145.151 137.17 145.391 136.951C145.631 136.727 145.979 136.615 146.436 136.615C146.887 136.615 147.226 136.727 147.454 136.951C147.688 137.17 147.805 137.486 147.805 137.9V138.112H146.915V137.849C146.915 137.674 146.875 137.547 146.795 137.469C146.715 137.387 146.598 137.345 146.444 137.345C146.13 137.345 145.973 137.508 145.973 137.834C145.973 138.019 146.03 138.192 146.144 138.352C146.264 138.513 146.478 138.708 146.787 138.936C147.18 139.228 147.452 139.494 147.6 139.732C147.748 139.971 147.822 140.25 147.822 140.572C147.822 140.991 147.7 141.312 147.454 141.535C147.215 141.759 146.864 141.871 146.401 141.871Z" fill="white"/>
<path d="M179.248 182.177H85.6112C85.1679 182.177 84.8086 182.484 84.8086 182.862V206.587C84.8086 206.965 85.1679 207.271 85.6112 207.271H179.248C179.692 207.271 180.051 206.965 180.051 206.587V182.862C180.051 182.484 179.692 182.177 179.248 182.177Z" stroke="white"/>
<path d="M110.81 194.381C110.125 194.381 109.603 194.217 109.243 193.888C108.883 193.553 108.704 193.075 108.704 192.454V188.424C108.704 187.804 108.883 187.329 109.243 187.001C109.603 186.665 110.125 186.497 110.81 186.497C111.495 186.497 112.017 186.665 112.376 187.001C112.736 187.329 112.916 187.804 112.916 188.424V189.081H111.58V188.348C111.58 187.844 111.336 187.592 110.848 187.592C110.36 187.592 110.116 187.844 110.116 188.348V192.542C110.116 193.038 110.36 193.286 110.848 193.286C111.336 193.286 111.58 193.038 111.58 192.542V191.041H110.874V189.946H112.916V192.454C112.916 193.075 112.736 193.553 112.376 193.888C112.017 194.217 111.495 194.381 110.81 194.381ZM114.079 186.607H116.173C116.9 186.607 117.431 186.753 117.765 187.045C118.099 187.329 118.266 187.771 118.266 188.37V188.84C118.266 189.636 117.958 190.14 117.341 190.352V190.373C117.684 190.461 117.923 190.64 118.06 190.91C118.206 191.18 118.279 191.541 118.279 191.994V193.341C118.279 193.56 118.287 193.739 118.304 193.878C118.321 194.009 118.364 194.14 118.433 194.272H116.995C116.943 194.148 116.909 194.031 116.892 193.921C116.875 193.812 116.866 193.615 116.866 193.33V191.928C116.866 191.578 116.798 191.333 116.661 191.195C116.532 191.056 116.305 190.987 115.98 190.987H115.492V194.272H114.079V186.607ZM116.006 189.892C116.288 189.892 116.498 189.83 116.635 189.705C116.78 189.581 116.853 189.373 116.853 189.081V188.49C116.853 188.213 116.793 188.012 116.673 187.888C116.562 187.764 116.382 187.702 116.134 187.702H115.492V189.892H116.006ZM120.607 186.607H122.52L123.984 194.272H122.572L122.315 192.75V192.772H120.71L120.453 194.272H119.143L120.607 186.607ZM122.148 191.731L121.519 187.943H121.493L120.876 191.731H122.148ZM124.926 186.607H126.699L128.073 191.195H128.098V186.607H129.357V194.272H127.906L126.211 188.676H126.185V194.272H124.926V186.607ZM130.663 186.607H132.821C133.523 186.607 134.049 186.767 134.4 187.088C134.751 187.41 134.927 187.88 134.927 188.501V192.377C134.927 192.998 134.751 193.469 134.4 193.79C134.049 194.111 133.523 194.272 132.821 194.272H130.663V186.607ZM132.795 193.177C133.026 193.177 133.202 193.118 133.322 193.002C133.45 192.885 133.514 192.695 133.514 192.432V188.446C133.514 188.183 133.45 187.994 133.322 187.877C133.202 187.76 133.026 187.702 132.795 187.702H132.076V193.177H132.795ZM138.451 186.607H142.188V187.702H139.863V189.837H141.687V190.932H139.863V194.272H138.451V186.607ZM143.122 186.607H144.535V194.272H143.122V186.607ZM145.849 186.607H147.621L148.995 191.195H149.021V186.607H150.28V194.272H148.829L147.133 188.676H147.108V194.272H145.849V186.607ZM152.678 186.607H154.591L156.055 194.272H154.643L154.386 192.75V192.772H152.781L152.524 194.272H151.214L152.678 186.607ZM154.219 191.731L153.59 187.943H153.564L152.947 191.731H154.219ZM156.997 186.607H158.41V193.177H160.734V194.272H156.997V186.607Z" fill="white"/>
<path d="M121.463 203.295C121.463 202.93 121.531 202.619 121.668 202.36C121.805 202.097 122.051 201.808 122.405 201.492C122.753 201.175 122.993 200.905 123.124 200.681C123.261 200.458 123.329 200.224 123.329 199.98C123.329 199.761 123.286 199.611 123.201 199.528C123.121 199.44 123.001 199.396 122.841 199.396C122.516 199.396 122.353 199.564 122.353 199.9V200.448H121.463V199.951C121.463 199.538 121.583 199.221 121.822 199.002C122.062 198.779 122.411 198.666 122.867 198.666C123.323 198.666 123.672 198.779 123.911 199.002C124.151 199.221 124.271 199.538 124.271 199.951C124.271 200.263 124.183 200.567 124.006 200.864C123.834 201.161 123.535 201.502 123.107 201.886C122.827 202.139 122.638 202.346 122.542 202.506C122.445 202.662 122.396 202.83 122.396 203.01V203.119H124.185V203.849H121.463V203.295ZM126.654 202.922H124.856V202.192L126.569 198.739H127.596V202.192H128.041V202.922H127.596V203.849H126.654V202.922ZM126.654 202.192V200.199H126.637L125.712 202.192H126.654ZM130.957 199.469H129.972V198.739H132.883V199.469H131.898V203.849H130.957V199.469ZM133.51 198.739H136.078V199.469H134.452V200.82H135.744V201.55H134.452V203.119H136.078V203.849H133.51V198.739ZM137.519 198.739H138.795L139.771 203.849H138.829L138.658 202.835V202.849H137.588L137.417 203.849H136.543L137.519 198.739ZM138.547 202.156L138.127 199.63H138.11L137.699 202.156H138.547ZM140.398 198.739H141.743L142.342 202.397H142.359L142.958 198.739H144.302V203.849H143.412V199.98H143.395L142.71 203.849H141.922L141.237 199.98H141.22V203.849H140.398V198.739ZM146.401 203.923C145.944 203.923 145.599 203.813 145.365 203.594C145.131 203.37 145.014 203.052 145.014 202.638V202.346H145.904V202.696C145.904 203.027 146.067 203.192 146.392 203.192C146.552 203.192 146.672 203.154 146.752 203.076C146.838 202.993 146.88 202.862 146.88 202.681C146.88 202.467 146.823 202.28 146.709 202.119C146.595 201.954 146.384 201.757 146.076 201.528C145.688 201.236 145.416 200.973 145.262 200.74C145.108 200.501 145.031 200.234 145.031 199.937C145.031 199.533 145.151 199.221 145.391 199.002C145.63 198.779 145.979 198.666 146.435 198.666C146.886 198.666 147.225 198.779 147.454 199.002C147.688 199.221 147.805 199.538 147.805 199.951V200.163H146.915V199.9C146.915 199.725 146.874 199.599 146.795 199.521C146.715 199.438 146.598 199.396 146.444 199.396C146.13 199.396 145.973 199.56 145.973 199.886C145.973 200.071 146.03 200.243 146.144 200.404C146.264 200.564 146.478 200.759 146.786 200.988C147.18 201.28 147.451 201.545 147.599 201.784C147.748 202.022 147.822 202.302 147.822 202.623C147.822 203.042 147.7 203.363 147.454 203.587C147.214 203.811 146.863 203.923 146.401 203.923Z" fill="white"/>
<g filter="url(#filter0_d_7044_10048)">
<path d="M102.132 247.651H104.401L105.449 257.469H105.492L106.605 247.651H109.173L110.286 257.469H110.329L111.378 247.651H113.411L111.892 260.426H108.959L107.889 251.812H107.846L106.776 260.426H103.651L102.132 247.651ZM115.03 247.651H117.384V260.426H115.03V247.651ZM119.576 247.651H122.529L124.819 255.297H124.862V247.651H126.96V260.426H124.541L121.716 251.1H121.673V260.426H119.576V247.651ZM129.137 247.651H132.091L134.381 255.297H134.424V247.651H136.521V260.426H134.103L131.278 251.1H131.235V260.426H129.137V247.651ZM138.699 247.651H145.12V249.476H141.053V252.852H144.285V254.677H141.053V258.601H145.12V260.426H138.699V247.651ZM146.903 247.651H150.391C151.604 247.651 152.489 247.894 153.045 248.381C153.602 248.855 153.88 249.591 153.88 250.589V251.374C153.88 252.7 153.366 253.539 152.339 253.892V253.929C152.909 254.075 153.309 254.373 153.538 254.823C153.78 255.273 153.901 255.876 153.901 256.63V258.875C153.901 259.24 153.915 259.538 153.944 259.769C153.973 259.988 154.044 260.207 154.158 260.426H151.761C151.676 260.219 151.618 260.024 151.59 259.842C151.561 259.659 151.547 259.331 151.547 258.856V256.52C151.547 255.936 151.433 255.529 151.205 255.297C150.991 255.067 150.612 254.951 150.07 254.951H149.257V260.426H146.903V247.651ZM150.113 253.126C150.584 253.126 150.933 253.023 151.162 252.815C151.404 252.609 151.526 252.262 151.526 251.775V250.79C151.526 250.327 151.426 249.993 151.226 249.786C151.04 249.579 150.741 249.476 150.327 249.476H149.257V253.126H150.113ZM159.023 260.608C157.882 260.608 157.019 260.335 156.433 259.787C155.849 259.228 155.556 258.431 155.556 257.396V256.666H157.782V257.542C157.782 258.37 158.188 258.783 159.002 258.783C159.401 258.783 159.701 258.686 159.901 258.491C160.115 258.285 160.222 257.956 160.222 257.506C160.222 256.971 160.079 256.502 159.794 256.1C159.508 255.687 158.98 255.194 158.21 254.622C157.24 253.892 156.562 253.235 156.177 252.651C155.791 252.055 155.599 251.386 155.599 250.644C155.599 249.634 155.898 248.855 156.498 248.308C157.097 247.748 157.967 247.468 159.109 247.468C160.236 247.468 161.085 247.748 161.656 248.308C162.241 248.855 162.533 249.646 162.533 250.68V251.209H160.307V250.552C160.307 250.114 160.208 249.798 160.008 249.603C159.808 249.397 159.515 249.293 159.13 249.293C158.346 249.293 157.953 249.701 157.953 250.516C157.953 250.978 158.096 251.41 158.381 251.812C158.681 252.213 159.216 252.7 159.986 253.272C160.971 254.002 161.649 254.665 162.02 255.261C162.391 255.857 162.576 256.557 162.576 257.36C162.576 258.406 162.269 259.209 161.656 259.769C161.056 260.329 160.179 260.608 159.023 260.608Z" fill="white"/>
</g>
<path d="M53.5068 72.0892H53.2393V72.3173H53.5068V72.0892ZM81.8655 72.0892L79.1902 70.772V73.4064L81.8655 72.0892ZM53.5068 48.3636H53.2393V49.3524H53.5068H53.7743V48.3636H53.5068ZM53.5068 51.3293H53.2393V53.3063H53.5068H53.7743V51.3293H53.5068ZM53.5068 55.2838H53.2393V57.2607H53.5068H53.7743V55.2838H53.5068ZM53.5068 59.2377H53.2393V61.2151H53.5068H53.7743V59.2377H53.5068ZM53.5068 63.1921H53.2393V65.1691H53.5068H53.7743V63.1921H53.5068ZM53.5068 67.1465H53.2393V69.1235H53.5068H53.7743V67.1465H53.5068ZM53.5068 71.1005H53.2393V72.0892H53.5068H53.7743V71.1005H53.5068ZM53.5068 72.0892V72.3173H54.5197V72.0892V71.8611H53.5068V72.0892ZM56.5455 72.0892V72.3173H58.5707V72.0892V71.8611H56.5455V72.0892ZM60.5965 72.0892V72.3173H62.6223V72.0892V71.8611H60.5965V72.0892ZM64.6475 72.0892V72.3173H66.6733V72.0892V71.8611H64.6475V72.0892ZM68.699 72.0892V72.3173H70.7248V72.0892V71.8611H68.699V72.0892ZM72.7501 72.0892V72.3173H74.7758V72.0892V71.8611H72.7501V72.0892ZM76.8016 72.0892V72.3173H78.8268V72.0892V71.8611H76.8016V72.0892ZM53.5068 72.0892H53.2393V72.3173H53.5068V72.0892ZM81.8655 72.0892L79.1902 70.772V73.4064L81.8655 72.0892ZM53.5068 48.3636H53.2393V49.3524H53.5068H53.7743V48.3636H53.5068ZM53.5068 51.3293H53.2393V53.3063H53.5068H53.7743V51.3293H53.5068ZM53.5068 55.2838H53.2393V57.2607H53.5068H53.7743V55.2838H53.5068ZM53.5068 59.2377H53.2393V61.2151H53.5068H53.7743V59.2377H53.5068ZM53.5068 63.1921H53.2393V65.1691H53.5068H53.7743V63.1921H53.5068ZM53.5068 67.1465H53.2393V69.1235H53.5068H53.7743V67.1465H53.5068ZM53.5068 71.1005H53.2393V72.0892H53.5068H53.7743V71.1005H53.5068ZM53.5068 72.0892V72.3173H54.5197V72.0892V71.8611H53.5068V72.0892ZM56.5455 72.0892V72.3173H58.5707V72.0892V71.8611H56.5455V72.0892ZM60.5965 72.0892V72.3173H62.6223V72.0892V71.8611H60.5965V72.0892ZM64.6475 72.0892V72.3173H66.6733V72.0892V71.8611H64.6475V72.0892ZM68.699 72.0892V72.3173H70.7248V72.0892V71.8611H68.699V72.0892ZM72.7501 72.0892V72.3173H74.7758V72.0892V71.8611H72.7501V72.0892ZM76.8016 72.0892V72.3173H78.8268V72.0892V71.8611H76.8016V72.0892Z" fill="white"/>
<path d="M53.5068 11.8627V11.6345H53.2393V11.8627H53.5068ZM53.2393 33.307C53.2393 33.433 53.3591 33.5351 53.5068 33.5351C53.6545 33.5351 53.7743 33.433 53.7743 33.307H53.5068H53.2393ZM84.5409 11.8627V11.6345H83.4327V11.8627V12.0908H84.5409V11.8627ZM81.2159 11.8627V11.6345H78.9991V11.8627V12.0908H81.2159V11.8627ZM76.7823 11.8627V11.6345H74.5655V11.8627V12.0908H76.7823V11.8627ZM72.3488 11.8627V11.6345H70.132V11.8627V12.0908H72.3488V11.8627ZM67.9157 11.8627V11.6345H65.6989V11.8627V12.0908H67.9157V11.8627ZM63.4821 11.8627V11.6345H61.2653V11.8627V12.0908H63.4821V11.8627ZM59.0485 11.8627V11.6345H56.8317V11.8627V12.0908H59.0485V11.8627ZM54.6149 11.8627V11.6345H53.5068V11.8627V12.0908H54.6149V11.8627ZM53.5068 11.8627H53.2393V12.7561H53.5068H53.7743V11.8627H53.5068ZM53.5068 14.5432H53.2393V16.3302H53.5068H53.7743V14.5432H53.5068ZM53.5068 18.1173H53.2393V19.9043H53.5068H53.7743V18.1173H53.5068ZM53.5068 21.6913H53.2393V23.4783H53.5068H53.7743V21.6913H53.5068ZM53.5068 25.2654H53.2393V27.0524H53.5068H53.7743V25.2654H53.5068ZM53.5068 28.8394H53.2393V30.6265H53.5068H53.7743V28.8394H53.5068ZM53.5068 32.4135H53.2393V33.307H53.5068H53.7743V32.4135H53.5068ZM53.5068 11.8627V11.6345H53.2393V11.8627H53.5068ZM53.2393 33.307C53.2393 33.433 53.3591 33.5351 53.5068 33.5351C53.6545 33.5351 53.7743 33.433 53.7743 33.307H53.5068H53.2393ZM84.5409 11.8627V11.6345H83.4327V11.8627V12.0908H84.5409V11.8627ZM81.2159 11.8627V11.6345H78.9991V11.8627V12.0908H81.2159V11.8627ZM76.7823 11.8627V11.6345H74.5655V11.8627V12.0908H76.7823V11.8627ZM72.3488 11.8627V11.6345H70.132V11.8627V12.0908H72.3488V11.8627ZM67.9157 11.8627V11.6345H65.6989V11.8627V12.0908H67.9157V11.8627ZM63.4821 11.8627V11.6345H61.2653V11.8627V12.0908H63.4821V11.8627ZM59.0485 11.8627V11.6345H56.8317V11.8627V12.0908H59.0485V11.8627ZM54.6149 11.8627V11.6345H53.5068V11.8627V12.0908H54.6149V11.8627ZM53.5068 11.8627H53.2393V12.7561H53.5068H53.7743V11.8627H53.5068ZM53.5068 14.5432H53.2393V16.3302H53.5068H53.7743V14.5432H53.5068ZM53.5068 18.1173H53.2393V19.9043H53.5068H53.7743V18.1173H53.5068ZM53.5068 21.6913H53.2393V23.4783H53.5068H53.7743V21.6913H53.5068ZM53.5068 25.2654H53.2393V27.0524H53.5068H53.7743V25.2654H53.5068ZM53.5068 28.8394H53.2393V30.6265H53.5068H53.7743V28.8394H53.5068ZM53.5068 32.4135H53.2393V33.307H53.5068H53.7743V32.4135H53.5068Z" fill="white"/>
<path d="M37.7761 42.6421H35.5288V41.7296L37.6691 37.4134H38.9533V41.7296H39.5097V42.6421H38.9533V43.801H37.7761V42.6421ZM37.7761 41.7296V39.2384H37.7547L36.5989 41.7296H37.7761ZM42.0073 43.8923C41.4295 43.8923 40.9871 43.7524 40.6804 43.4725C40.3736 43.1927 40.2202 42.7973 40.2202 42.2863V38.9282C40.2202 38.4172 40.3736 38.0217 40.6804 37.7419C40.9871 37.4621 41.4295 37.3221 42.0073 37.3221C42.5852 37.3221 43.0275 37.4621 43.3343 37.7419C43.6411 38.0217 43.7945 38.4172 43.7945 38.9282V42.2863C43.7945 42.7973 43.6411 43.1927 43.3343 43.4725C43.0275 43.7524 42.5852 43.8923 42.0073 43.8923ZM42.0073 42.9798C42.414 42.9798 42.6173 42.7699 42.6173 42.3501V38.8643C42.6173 38.4445 42.414 38.2347 42.0073 38.2347C41.6007 38.2347 41.3973 38.4445 41.3973 38.8643V42.3501C41.3973 42.7699 41.6007 42.9798 42.0073 42.9798ZM47.6529 38.3259H46.4222V37.4134H50.0607V38.3259H48.83V43.801H47.6529V38.3259ZM50.8446 37.4134H54.0551V38.3259H52.0218V40.0141H53.6377V40.9266H52.0218V42.8885H54.0551V43.801H50.8446V37.4134ZM55.8561 37.4134H57.4506L58.6706 43.801H57.4934L57.2794 42.5326V42.5509H55.9417L55.7277 43.801H54.6362L55.8561 37.4134ZM57.1403 41.684L56.6159 38.5267H56.5945L56.0809 41.684H57.1403ZM59.4555 37.4134H61.1357L61.8848 41.9851H61.9062L62.6553 37.4134H64.3354V43.801H63.2224V38.9647H63.201L62.3449 43.801H61.3604L60.5043 38.9647H60.4829V43.801H59.4555V37.4134ZM66.9583 43.8923C66.3874 43.8923 65.9556 43.7554 65.6634 43.4817C65.3707 43.2018 65.2247 42.8033 65.2247 42.2863V41.9212H66.3376V42.3593C66.3376 42.773 66.5409 42.9798 66.9476 42.9798C67.1472 42.9798 67.297 42.9311 67.397 42.8338C67.5041 42.7303 67.5576 42.5661 67.5576 42.341C67.5576 42.0733 67.4859 41.8391 67.3435 41.6384C67.2007 41.4315 66.9369 41.1852 66.5516 40.8992C66.0663 40.5342 65.7276 40.2057 65.535 39.9137C65.3424 39.6156 65.2461 39.281 65.2461 38.9099C65.2461 38.405 65.3959 38.0157 65.6955 37.7419C65.9952 37.4621 66.4302 37.3221 67.0011 37.3221C67.5645 37.3221 67.9888 37.4621 68.2746 37.7419C68.5667 38.0157 68.7133 38.4111 68.7133 38.9282V39.1928H67.6004V38.8643C67.6004 38.6453 67.5501 38.4871 67.4506 38.3898C67.3505 38.2864 67.2044 38.2347 67.0118 38.2347C66.6191 38.2347 66.4232 38.4385 66.4232 38.8461C66.4232 39.0772 66.4944 39.2932 66.6373 39.4939C66.7871 39.6947 67.0546 39.938 67.4399 40.224C67.9321 40.589 68.2708 40.9205 68.4565 41.2186C68.6416 41.5167 68.7347 41.8665 68.7347 42.268C68.7347 42.7912 68.5812 43.1927 68.2746 43.4725C67.9749 43.7524 67.5362 43.8923 66.9583 43.8923Z" fill="white"/>
<path d="M53.5068 192.998H53.2393V193.226H53.5068V192.998ZM81.8655 192.998L79.1902 191.681V194.315L81.8655 192.998ZM53.5068 169.273H53.2393V170.261H53.5068H53.7743V169.273H53.5068ZM53.5068 172.238H53.2393V174.216H53.5068H53.7743V172.238H53.5068ZM53.5068 176.193H53.2393V178.17H53.5068H53.7743V176.193H53.5068ZM53.5068 180.147H53.2393V182.124H53.5068H53.7743V180.147H53.5068ZM53.5068 184.101H53.2393V186.079H53.5068H53.7743V184.101H53.5068ZM53.5068 188.056H53.2393V190.033H53.5068H53.7743V188.056H53.5068ZM53.5068 192.01H53.2393V192.998H53.5068H53.7743V192.01H53.5068ZM53.5068 192.998V193.226H54.5197V192.998V192.77H53.5068V192.998ZM56.5455 192.998V193.226H58.5707V192.998V192.77H56.5455V192.998ZM60.5965 192.998V193.226H62.6223V192.998V192.77H60.5965V192.998ZM64.6475 192.998V193.226H66.6733V192.998V192.77H64.6475V192.998ZM68.699 192.998V193.226H70.7248V192.998V192.77H68.699V192.998ZM72.7501 192.998V193.226H74.7758V192.998V192.77H72.7501V192.998ZM76.8016 192.998V193.226H78.8268V192.998V192.77H76.8016V192.998ZM53.5068 192.998H53.2393V193.226H53.5068V192.998ZM81.8655 192.998L79.1902 191.681V194.315L81.8655 192.998ZM53.5068 169.273H53.2393V170.261H53.5068H53.7743V169.273H53.5068ZM53.5068 172.238H53.2393V174.216H53.5068H53.7743V172.238H53.5068ZM53.5068 176.193H53.2393V178.17H53.5068H53.7743V176.193H53.5068ZM53.5068 180.147H53.2393V182.124H53.5068H53.7743V180.147H53.5068ZM53.5068 184.101H53.2393V186.079H53.5068H53.7743V184.101H53.5068ZM53.5068 188.056H53.2393V190.033H53.5068H53.7743V188.056H53.5068ZM53.5068 192.01H53.2393V192.998H53.5068H53.7743V192.01H53.5068ZM53.5068 192.998V193.226H54.5197V192.998V192.77H53.5068V192.998ZM56.5455 192.998V193.226H58.5707V192.998V192.77H56.5455V192.998ZM60.5965 192.998V193.226H62.6223V192.998V192.77H60.5965V192.998ZM64.6475 192.998V193.226H66.6733V192.998V192.77H64.6475V192.998ZM68.699 192.998V193.226H70.7248V192.998V192.77H68.699V192.998ZM72.7501 192.998V193.226H74.7758V192.998V192.77H72.7501V192.998ZM76.8016 192.998V193.226H78.8268V192.998V192.77H76.8016V192.998Z" fill="white"/>
<path d="M53.5068 132.772V132.544H53.2393V132.772H53.5068ZM53.2393 154.216C53.2393 154.342 53.3591 154.444 53.5068 154.444C53.6545 154.444 53.7743 154.342 53.7743 154.216H53.5068H53.2393ZM84.5409 132.772V132.544H83.4327V132.772V133H84.5409V132.772ZM81.2159 132.772V132.544H78.9991V132.772V133H81.2159V132.772ZM76.7823 132.772V132.544H74.5655V132.772V133H76.7823V132.772ZM72.3488 132.772V132.544H70.132V132.772V133H72.3488V132.772ZM67.9157 132.772V132.544H65.6989V132.772V133H67.9157V132.772ZM63.4821 132.772V132.544H61.2653V132.772V133H63.4821V132.772ZM59.0485 132.772V132.544H56.8317V132.772V133H59.0485V132.772ZM54.6149 132.772V132.544H53.5068V132.772V133H54.6149V132.772ZM53.5068 132.772H53.2393V133.665H53.5068H53.7743V132.772H53.5068ZM53.5068 135.452H53.2393V137.24H53.5068H53.7743V135.452H53.5068ZM53.5068 139.026H53.2393V140.813H53.5068H53.7743V139.026H53.5068ZM53.5068 142.601H53.2393V144.387H53.5068H53.7743V142.601H53.5068ZM53.5068 146.174H53.2393V147.962H53.5068H53.7743V146.174H53.5068ZM53.5068 149.749H53.2393V151.536H53.5068H53.7743V149.749H53.5068ZM53.5068 153.323H53.2393V154.216H53.5068H53.7743V153.323H53.5068ZM53.5068 132.772V132.544H53.2393V132.772H53.5068ZM53.2393 154.216C53.2393 154.342 53.3591 154.444 53.5068 154.444C53.6545 154.444 53.7743 154.342 53.7743 154.216H53.5068H53.2393ZM84.5409 132.772V132.544H83.4327V132.772V133H84.5409V132.772ZM81.2159 132.772V132.544H78.9991V132.772V133H81.2159V132.772ZM76.7823 132.772V132.544H74.5655V132.772V133H76.7823V132.772ZM72.3488 132.772V132.544H70.132V132.772V133H72.3488V132.772ZM67.9157 132.772V132.544H65.6989V132.772V133H67.9157V132.772ZM63.4821 132.772V132.544H61.2653V132.772V133H63.4821V132.772ZM59.0485 132.772V132.544H56.8317V132.772V133H59.0485V132.772ZM54.6149 132.772V132.544H53.5068V132.772V133H54.6149V132.772ZM53.5068 132.772H53.2393V133.665H53.5068H53.7743V132.772H53.5068ZM53.5068 135.452H53.2393V137.24H53.5068H53.7743V135.452H53.5068ZM53.5068 139.026H53.2393V140.813H53.5068H53.7743V139.026H53.5068ZM53.5068 142.601H53.2393V144.387H53.5068H53.7743V142.601H53.5068ZM53.5068 146.174H53.2393V147.962H53.5068H53.7743V146.174H53.5068ZM53.5068 149.749H53.2393V151.536H53.5068H53.7743V149.749H53.5068ZM53.5068 153.323H53.2393V154.216H53.5068H53.7743V153.323H53.5068Z" fill="white"/>
<path d="M37.4548 159.837H36.2241V159.125C36.5594 159.125 36.827 159.101 37.0267 159.052C37.2336 159.004 37.3977 158.925 37.519 158.815C37.6403 158.7 37.7473 158.536 37.84 158.322H38.6319V164.71H37.4548V159.837ZM42.0392 164.801C41.4613 164.801 41.0189 164.662 40.7122 164.382C40.4054 164.102 40.252 163.706 40.252 163.195V159.892C40.252 158.785 40.8513 158.231 42.0499 158.231C42.6206 158.231 43.0558 158.371 43.3554 158.651C43.6551 158.925 43.8049 159.32 43.8049 159.837V159.956H42.6919V159.773C42.6919 159.354 42.4886 159.144 42.082 159.144C41.8608 159.144 41.6967 159.202 41.5897 159.317C41.4827 159.433 41.4292 159.636 41.4292 159.928V161.151H41.4506C41.6575 160.78 42.0142 160.595 42.5207 160.595C42.9488 160.595 43.2734 160.72 43.4946 160.969C43.7157 161.218 43.8263 161.58 43.8263 162.055V163.195C43.8263 163.706 43.6729 164.102 43.3661 164.382C43.0594 164.662 42.617 164.801 42.0392 164.801ZM42.0392 163.889C42.4458 163.889 42.6491 163.682 42.6491 163.268V162.137C42.6491 161.717 42.4458 161.507 42.0392 161.507C41.6325 161.507 41.4292 161.717 41.4292 162.137V163.268C41.4292 163.682 41.6325 163.889 42.0392 163.889ZM47.6526 159.235H46.4219V158.322H50.0604V159.235H48.8297V164.71H47.6526V159.235ZM50.8443 158.322H54.0548V159.235H52.0215V160.923H53.6374V161.836H52.0215V163.798H54.0548V164.71H50.8443V158.322ZM55.8558 158.322H57.4504L58.6703 164.71H57.4932L57.2791 163.442V163.46H55.9415L55.7274 164.71H54.6359L55.8558 158.322ZM57.14 162.593L56.6156 159.436H56.5942L56.0806 162.593H57.14ZM59.4553 158.322H61.1354L61.8845 162.894H61.9059L62.655 158.322H64.3351V164.71H63.2222V159.874H63.2008L62.3446 164.71H61.3601L60.504 159.874H60.4826V164.71H59.4553V158.322ZM66.958 164.801C66.3871 164.801 65.9553 164.664 65.6631 164.391C65.3705 164.111 65.2244 163.713 65.2244 163.195V162.83H66.3373V163.268C66.3373 163.682 66.5407 163.889 66.9473 163.889C67.1469 163.889 67.2967 163.84 67.3968 163.743C67.5038 163.64 67.5573 163.475 67.5573 163.25C67.5573 162.983 67.4856 162.748 67.3433 162.547C67.2004 162.341 66.9366 162.094 66.5514 161.808C66.0661 161.443 65.7274 161.115 65.5347 160.823C65.3421 160.525 65.2458 160.19 65.2458 159.819C65.2458 159.314 65.3956 158.925 65.6952 158.651C65.9949 158.371 66.4299 158.231 67.0008 158.231C67.5643 158.231 67.9886 158.371 68.2743 158.651C68.5664 158.925 68.713 159.32 68.713 159.837V160.102H67.6001V159.773C67.6001 159.554 67.5498 159.397 67.4503 159.299C67.3502 159.196 67.2041 159.144 67.0115 159.144C66.6188 159.144 66.4229 159.348 66.4229 159.755C66.4229 159.986 66.4941 160.202 66.637 160.403C66.7868 160.604 67.0543 160.847 67.4396 161.133C67.9318 161.498 68.2705 161.83 68.4562 162.128C68.6413 162.426 68.7344 162.776 68.7344 163.177C68.7344 163.7 68.5809 164.102 68.2743 164.382C67.9746 164.662 67.5359 164.801 66.958 164.801Z" fill="white"/>
<path d="M211.353 130.947H211.62V131.175H211.353V130.947ZM182.994 130.947L185.669 129.63V132.264L182.994 130.947ZM211.353 107.221H211.62V108.21H211.353H211.085V107.221H211.353ZM211.353 110.187H211.62V112.164H211.353H211.085V110.187H211.353ZM211.353 114.141H211.62V116.118H211.353H211.085V114.141H211.353ZM211.353 118.096H211.62V120.073H211.353H211.085V118.096H211.353ZM211.353 122.05H211.62V124.027H211.353H211.085V122.05H211.353ZM211.353 126.004H211.62V127.981H211.353H211.085V126.004H211.353ZM211.353 129.959H211.62V130.947H211.353H211.085V129.959H211.353ZM211.353 130.947V131.175H210.34V130.947V130.719H211.353V130.947ZM208.314 130.947V131.175H206.289V130.947V130.719H208.314V130.947ZM204.263 130.947V131.175H202.237V130.947V130.719H204.263V130.947ZM200.212 130.947V131.175H198.186V130.947V130.719H200.212V130.947ZM196.161 130.947V131.175H194.135V130.947V130.719H196.161V130.947ZM192.11 130.947V131.175H190.084V130.947V130.719H192.11V130.947ZM188.058 130.947V131.175H186.033V130.947V130.719H188.058V130.947ZM211.353 130.947H211.62V131.175H211.353V130.947ZM182.994 130.947L185.669 129.63V132.264L182.994 130.947ZM211.353 107.221H211.62V108.21H211.353H211.085V107.221H211.353ZM211.353 110.187H211.62V112.164H211.353H211.085V110.187H211.353ZM211.353 114.141H211.62V116.118H211.353H211.085V114.141H211.353ZM211.353 118.096H211.62V120.073H211.353H211.085V118.096H211.353ZM211.353 122.05H211.62V124.027H211.353H211.085V122.05H211.353ZM211.353 126.004H211.62V127.981H211.353H211.085V126.004H211.353ZM211.353 129.959H211.62V130.947H211.353H211.085V129.959H211.353ZM211.353 130.947V131.175H210.34V130.947V130.719H211.353V130.947ZM208.314 130.947V131.175H206.289V130.947V130.719H208.314V130.947ZM204.263 130.947V131.175H202.237V130.947V130.719H204.263V130.947ZM200.212 130.947V131.175H198.186V130.947V130.719H200.212V130.947ZM196.161 130.947V131.175H194.135V130.947V130.719H196.161V130.947ZM192.11 130.947V131.175H190.084V130.947V130.719H192.11V130.947ZM188.058 130.947V131.175H186.033V130.947V130.719H188.058V130.947Z" fill="white"/>
<path d="M211.353 70.7204V70.4923H211.62V70.7204H211.353ZM211.62 92.1647C211.62 92.2906 211.501 92.3928 211.353 92.3928C211.205 92.3928 211.085 92.2906 211.085 92.1647H211.353H211.62ZM180.319 70.7204V70.4923H181.427V70.7204V70.9486H180.319V70.7204ZM183.644 70.7204V70.4923H185.861V70.7204V70.9486H183.644V70.7204ZM188.077 70.7204V70.4923H190.294V70.7204V70.9486H188.077V70.7204ZM192.511 70.7204V70.4923H194.728V70.7204V70.9486H192.511V70.7204ZM196.944 70.7204V70.4923H199.161V70.7204V70.9486H196.944V70.7204ZM201.378 70.7204V70.4923H203.594V70.7204V70.9486H201.378V70.7204ZM205.811 70.7204V70.4923H208.028V70.7204V70.9486H205.811V70.7204ZM210.245 70.7204V70.4923H211.353V70.7204V70.9486H210.245V70.7204ZM211.353 70.7204H211.62V71.6138H211.353H211.085V70.7204H211.353ZM211.353 73.401H211.62V75.1881H211.353H211.085V73.401H211.353ZM211.353 76.9749H211.62V78.762H211.353H211.085V76.9749H211.353ZM211.353 80.5492H211.62V82.3359H211.353H211.085V80.5492H211.353ZM211.353 84.1231H211.62V85.9103H211.353H211.085V84.1231H211.353ZM211.353 87.6974H211.62V89.4842H211.353H211.085V87.6974H211.353ZM211.353 91.2713H211.62V92.1647H211.353H211.085V91.2713H211.353ZM211.353 70.7204V70.4923H211.62V70.7204H211.353ZM211.62 92.1647C211.62 92.2906 211.501 92.3928 211.353 92.3928C211.205 92.3928 211.085 92.2906 211.085 92.1647H211.353H211.62ZM180.319 70.7204V70.4923H181.427V70.7204V70.9486H180.319V70.7204ZM183.644 70.7204V70.4923H185.861V70.7204V70.9486H183.644V70.7204ZM188.077 70.7204V70.4923H190.294V70.7204V70.9486H188.077V70.7204ZM192.511 70.7204V70.4923H194.728V70.7204V70.9486H192.511V70.7204ZM196.944 70.7204V70.4923H199.161V70.7204V70.9486H196.944V70.7204ZM201.378 70.7204V70.4923H203.594V70.7204V70.9486H201.378V70.7204ZM205.811 70.7204V70.4923H208.028V70.7204V70.9486H205.811V70.7204ZM210.245 70.7204V70.4923H211.353V70.7204V70.9486H210.245V70.7204ZM211.353 70.7204H211.62V71.6138H211.353H211.085V70.7204H211.353ZM211.353 73.401H211.62V75.1881H211.353H211.085V73.401H211.353ZM211.353 76.9749H211.62V78.762H211.353H211.085V76.9749H211.353ZM211.353 80.5492H211.62V82.3359H211.353H211.085V80.5492H211.353ZM211.353 84.1231H211.62V85.9103H211.353H211.085V84.1231H211.353ZM211.353 87.6974H211.62V89.4842H211.353H211.085V87.6974H211.353ZM211.353 91.2713H211.62V92.1647H211.353H211.085V91.2713H211.353Z" fill="white"/>
<path d="M196.307 101.965C196.307 101.509 196.392 101.12 196.563 100.797C196.735 100.469 197.041 100.107 197.484 99.7113C197.919 99.3161 198.218 98.9785 198.383 98.6984C198.554 98.4187 198.64 98.1267 198.64 97.8223C198.64 97.5486 198.586 97.3602 198.479 97.2566C198.379 97.1471 198.229 97.0923 198.03 97.0923C197.623 97.0923 197.42 97.3022 197.42 97.722V98.4064H196.307V97.7858C196.307 97.2689 196.456 96.8733 196.756 96.5996C197.056 96.3199 197.491 96.1798 198.062 96.1798C198.633 96.1798 199.068 96.3199 199.367 96.5996C199.667 96.8733 199.817 97.2689 199.817 97.7858C199.817 98.1755 199.706 98.5556 199.485 98.9265C199.271 99.2979 198.896 99.7236 198.361 100.204C198.012 100.521 197.776 100.779 197.655 100.98C197.534 101.174 197.473 101.384 197.473 101.609V101.746H199.71V102.659H196.307V101.965ZM202.796 101.5H200.549V100.587L202.689 96.2711H203.973V100.587H204.53V101.5H203.973V102.659H202.796V101.5ZM202.796 100.587V98.0961H202.775L201.619 100.587H202.796ZM208.174 97.1836H206.943V96.2711H210.582V97.1836H209.351V102.659H208.174V97.1836ZM211.366 96.2711H214.576V97.1836H212.543V98.8717H214.159V99.7843H212.543V101.746H214.576V102.659H211.366V96.2711ZM216.377 96.2711H217.972L219.192 102.659H218.014L217.8 101.39V101.409H216.463L216.249 102.659H215.157L216.377 96.2711ZM217.661 100.542L217.137 97.3843H217.116L216.602 100.542H217.661ZM219.977 96.2711H221.657L222.406 100.843H222.427L223.176 96.2711H224.856V102.659H223.743V97.8223H223.722L222.866 102.659H221.881L221.025 97.8223H221.004V102.659H219.977V96.2711ZM227.479 102.75C226.908 102.75 226.477 102.613 226.184 102.339C225.892 102.06 225.746 101.661 225.746 101.144V100.779H226.859V101.217C226.859 101.631 227.062 101.837 227.469 101.837C227.668 101.837 227.818 101.789 227.918 101.691C228.025 101.588 228.079 101.424 228.079 101.199C228.079 100.931 228.007 100.697 227.865 100.496C227.722 100.289 227.458 100.043 227.073 99.7569C226.587 99.3919 226.249 99.0634 226.056 98.7714C225.863 98.4734 225.767 98.139 225.767 97.7676C225.767 97.263 225.917 96.8733 226.217 96.5996C226.516 96.3199 226.951 96.1798 227.522 96.1798C228.086 96.1798 228.51 96.3199 228.796 96.5996C229.088 96.8733 229.234 97.2689 229.234 97.7858V98.0505H228.121V97.722C228.121 97.503 228.071 97.3451 227.972 97.2475C227.871 97.1443 227.725 97.0923 227.533 97.0923C227.14 97.0923 226.944 97.2963 226.944 97.7037C226.944 97.935 227.015 98.1509 227.158 98.3516C227.308 98.5524 227.576 98.796 227.961 99.0816C228.453 99.4466 228.792 99.7783 228.977 100.076C229.163 100.375 229.256 100.724 229.256 101.126C229.256 101.649 229.102 102.051 228.796 102.33C228.496 102.61 228.057 102.75 227.479 102.75Z" fill="white"/>
<path d="M134.838 242.274L137.927 237.712H131.748L134.838 242.274ZM134.838 207.599H134.302V208.055H134.838H135.373V207.599H134.838ZM134.838 208.967H134.302V209.88H134.838H135.373V208.967H134.838ZM134.838 210.792H134.302V211.705H134.838H135.373V210.792H134.838ZM134.838 212.618H134.302V213.53H134.838H135.373V212.618H134.838ZM134.838 214.443H134.302V215.355H134.838H135.373V214.443H134.838ZM134.838 216.268H134.302V217.18H134.838H135.373V216.268H134.838ZM134.838 218.093H134.302V219.005H134.838H135.373V218.093H134.838ZM134.838 219.918H134.302V220.83H134.838H135.373V219.918H134.838ZM134.838 221.743H134.302V222.655H134.838H135.373V221.743H134.838ZM134.838 223.568H134.302V224.48H134.838H135.373V223.568H134.838ZM134.838 225.393H134.302V226.305H134.838H135.373V225.393H134.838ZM134.838 227.218H134.302V228.13H134.838H135.373V227.218H134.838ZM134.838 229.043H134.302V229.955H134.838H135.373V229.043H134.838ZM134.838 230.868H134.302V231.78H134.838H135.373V230.868H134.838ZM134.838 232.693H134.302V233.605H134.838H135.373V232.693H134.838ZM134.838 234.518H134.302V235.431H134.838H135.373V234.518H134.838ZM134.838 236.343H134.302V237.256H134.838H135.373V236.343H134.838ZM134.838 238.168H134.302V239.081H134.838H135.373V238.168H134.838ZM134.838 239.993H134.302V240.906H134.838H135.373V239.993H134.838ZM134.838 242.274L137.927 237.712H131.748L134.838 242.274ZM134.838 207.599H134.302V208.055H134.838H135.373V207.599H134.838ZM134.838 208.967H134.302V209.88H134.838H135.373V208.967H134.838ZM134.838 210.792H134.302V211.705H134.838H135.373V210.792H134.838ZM134.838 212.618H134.302V213.53H134.838H135.373V212.618H134.838ZM134.838 214.443H134.302V215.355H134.838H135.373V214.443H134.838ZM134.838 216.268H134.302V217.18H134.838H135.373V216.268H134.838ZM134.838 218.093H134.302V219.005H134.838H135.373V218.093H134.838ZM134.838 219.918H134.302V220.83H134.838H135.373V219.918H134.838ZM134.838 221.743H134.302V222.655H134.838H135.373V221.743H134.838ZM134.838 223.568H134.302V224.48H134.838H135.373V223.568H134.838ZM134.838 225.393H134.302V226.305H134.838H135.373V225.393H134.838ZM134.838 227.218H134.302V228.13H134.838H135.373V227.218H134.838ZM134.838 229.043H134.302V229.955H134.838H135.373V229.043H134.838ZM134.838 230.868H134.302V231.78H134.838H135.373V230.868H134.838ZM134.838 232.693H134.302V233.605H134.838H135.373V232.693H134.838ZM134.838 234.518H134.302V235.431H134.838H135.373V234.518H134.838ZM134.838 236.343H134.302V237.256H134.838H135.373V236.343H134.838ZM134.838 238.168H134.302V239.081H134.838H135.373V238.168H134.838ZM134.838 239.993H134.302V240.906H134.838H135.373V239.993H134.838Z" fill="white"/>
<path d="M217.523 57.1056C217.061 57.1056 216.71 56.9961 216.47 56.7771C216.236 56.5581 216.119 56.2442 216.119 55.8354V55.4193H217.009V55.8719C217.009 56.2077 217.172 56.3756 217.497 56.3756C217.657 56.3756 217.777 56.3341 217.857 56.2515C217.943 56.1639 217.985 56.0129 217.985 55.7989V55.3828C217.985 55.1492 217.937 54.9835 217.84 54.8864C217.743 54.7842 217.586 54.7331 217.369 54.7331H217.052V54.003H217.395C217.583 54.003 217.723 53.9615 217.814 53.8789C217.911 53.7964 217.96 53.6576 217.96 53.4628V53.0905C217.96 52.9153 217.917 52.7862 217.831 52.7036C217.746 52.621 217.632 52.5795 217.489 52.5795C217.187 52.5795 217.035 52.7378 217.035 53.054V53.3898H216.145V53.1197C216.145 52.7109 216.262 52.397 216.496 52.178C216.736 51.959 217.078 51.8495 217.523 51.8495C217.974 51.8495 218.317 51.959 218.551 52.178C218.784 52.392 218.902 52.7036 218.902 53.1124V53.2949C218.902 53.5723 218.847 53.7964 218.739 53.9665C218.63 54.1322 218.462 54.2512 218.234 54.3242V54.3388C218.479 54.4169 218.656 54.5433 218.765 54.7185C218.873 54.8937 218.927 55.1177 218.927 55.3901V55.8427C218.927 56.2515 218.807 56.5654 218.568 56.7844C218.334 56.9984 217.985 57.1056 217.523 57.1056ZM219.769 56.4778C219.769 56.1128 219.838 55.8012 219.975 55.5434C220.112 55.2806 220.357 54.9908 220.711 54.6747C221.059 54.3585 221.299 54.0884 221.43 53.8643C221.567 53.6403 221.636 53.4067 221.636 53.1635C221.636 52.9445 221.593 52.7935 221.507 52.7109C221.428 52.6233 221.308 52.5795 221.148 52.5795C220.822 52.5795 220.66 52.7474 220.66 53.0832V53.6307H219.769V53.1343C219.769 52.7205 219.889 52.4043 220.129 52.1853C220.369 51.9613 220.717 51.8495 221.173 51.8495C221.63 51.8495 221.978 51.9613 222.218 52.1853C222.458 52.4043 222.577 52.7205 222.577 53.1343C222.577 53.4459 222.489 53.7498 222.312 54.0468C222.141 54.3439 221.841 54.6842 221.413 55.0689C221.134 55.3221 220.945 55.5288 220.848 55.6894C220.751 55.845 220.703 56.0129 220.703 56.1931V56.3026H222.492V57.0326H219.769V56.4778ZM225.664 52.6525H224.68V51.9225H227.591V52.6525H226.606V57.0326H225.664V52.6525ZM228.218 51.9225H230.786V52.6525H229.159V54.003H230.452V54.7331H229.159V56.3026H230.786V57.0326H228.218V51.9225ZM232.227 51.9225H233.503L234.478 57.0326H233.537L233.366 56.0179V56.0325H232.295L232.124 57.0326H231.251L232.227 51.9225ZM233.254 55.339L232.835 52.8131H232.818L232.407 55.339H233.254ZM235.106 51.9225H236.45L237.049 55.5799H237.067L237.666 51.9225H239.01V57.0326H238.12V53.1635H238.103L237.418 57.0326H236.63L235.945 53.1635H235.928V57.0326H235.106V51.9225ZM241.109 57.1056C240.652 57.1056 240.306 56.9961 240.073 56.7771C239.839 56.5531 239.722 56.2346 239.722 55.8208V55.5288H240.612V55.8792C240.612 56.21 240.775 56.3756 241.1 56.3756C241.26 56.3756 241.38 56.3368 241.46 56.2588C241.545 56.1762 241.588 56.0448 241.588 55.8646C241.588 55.6506 241.531 55.4631 241.417 55.3025C241.303 55.1368 241.091 54.9397 240.783 54.7112C240.395 54.4191 240.124 54.1563 239.97 53.9227C239.816 53.6841 239.739 53.4167 239.739 53.1197C239.739 52.7159 239.859 52.4043 240.098 52.1853C240.338 51.9613 240.686 51.8495 241.143 51.8495C241.594 51.8495 241.933 51.9613 242.162 52.1853C242.395 52.4043 242.513 52.7205 242.513 53.1343V53.346H241.622V53.0832C241.622 52.908 241.582 52.7816 241.502 52.7036C241.423 52.621 241.305 52.5795 241.151 52.5795C240.837 52.5795 240.68 52.7424 240.68 53.0686C240.68 53.2534 240.738 53.4263 240.852 53.5869C240.972 53.7475 241.186 53.9424 241.494 54.1709C241.888 54.4629 242.159 54.728 242.307 54.9667C242.455 55.2053 242.53 55.485 242.53 55.8062C242.53 56.2246 242.407 56.5458 242.162 56.7698C241.922 56.9938 241.571 57.1056 241.109 57.1056Z" fill="white"/>
<path d="M229.277 48.3637V48.5918H229.812V48.3637H229.545H229.277ZM229.545 35.5884H229.277V36.0446H229.545H229.812V35.5884H229.545ZM229.545 36.9572H229.277V37.8697H229.545H229.812V36.9572H229.545ZM229.545 38.7822H229.277V39.6947H229.545H229.812V38.7822H229.545ZM229.545 40.6072H229.277V41.5198H229.545H229.812V40.6072H229.545ZM229.545 42.4323H229.277V43.3448H229.545H229.812V42.4323H229.545ZM229.545 44.2573H229.277V45.1699H229.545H229.812V44.2573H229.545ZM229.545 46.0824H229.277V46.9949H229.545H229.812V46.0824H229.545ZM229.545 47.9074H229.277V48.3637H229.545H229.812V47.9074H229.545ZM229.277 48.3637V48.5918H229.812V48.3637H229.545H229.277ZM229.545 35.5884H229.277V36.0446H229.545H229.812V35.5884H229.545ZM229.545 36.9572H229.277V37.8697H229.545H229.812V36.9572H229.545ZM229.545 38.7822H229.277V39.6947H229.545H229.812V38.7822H229.545ZM229.545 40.6072H229.277V41.5198H229.545H229.812V40.6072H229.545ZM229.545 42.4323H229.277V43.3448H229.545H229.812V42.4323H229.545ZM229.545 44.2573H229.277V45.1699H229.545H229.812V44.2573H229.545ZM229.545 46.0824H229.277V46.9949H229.545H229.812V46.0824H229.545ZM229.545 47.9074H229.277V48.3637H229.545H229.812V47.9074H229.545Z" fill="white"/>
<path d="M229.545 64.3327V64.5609H229.813V64.3327H229.545ZM185.134 64.3327L187.81 65.65V63.0155L185.134 64.3327ZM229.545 59.7701H229.278V60.1502H229.545H229.813V59.7701H229.545ZM229.545 60.9108H229.278V61.6714H229.545H229.813V60.9108H229.545ZM229.545 62.4315H229.278V63.1921H229.545H229.813V62.4315H229.545ZM229.545 63.9527H229.278V64.3327H229.545H229.813V63.9527H229.545ZM229.545 64.3327V64.1046H229.016V64.3327V64.5609H229.545V64.3327ZM227.959 64.3327V64.1046H226.902V64.3327V64.5609H227.959V64.3327ZM225.844 64.3327V64.1046H224.787V64.3327V64.5609H225.844V64.3327ZM223.729 64.3327V64.1046H222.672V64.3327V64.5609H223.729V64.3327ZM221.615 64.3327V64.1046H220.557V64.3327V64.5609H221.615V64.3327ZM219.5 64.3327V64.1046H218.442V64.3327V64.5609H219.5V64.3327ZM217.385 64.3327V64.1046H216.328V64.3327V64.5609H217.385V64.3327ZM215.27 64.3327V64.1046H214.213V64.3327V64.5609H215.27V64.3327ZM213.155 64.3327V64.1046H212.098V64.3327V64.5609H213.155V64.3327ZM211.041 64.3327V64.1046H209.983V64.3327V64.5609H211.041V64.3327ZM208.926 64.3327V64.1046H207.868V64.3327V64.5609H208.926V64.3327ZM206.811 64.3327V64.1046H205.754V64.3327V64.5609H206.811V64.3327ZM204.696 64.3327V64.1046H203.639V64.3327V64.5609H204.696V64.3327ZM202.581 64.3327V64.1046H201.524V64.3327V64.5609H202.581V64.3327ZM200.467 64.3327V64.1046H199.409V64.3327V64.5609H200.467V64.3327ZM198.352 64.3327V64.1046H197.294V64.3327V64.5609H198.352V64.3327ZM196.237 64.3327V64.1046H195.18V64.3327V64.5609H196.237V64.3327ZM194.122 64.3327V64.1046H193.065V64.3327V64.5609H194.122V64.3327ZM192.007 64.3327V64.1046H190.95V64.3327V64.5609H192.007V64.3327ZM189.893 64.3327V64.1046H188.835V64.3327V64.5609H189.893V64.3327ZM187.778 64.3327V64.1046H186.72V64.3327V64.5609H187.778V64.3327ZM229.545 64.3327V64.5609H229.813V64.3327H229.545ZM185.134 64.3327L187.81 65.65V63.0155L185.134 64.3327ZM229.545 59.7701H229.278V60.1502H229.545H229.813V59.7701H229.545ZM229.545 60.9108H229.278V61.6714H229.545H229.813V60.9108H229.545ZM229.545 62.4315H229.278V63.1921H229.545H229.813V62.4315H229.545ZM229.545 63.9527H229.278V64.3327H229.545H229.813V63.9527H229.545ZM229.545 64.3327V64.1046H229.016V64.3327V64.5609H229.545V64.3327ZM227.959 64.3327V64.1046H226.902V64.3327V64.5609H227.959V64.3327ZM225.844 64.3327V64.1046H224.787V64.3327V64.5609H225.844V64.3327ZM223.729 64.3327V64.1046H222.672V64.3327V64.5609H223.729V64.3327ZM221.615 64.3327V64.1046H220.557V64.3327V64.5609H221.615V64.3327ZM219.5 64.3327V64.1046H218.442V64.3327V64.5609H219.5V64.3327ZM217.385 64.3327V64.1046H216.328V64.3327V64.5609H217.385V64.3327ZM215.27 64.3327V64.1046H214.213V64.3327V64.5609H215.27V64.3327ZM213.155 64.3327V64.1046H212.098V64.3327V64.5609H213.155V64.3327ZM211.041 64.3327V64.1046H209.983V64.3327V64.5609H211.041V64.3327ZM208.926 64.3327V64.1046H207.868V64.3327V64.5609H208.926V64.3327ZM206.811 64.3327V64.1046H205.754V64.3327V64.5609H206.811V64.3327ZM204.696 64.3327V64.1046H203.639V64.3327V64.5609H204.696V64.3327ZM202.581 64.3327V64.1046H201.524V64.3327V64.5609H202.581V64.3327ZM200.467 64.3327V64.1046H199.409V64.3327V64.5609H200.467V64.3327ZM198.352 64.3327V64.1046H197.294V64.3327V64.5609H198.352V64.3327ZM196.237 64.3327V64.1046H195.18V64.3327V64.5609H196.237V64.3327ZM194.122 64.3327V64.1046H193.065V64.3327V64.5609H194.122V64.3327ZM192.007 64.3327V64.1046H190.95V64.3327V64.5609H192.007V64.3327ZM189.893 64.3327V64.1046H188.835V64.3327V64.5609H189.893V64.3327ZM187.778 64.3327V64.1046H186.72V64.3327V64.5609H187.778V64.3327Z" fill="white"/>
<path d="M193.715 25.0944H192.484V24.1818H196.123V25.0944H194.892V30.5695H193.715V25.0944ZM196.907 24.1818H198.084V30.5695H196.907V24.1818ZM199.18 24.1818H202.39V25.0944H200.357V26.7825H201.973V27.695H200.357V29.657H202.39V30.5695H199.18V24.1818ZM203.281 24.1818H205.025C205.632 24.1818 206.074 24.3035 206.352 24.5468C206.631 24.7841 206.77 25.1522 206.77 25.651V26.0434C206.77 26.7065 206.513 27.1262 205.999 27.3027V27.3209C206.285 27.3939 206.484 27.543 206.598 27.768C206.72 27.9931 206.78 28.2942 206.78 28.6714V29.7938C206.78 29.9763 206.788 30.1254 206.802 30.241C206.816 30.3505 206.852 30.46 206.909 30.5695H205.71C205.667 30.466 205.639 30.3687 205.625 30.2775C205.611 30.1862 205.603 30.022 205.603 29.7847V28.6167C205.603 28.3247 205.547 28.1209 205.432 28.0053C205.325 27.8897 205.136 27.8319 204.865 27.8319H204.458V30.5695H203.281V24.1818ZM204.886 26.9194C205.122 26.9194 205.297 26.8677 205.411 26.7643C205.532 26.6608 205.593 26.4875 205.593 26.2441V25.7514C205.593 25.5202 205.543 25.3529 205.443 25.2495C205.35 25.146 205.2 25.0944 204.993 25.0944H204.458V26.9194H204.886ZM211.409 30.6607C210.831 30.6607 210.392 30.5239 210.092 30.2501C209.8 29.9763 209.654 29.584 209.654 29.0729V28.5528H210.767V29.1186C210.767 29.5383 210.97 29.7482 211.377 29.7482C211.576 29.7482 211.726 29.6965 211.826 29.5931C211.933 29.4836 211.987 29.295 211.987 29.0273V28.5072C211.987 28.2152 211.926 28.0084 211.805 27.8867C211.683 27.7589 211.487 27.695 211.216 27.695H210.82V26.7825H211.248C211.484 26.7825 211.659 26.7308 211.773 26.6274C211.894 26.524 211.955 26.3506 211.955 26.1072V25.6419C211.955 25.4229 211.901 25.2617 211.794 25.1582C211.687 25.0548 211.544 25.0031 211.366 25.0031C210.988 25.0031 210.799 25.2008 210.799 25.5962V26.016H209.686V25.6784C209.686 25.1674 209.832 24.775 210.125 24.5012C210.424 24.2275 210.852 24.0906 211.409 24.0906C211.972 24.0906 212.4 24.2275 212.693 24.5012C212.986 24.7689 213.132 25.1582 213.132 25.6692V25.8974C213.132 26.2441 213.064 26.524 212.928 26.7369C212.793 26.9437 212.582 27.0928 212.297 27.184V27.2023C212.604 27.2996 212.825 27.4578 212.96 27.6768C213.096 27.8958 213.164 28.1756 213.164 28.5163V29.0821C213.164 29.5931 213.014 29.9855 212.714 30.2592C212.422 30.5269 211.987 30.6607 211.409 30.6607ZM216.166 24.1818H217.343V30.5695H216.166V24.1818ZM218.438 24.1818H219.915L221.06 28.0053H221.082V24.1818H222.13V30.5695H220.921L219.509 25.9065H219.487V30.5695H218.438V24.1818ZM222.91 24.1818H224.097L224.868 29.1368H224.889L225.66 24.1818H226.741L225.606 30.5695H224.044L222.91 24.1818ZM227.52 24.1818H228.697V30.5695H227.52V24.1818ZM230.713 25.0944H229.482V24.1818H233.121V25.0944H231.89V30.5695H230.713V25.0944ZM233.905 24.1818H237.115V25.0944H235.082V26.7825H236.698V27.695H235.082V29.657H237.115V30.5695H233.905V24.1818ZM238.007 24.1818H239.804C240.389 24.1818 240.828 24.3157 241.121 24.5833C241.413 24.851 241.559 25.2434 241.559 25.7605V28.9908C241.559 29.5079 241.413 29.9003 241.121 30.168C240.828 30.4357 240.389 30.5695 239.804 30.5695H238.007V24.1818ZM239.783 29.657C239.976 29.657 240.122 29.6083 240.222 29.511C240.329 29.4136 240.382 29.2554 240.382 29.0364V25.7149C240.382 25.4959 240.329 25.3377 240.222 25.2404C240.122 25.143 239.976 25.0944 239.783 25.0944H239.184V29.657H239.783ZM245.416 25.0944H244.186V24.1818H247.824V25.0944H246.593V30.5695H245.416V25.0944ZM248.608 24.1818H251.818V25.0944H249.785V26.7825H251.401V27.695H249.785V29.657H251.818V30.5695H248.608V24.1818ZM253.619 24.1818H255.214L256.434 30.5695H255.257L255.043 29.3011V29.3193H253.705L253.491 30.5695H252.399L253.619 24.1818ZM254.904 28.4524L254.379 25.2951H254.358L253.844 28.4524H254.904ZM257.219 24.1818H258.899L259.648 28.7536H259.669L260.418 24.1818H262.099V30.5695H260.986V25.7331H260.964L260.108 30.5695H259.124L258.268 25.7331H258.246V30.5695H257.219V24.1818ZM264.722 30.6607C264.151 30.6607 263.719 30.5239 263.427 30.2501C263.134 29.9703 262.988 29.5718 262.988 29.0547V28.6897H264.101V29.1277C264.101 29.5414 264.304 29.7482 264.711 29.7482C264.91 29.7482 265.06 29.6995 265.16 29.6022C265.267 29.4988 265.321 29.3345 265.321 29.1094C265.321 28.8418 265.249 28.6076 265.107 28.4068C264.964 28.2 264.7 27.9536 264.315 27.6677C263.83 27.3027 263.491 26.9741 263.298 26.6821C263.106 26.3841 263.009 26.0494 263.009 25.6784C263.009 25.1734 263.159 24.7841 263.459 24.5103C263.758 24.2305 264.193 24.0906 264.764 24.0906C265.328 24.0906 265.752 24.2305 266.038 24.5103C266.33 24.7841 266.477 25.1795 266.477 25.6966V25.9612H265.364V25.6327C265.364 25.4137 265.313 25.2555 265.214 25.1582C265.114 25.0548 264.968 25.0031 264.775 25.0031C264.382 25.0031 264.186 25.2069 264.186 25.6145C264.186 25.8457 264.258 26.0616 264.4 26.2624C264.55 26.4631 264.818 26.7065 265.203 26.9924C265.695 27.3574 266.034 27.689 266.22 27.987C266.405 28.2851 266.498 28.6349 266.498 29.0364C266.498 29.5596 266.344 29.9611 266.038 30.241C265.738 30.5208 265.299 30.6607 264.722 30.6607Z" fill="#00FFA3"/>
<path d="M216.479 185.771C216.016 185.771 215.663 185.659 215.417 185.435C215.171 185.211 215.049 184.895 215.049 184.486V181.8C215.049 181.391 215.171 181.075 215.417 180.851C215.663 180.627 216.016 180.515 216.479 180.515C216.941 180.515 217.295 180.627 217.54 180.851C217.786 181.075 217.908 181.391 217.908 181.8V184.486C217.908 184.895 217.786 185.211 217.54 185.435C217.295 185.659 216.941 185.771 216.479 185.771ZM216.479 185.041C216.804 185.041 216.967 184.873 216.967 184.537V181.749C216.967 181.413 216.804 181.245 216.479 181.245C216.153 181.245 215.991 181.413 215.991 181.749V184.537C215.991 184.873 216.153 185.041 216.479 185.041ZM220.077 185.771C219.604 185.771 219.238 185.664 218.982 185.45C218.731 185.231 218.605 184.917 218.605 184.508V184.056C218.605 183.802 218.654 183.591 218.75 183.42C218.848 183.245 219.005 183.109 219.221 183.012V182.997C219.022 182.904 218.874 182.778 218.776 182.617C218.685 182.452 218.639 182.243 218.639 181.99V181.778C218.639 181.369 218.762 181.057 219.007 180.844C219.259 180.625 219.615 180.515 220.077 180.515C220.54 180.515 220.894 180.625 221.139 180.844C221.39 181.057 221.516 181.369 221.516 181.778V181.99C221.516 182.476 221.322 182.812 220.934 182.997V183.012C221.151 183.109 221.308 183.245 221.404 183.42C221.502 183.591 221.55 183.802 221.55 184.056V184.508C221.55 184.917 221.422 185.231 221.165 185.45C220.914 185.664 220.551 185.771 220.077 185.771ZM220.077 182.669C220.409 182.669 220.574 182.498 220.574 182.158V181.756C220.574 181.415 220.409 181.245 220.077 181.245C219.747 181.245 219.581 181.415 219.581 181.756V182.158C219.581 182.498 219.747 182.669 220.077 182.669ZM220.077 185.041C220.432 185.041 220.608 184.849 220.608 184.464V183.975C220.608 183.591 220.432 183.399 220.077 183.399C219.724 183.399 219.547 183.591 219.547 183.975V184.464C219.547 184.849 219.724 185.041 220.077 185.041ZM224.594 181.318H223.609V180.588H226.52V181.318H225.536V185.698H224.594V181.318ZM227.147 180.588H229.716V181.318H228.089V182.669H229.382V183.399H228.089V184.968H229.716V185.698H227.147V180.588ZM231.157 180.588H232.432L233.408 185.698H232.466L232.295 184.683V184.698H231.225L231.054 185.698H230.181L231.157 180.588ZM232.184 184.004L231.764 181.479H231.747L231.336 184.004H232.184ZM234.036 180.588H235.38L235.979 184.245H235.996L236.596 180.588H237.94V185.698H237.049V181.829H237.032L236.347 185.698H235.56L234.875 181.829H234.858V185.698H234.036V180.588ZM240.038 185.771C239.582 185.771 239.236 185.662 239.002 185.443C238.768 185.219 238.651 184.9 238.651 184.486V184.194H239.542V184.545C239.542 184.875 239.704 185.041 240.03 185.041C240.19 185.041 240.309 185.002 240.389 184.924C240.475 184.842 240.518 184.71 240.518 184.53C240.518 184.316 240.46 184.129 240.346 183.968C240.232 183.802 240.021 183.605 239.713 183.377C239.325 183.085 239.054 182.822 238.9 182.588C238.745 182.35 238.668 182.082 238.668 181.785C238.668 181.381 238.788 181.07 239.028 180.851C239.268 180.627 239.616 180.515 240.072 180.515C240.524 180.515 240.863 180.627 241.091 180.851C241.325 181.07 241.442 181.386 241.442 181.8V182.012H240.552V181.749C240.552 181.574 240.512 181.447 240.432 181.369C240.352 181.287 240.235 181.245 240.081 181.245C239.767 181.245 239.61 181.408 239.61 181.734C239.61 181.919 239.667 182.092 239.781 182.252C239.901 182.413 240.115 182.608 240.423 182.836C240.817 183.128 241.089 183.394 241.237 183.632C241.385 183.871 241.459 184.15 241.459 184.472C241.459 184.89 241.337 185.211 241.091 185.435C240.852 185.659 240.501 185.771 240.038 185.771Z" fill="white"/>
<path d="M228.208 177.029V177.257H228.743V177.029H228.475H228.208ZM228.475 164.254H228.208V164.71H228.475H228.743V164.254H228.475ZM228.475 165.623H228.208V166.535H228.475H228.743V165.623H228.475ZM228.475 167.448H228.208V168.36H228.475H228.743V167.448H228.475ZM228.475 169.273H228.208V170.185H228.475H228.743V169.273H228.475ZM228.475 171.098H228.208V172.01H228.475H228.743V171.098H228.475ZM228.475 172.923H228.208V173.835H228.475H228.743V172.923H228.475ZM228.475 174.748H228.208V175.66H228.475H228.743V174.748H228.475ZM228.475 176.573H228.208V177.029H228.475H228.743V176.573H228.475ZM228.208 177.029V177.257H228.743V177.029H228.475H228.208ZM228.475 164.254H228.208V164.71H228.475H228.743V164.254H228.475ZM228.475 165.623H228.208V166.535H228.475H228.743V165.623H228.475ZM228.475 167.448H228.208V168.36H228.475H228.743V167.448H228.475ZM228.475 169.273H228.208V170.185H228.475H228.743V169.273H228.475ZM228.475 171.098H228.208V172.01H228.475H228.743V171.098H228.475ZM228.475 172.923H228.208V173.835H228.475H228.743V172.923H228.475ZM228.475 174.748H228.208V175.66H228.475H228.743V174.748H228.475ZM228.475 176.573H228.208V177.029H228.475H228.743V176.573H228.475Z" fill="white"/>
<path d="M228.475 192.998V193.226H228.742V192.998H228.475ZM184.064 192.998L186.739 194.315V191.681L184.064 192.998ZM228.475 188.436H228.207V188.816H228.475H228.742V188.436H228.475ZM228.475 189.576H228.207V190.337H228.475H228.742V189.576H228.475ZM228.475 191.097H228.207V191.858H228.475H228.742V191.097H228.475ZM228.475 192.618H228.207V192.998H228.475H228.742V192.618H228.475ZM228.475 192.998V192.77H227.946V192.998V193.226H228.475V192.998ZM226.889 192.998V192.77H225.832V192.998V193.226H226.889V192.998ZM224.774 192.998V192.77H223.716V192.998V193.226H224.774V192.998ZM222.659 192.998V192.77H221.602V192.998V193.226H222.659V192.998ZM220.545 192.998V192.77H219.487V192.998V193.226H220.545V192.998ZM218.429 192.998V192.77H217.372V192.998V193.226H218.429V192.998ZM216.315 192.998V192.77H215.257V192.998V193.226H216.315V192.998ZM214.2 192.998V192.77H213.142V192.998V193.226H214.2V192.998ZM212.085 192.998V192.77H211.028V192.998V193.226H212.085V192.998ZM209.97 192.998V192.77H208.913V192.998V193.226H209.97V192.998ZM207.855 192.998V192.77H206.798V192.998V193.226H207.855V192.998ZM205.741 192.998V192.77H204.683V192.998V193.226H205.741V192.998ZM203.626 192.998V192.77H202.568V192.998V193.226H203.626V192.998ZM201.511 192.998V192.77H200.454V192.998V193.226H201.511V192.998ZM199.396 192.998V192.77H198.339V192.998V193.226H199.396V192.998ZM197.281 192.998V192.77H196.224V192.998V193.226H197.281V192.998ZM195.167 192.998V192.77H194.109V192.998V193.226H195.167V192.998ZM193.052 192.998V192.77H191.994V192.998V193.226H193.052V192.998ZM190.937 192.998V192.77H189.88V192.998V193.226H190.937V192.998ZM188.822 192.998V192.77H187.765V192.998V193.226H188.822V192.998ZM186.708 192.998V192.77H185.65V192.998V193.226H186.708V192.998ZM228.475 192.998V193.226H228.742V192.998H228.475ZM184.064 192.998L186.739 194.315V191.681L184.064 192.998ZM228.475 188.436H228.207V188.816H228.475H228.742V188.436H228.475ZM228.475 189.576H228.207V190.337H228.475H228.742V189.576H228.475ZM228.475 191.097H228.207V191.858H228.475H228.742V191.097H228.475ZM228.475 192.618H228.207V192.998H228.475H228.742V192.618H228.475ZM228.475 192.998V192.77H227.946V192.998V193.226H228.475V192.998ZM226.889 192.998V192.77H225.832V192.998V193.226H226.889V192.998ZM224.774 192.998V192.77H223.716V192.998V193.226H224.774V192.998ZM222.659 192.998V192.77H221.602V192.998V193.226H222.659V192.998ZM220.545 192.998V192.77H219.487V192.998V193.226H220.545V192.998ZM218.429 192.998V192.77H217.372V192.998V193.226H218.429V192.998ZM216.315 192.998V192.77H215.257V192.998V193.226H216.315V192.998ZM214.2 192.998V192.77H213.142V192.998V193.226H214.2V192.998ZM212.085 192.998V192.77H211.028V192.998V193.226H212.085V192.998ZM209.97 192.998V192.77H208.913V192.998V193.226H209.97V192.998ZM207.855 192.998V192.77H206.798V192.998V193.226H207.855V192.998ZM205.741 192.998V192.77H204.683V192.998V193.226H205.741V192.998ZM203.626 192.998V192.77H202.568V192.998V193.226H203.626V192.998ZM201.511 192.998V192.77H200.454V192.998V193.226H201.511V192.998ZM199.396 192.998V192.77H198.339V192.998V193.226H199.396V192.998ZM197.281 192.998V192.77H196.224V192.998V193.226H197.281V192.998ZM195.167 192.998V192.77H194.109V192.998V193.226H195.167V192.998ZM193.052 192.998V192.77H191.994V192.998V193.226H193.052V192.998ZM190.937 192.998V192.77H189.88V192.998V193.226H190.937V192.998ZM188.822 192.998V192.77H187.765V192.998V193.226H188.822V192.998ZM186.708 192.998V192.77H185.65V192.998V193.226H186.708V192.998Z" fill="white"/>
<path d="M192.645 153.76H191.415V152.847H195.053V153.76H193.822V159.235H192.645V153.76ZM195.837 152.847H197.014V159.235H195.837V152.847ZM198.11 152.847H201.32V153.76H199.287V155.448H200.903V156.361H199.287V158.322H201.32V159.235H198.11V152.847ZM202.211 152.847H203.956C204.562 152.847 205.004 152.969 205.282 153.212C205.561 153.45 205.7 153.818 205.7 154.317V154.709C205.7 155.372 205.443 155.792 204.929 155.968V155.986C205.215 156.059 205.415 156.209 205.529 156.434C205.65 156.659 205.711 156.96 205.711 157.337V158.459C205.711 158.642 205.718 158.791 205.732 158.907C205.746 159.016 205.782 159.126 205.839 159.235H204.64C204.598 159.131 204.569 159.034 204.555 158.943C204.541 158.852 204.533 158.687 204.533 158.45V157.282C204.533 156.99 204.477 156.786 204.362 156.671C204.255 156.555 204.066 156.497 203.795 156.497H203.388V159.235H202.211V152.847ZM203.816 155.585C204.052 155.585 204.227 155.533 204.341 155.43C204.462 155.326 204.523 155.153 204.523 154.91V154.417C204.523 154.186 204.473 154.019 204.373 153.915C204.28 153.811 204.13 153.76 203.923 153.76H203.388V155.585H203.816ZM210.318 154.362H209.087V153.65C209.422 153.65 209.69 153.626 209.889 153.577C210.097 153.529 210.26 153.45 210.382 153.34C210.503 153.225 210.61 153.06 210.703 152.847H211.495V159.235H210.318V154.362ZM215.096 152.847H216.273V159.235H215.096V152.847ZM217.369 152.847H218.845L219.991 156.671H220.012V152.847H221.061V159.235H219.851L218.439 154.572H218.417V159.235H217.369V152.847ZM221.84 152.847H223.028L223.798 157.802H223.819L224.59 152.847H225.671L224.536 159.235H222.974L221.84 152.847ZM226.45 152.847H227.627V159.235H226.45V152.847ZM229.643 153.76H228.413V152.847H232.051V153.76H230.82V159.235H229.643V153.76ZM232.835 152.847H236.045V153.76H234.012V155.448H235.628V156.361H234.012V158.322H236.045V159.235H232.835V152.847ZM236.937 152.847H238.735C239.319 152.847 239.758 152.981 240.051 153.249C240.343 153.517 240.49 153.909 240.49 154.426V157.656C240.49 158.173 240.343 158.566 240.051 158.833C239.758 159.101 239.319 159.235 238.735 159.235H236.937V152.847ZM238.713 158.322C238.906 158.322 239.052 158.274 239.152 158.176C239.259 158.079 239.312 157.921 239.312 157.702V154.38C239.312 154.161 239.259 154.003 239.152 153.906C239.052 153.809 238.906 153.76 238.713 153.76H238.114V158.322H238.713ZM244.346 153.76H243.116V152.847H246.754V153.76H245.524V159.235H244.346V153.76ZM247.538 152.847H250.748V153.76H248.715V155.448H250.331V156.361H248.715V158.322H250.748V159.235H247.538V152.847ZM252.55 152.847H254.144L255.364 159.235H254.187L253.973 157.967V157.985H252.635L252.421 159.235H251.33L252.55 152.847ZM253.834 157.118L253.309 153.961H253.288L252.774 157.118H253.834ZM256.149 152.847H257.829L258.578 157.419H258.6L259.349 152.847H261.029V159.235H259.916V154.399H259.894L259.038 159.235H258.054L257.198 154.399H257.176V159.235H256.149V152.847ZM263.652 159.326C263.081 159.326 262.649 159.189 262.357 158.916C262.064 158.636 261.918 158.237 261.918 157.72V157.355H263.031V157.793C263.031 158.207 263.234 158.414 263.641 158.414C263.841 158.414 263.99 158.365 264.09 158.268C264.197 158.164 264.251 158 264.251 157.775C264.251 157.507 264.179 157.273 264.037 157.072C263.894 156.866 263.63 156.619 263.245 156.333C262.76 155.968 262.421 155.64 262.228 155.348C262.036 155.05 261.939 154.715 261.939 154.344C261.939 153.839 262.089 153.45 262.389 153.176C262.689 152.896 263.124 152.756 263.695 152.756C264.258 152.756 264.682 152.896 264.968 153.176C265.26 153.45 265.407 153.845 265.407 154.362V154.627H264.294V154.298C264.294 154.079 264.243 153.921 264.144 153.824C264.044 153.72 263.898 153.669 263.705 153.669C263.312 153.669 263.117 153.873 263.117 154.28C263.117 154.511 263.188 154.727 263.331 154.928C263.48 155.129 263.748 155.372 264.133 155.658C264.626 156.023 264.964 156.355 265.15 156.653C265.335 156.951 265.428 157.3 265.428 157.702C265.428 158.225 265.275 158.627 264.968 158.907C264.668 159.186 264.23 159.326 263.652 159.326Z" fill="#00FFA3"/>
<path d="M24.6152 118.529C24.6152 118.164 24.6837 117.853 24.8207 117.595C24.9577 117.332 25.2031 117.042 25.557 116.726C25.9051 116.41 26.1448 116.14 26.2761 115.916C26.4131 115.692 26.4816 115.458 26.4816 115.215C26.4816 114.996 26.4388 114.845 26.3531 114.762C26.2733 114.675 26.1534 114.631 25.9936 114.631C25.6683 114.631 25.5056 114.799 25.5056 115.135V115.682H24.6152V115.186C24.6152 114.772 24.7351 114.456 24.9748 114.237C25.2145 114.013 25.5627 113.901 26.0193 113.901C26.4758 113.901 26.824 114.013 27.0637 114.237C27.3034 114.456 27.4233 114.772 27.4233 115.186C27.4233 115.497 27.3348 115.801 27.1579 116.098C26.9867 116.395 26.687 116.736 26.259 117.12C25.9793 117.373 25.7909 117.58 25.6939 117.741C25.5969 117.896 25.5484 118.064 25.5484 118.244V118.354H27.3377V119.084H24.6152V118.529ZM29.8066 118.157H28.0088V117.427L29.721 113.974H30.7483V117.427H31.1935V118.157H30.7483V119.084H29.8066V118.157ZM29.8066 117.427V115.434H29.7895L28.8649 117.427H29.8066ZM34.109 114.704H33.1245V113.974H36.0352V114.704H35.0507V119.084H34.109V114.704ZM36.6624 113.974H39.2307V114.704H37.6041V116.054H38.8968V116.784H37.6041V118.354H39.2307V119.084H36.6624V113.974ZM40.6714 113.974H41.947L42.923 119.084H41.9813L41.81 118.069V118.084H40.7399L40.5687 119.084H39.6954L40.6714 113.974ZM41.6987 117.39L41.2792 114.865H41.2621L40.8512 117.39H41.6987ZM43.5511 113.974H44.8952L45.4945 117.631H45.5116L46.1109 113.974H47.455V119.084H46.5646V115.215H46.5475L45.8626 119.084H45.075L44.3901 115.215H44.373V119.084H43.5511V113.974ZM49.5532 119.157C49.0966 119.157 48.7513 119.048 48.5173 118.828C48.2833 118.604 48.1663 118.286 48.1663 117.872V117.58H49.0566V117.931C49.0566 118.261 49.2193 118.427 49.5446 118.427C49.7044 118.427 49.8243 118.388 49.9042 118.31C49.9898 118.228 50.0326 118.096 50.0326 117.916C50.0326 117.702 49.9755 117.514 49.8614 117.354C49.7472 117.188 49.5361 116.991 49.2279 116.763C48.8397 116.471 48.5687 116.208 48.4146 115.974C48.2605 115.736 48.1834 115.468 48.1834 115.171C48.1834 114.767 48.3033 114.456 48.543 114.237C48.7827 114.013 49.1308 113.901 49.5874 113.901C50.0383 113.901 50.3779 114.013 50.6062 114.237C50.8402 114.456 50.9572 114.772 50.9572 115.186V115.397H50.0669V115.135C50.0669 114.959 50.0269 114.833 49.947 114.755C49.8671 114.672 49.7501 114.631 49.596 114.631C49.2821 114.631 49.1251 114.794 49.1251 115.12C49.1251 115.305 49.1822 115.478 49.2964 115.638C49.4162 115.799 49.6302 115.994 49.9384 116.222C50.3323 116.514 50.6033 116.779 50.7517 117.018C50.9001 117.257 50.9743 117.536 50.9743 117.858C50.9743 118.276 50.8516 118.597 50.6062 118.821C50.3665 119.045 50.0155 119.157 49.5532 119.157Z" fill="white"/>
<path d="M37.7226 110.415V110.643H37.1875V110.415H37.455H37.7226ZM37.455 97.6398H37.7226V98.096H37.455H37.1875V97.6398H37.455ZM37.455 99.0086H37.7226V99.9211H37.455H37.1875V99.0086H37.455ZM37.455 100.834H37.7226V101.746H37.455H37.1875V100.834H37.455ZM37.455 102.659H37.7226V103.571H37.455H37.1875V102.659H37.455ZM37.455 104.484H37.7226V105.396H37.455H37.1875V104.484H37.455ZM37.455 106.309H37.7226V107.221H37.455H37.1875V106.309H37.455ZM37.455 108.134H37.7226V109.046H37.455H37.1875V108.134H37.455ZM37.455 109.959H37.7226V110.415H37.455H37.1875V109.959H37.455ZM37.7226 110.415V110.643H37.1875V110.415H37.455H37.7226ZM37.455 97.6398H37.7226V98.096H37.455H37.1875V97.6398H37.455ZM37.455 99.0086H37.7226V99.9211H37.455H37.1875V99.0086H37.455ZM37.455 100.834H37.7226V101.746H37.455H37.1875V100.834H37.455ZM37.455 102.659H37.7226V103.571H37.455H37.1875V102.659H37.455ZM37.455 104.484H37.7226V105.396H37.455H37.1875V104.484H37.455ZM37.455 106.309H37.7226V107.221H37.455H37.1875V106.309H37.455ZM37.455 108.134H37.7226V109.046H37.455H37.1875V108.134H37.455ZM37.455 109.959H37.7226V110.415H37.455H37.1875V109.959H37.455Z" fill="white"/>
<path d="M37.455 126.384V126.612H37.1875V126.384H37.455ZM81.8659 126.384L79.1905 127.701V125.067L81.8659 126.384ZM37.455 121.822H37.7226V122.202H37.455H37.1875V121.822H37.455ZM37.455 122.962H37.7226V123.723H37.455H37.1875V122.962H37.455ZM37.455 124.483H37.7226V125.244H37.455H37.1875V124.483H37.455ZM37.455 126.004H37.7226V126.384H37.455H37.1875V126.004H37.455ZM37.455 126.384V126.156H37.9837V126.384V126.612H37.455V126.384ZM39.0411 126.384V126.156H40.0985V126.384V126.612H39.0411V126.384ZM41.156 126.384V126.156H42.2134V126.384V126.612H41.156V126.384ZM43.2707 126.384V126.156H44.3281V126.384V126.612H43.2707V126.384ZM45.3855 126.384V126.156H46.4429V126.384V126.612H45.3855V126.384ZM47.5003 126.384V126.156H48.5577V126.384V126.612H47.5003V126.384ZM49.6151 126.384V126.156H50.6726V126.384V126.612H49.6151V126.384ZM51.73 126.384V126.156H52.7874V126.384V126.612H51.73V126.384ZM53.8448 126.384V126.156H54.9021V126.384V126.612H53.8448V126.384ZM55.9594 126.384V126.156H57.0172V126.384V126.612H55.9594V126.384ZM58.0745 126.384V126.156H59.1318V126.384V126.612H58.0745V126.384ZM60.1891 126.384V126.156H61.2464V126.384V126.612H60.1891V126.384ZM62.3037 126.384V126.156H63.3615V126.384V126.612H62.3037V126.384ZM64.4188 126.384V126.156H65.4761V126.384V126.612H64.4188V126.384ZM66.5334 126.384V126.156H67.5907V126.384V126.612H66.5334V126.384ZM68.6486 126.384V126.156H69.7059V126.384V126.612H68.6486V126.384ZM70.7631 126.384V126.156H71.8204V126.384V126.612H70.7631V126.384ZM72.8777 126.384V126.156H73.9356V126.384V126.612H72.8777V126.384ZM74.9929 126.384V126.156H76.0502V126.384V126.612H74.9929V126.384ZM77.1075 126.384V126.156H78.1648V126.384V126.612H77.1075V126.384ZM79.2221 126.384V126.156H80.2799V126.384V126.612H79.2221V126.384ZM37.455 126.384V126.612H37.1875V126.384H37.455ZM81.8659 126.384L79.1905 127.701V125.067L81.8659 126.384ZM37.455 121.822H37.7226V122.202H37.455H37.1875V121.822H37.455ZM37.455 122.962H37.7226V123.723H37.455H37.1875V122.962H37.455ZM37.455 124.483H37.7226V125.244H37.455H37.1875V124.483H37.455ZM37.455 126.004H37.7226V126.384H37.455H37.1875V126.004H37.455ZM37.455 126.384V126.156H37.9837V126.384V126.612H37.455V126.384ZM39.0411 126.384V126.156H40.0985V126.384V126.612H39.0411V126.384ZM41.156 126.384V126.156H42.2134V126.384V126.612H41.156V126.384ZM43.2707 126.384V126.156H44.3281V126.384V126.612H43.2707V126.384ZM45.3855 126.384V126.156H46.4429V126.384V126.612H45.3855V126.384ZM47.5003 126.384V126.156H48.5577V126.384V126.612H47.5003V126.384ZM49.6151 126.384V126.156H50.6726V126.384V126.612H49.6151V126.384ZM51.73 126.384V126.156H52.7874V126.384V126.612H51.73V126.384ZM53.8448 126.384V126.156H54.9021V126.384V126.612H53.8448V126.384ZM55.9594 126.384V126.156H57.0172V126.384V126.612H55.9594V126.384ZM58.0745 126.384V126.156H59.1318V126.384V126.612H58.0745V126.384ZM60.1891 126.384V126.156H61.2464V126.384V126.612H60.1891V126.384ZM62.3037 126.384V126.156H63.3615V126.384V126.612H62.3037V126.384ZM64.4188 126.384V126.156H65.4761V126.384V126.612H64.4188V126.384ZM66.5334 126.384V126.156H67.5907V126.384V126.612H66.5334V126.384ZM68.6486 126.384V126.156H69.7059V126.384V126.612H68.6486V126.384ZM70.7631 126.384V126.156H71.8204V126.384V126.612H70.7631V126.384ZM72.8777 126.384V126.156H73.9356V126.384V126.612H72.8777V126.384ZM74.9929 126.384V126.156H76.0502V126.384V126.612H74.9929V126.384ZM77.1075 126.384V126.156H78.1648V126.384V126.612H77.1075V126.384ZM79.2221 126.384V126.156H80.2799V126.384V126.612H79.2221V126.384Z" fill="white"/>
<path d="M1.6247 87.1457H0.394043V86.2332H4.03252V87.1457H2.80186V92.6209H1.6247V87.1457ZM4.81648 86.2332H5.99362V92.6209H4.81648V86.2332ZM7.08928 86.2332H10.2997V87.1457H8.26644V88.8339H9.88235V89.7464H8.26644V91.7083H10.2997V92.6209H7.08928V86.2332ZM11.1909 86.2332H12.9352C13.5416 86.2332 13.984 86.355 14.2622 86.5982C14.5405 86.8355 14.6796 87.2037 14.6796 87.7024V88.0948C14.6796 88.7577 14.4227 89.1775 13.9091 89.354V89.3723C14.1944 89.4453 14.3942 89.5945 14.5084 89.8194C14.6297 90.0444 14.6903 90.3455 14.6903 90.7228V91.8452C14.6903 92.0277 14.6974 92.1769 14.7117 92.2924C14.726 92.4019 14.7616 92.5114 14.8187 92.6209H13.6201C13.5773 92.5173 13.5488 92.4201 13.5345 92.3289C13.5202 92.2376 13.5131 92.0734 13.5131 91.8361V90.6681C13.5131 90.3761 13.456 90.1721 13.3419 90.0567C13.2349 89.9413 13.0458 89.8833 12.7747 89.8833H12.3681V92.6209H11.1909V86.2332ZM12.7961 88.9708C13.0316 88.9708 13.2064 88.9192 13.3205 88.8157C13.4418 88.7121 13.5024 88.5387 13.5024 88.2955V87.8028C13.5024 87.5714 13.4525 87.4044 13.3526 87.3009C13.2599 87.1973 13.1101 87.1457 12.9031 87.1457H12.3681V88.9708H12.7961ZM17.6275 91.9274C17.6275 91.4711 17.7132 91.0819 17.8844 90.7593C18.0556 90.4308 18.3624 90.069 18.8047 89.6734C19.2399 89.2778 19.5396 88.9402 19.7036 88.6605C19.8748 88.3808 19.9604 88.0888 19.9604 87.7845C19.9604 87.5107 19.9069 87.3223 19.7999 87.2187C19.7001 87.1092 19.5503 87.0545 19.3505 87.0545C18.9438 87.0545 18.7405 87.2644 18.7405 87.6841V88.3685H17.6275V87.748C17.6275 87.2311 17.7774 86.8355 18.077 86.5617C18.3766 86.282 18.8119 86.142 19.3826 86.142C19.9533 86.142 20.3885 86.282 20.6881 86.5617C20.9878 86.8355 21.1376 87.2311 21.1376 87.748C21.1376 88.1372 21.0271 88.5177 20.8059 88.8887C20.5918 89.2596 20.2173 89.6857 19.6822 90.1662C19.3327 90.4824 19.0972 90.7411 18.9759 90.9418C18.8547 91.1367 18.794 91.3465 18.794 91.5715V91.7083H21.0306V92.6209H17.6275V91.9274ZM24.0757 86.2332H25.2528V92.6209H24.0757V86.2332ZM26.3484 86.2332H27.8252L28.9703 90.0567H28.9917V86.2332H30.0404V92.6209H28.8312L27.4186 87.9579H27.3972V92.6209H26.3484V86.2332ZM30.8191 86.2332H32.0069L32.7774 91.1882H32.7988L33.5693 86.2332H34.6502L33.5158 92.6209H31.9534L30.8191 86.2332ZM35.4296 86.2332H36.6067V92.6209H35.4296V86.2332ZM38.6227 87.1457H37.3921V86.2332H41.0305V87.1457H39.7999V92.6209H38.6227V87.1457ZM41.8145 86.2332H45.0249V87.1457H42.9916V88.8339H44.6075V89.7464H42.9916V91.7083H45.0249V92.6209H41.8145V86.2332ZM45.9161 86.2332H47.7139C48.299 86.2332 48.7378 86.3669 49.0302 86.6347C49.3227 86.9026 49.469 87.2949 49.469 87.8119V91.0422C49.469 91.5591 49.3227 91.9515 49.0302 92.2194C48.7378 92.4872 48.299 92.6209 47.7139 92.6209H45.9161V86.2332ZM47.6925 91.7083C47.8852 91.7083 48.0315 91.6595 48.1313 91.5623C48.2383 91.4652 48.2918 91.3068 48.2918 91.0878V87.7663C48.2918 87.5472 48.2383 87.3889 48.1313 87.2917C48.0315 87.1946 47.8852 87.1457 47.6925 87.1457H47.0933V91.7083H47.6925ZM53.3259 87.1457H52.0952V86.2332H55.7337V87.1457H54.5031V92.6209H53.3259V87.1457ZM56.5176 86.2332H59.728V87.1457H57.6948V88.8339H59.3107V89.7464H57.6948V91.7083H59.728V92.6209H56.5176V86.2332ZM61.5291 86.2332H63.1236L64.3436 92.6209H63.1664L62.9524 91.3525V91.3707H61.6147L61.4007 92.6209H60.3091L61.5291 86.2332ZM62.8133 90.5038L62.2889 87.3465H62.2675L61.7538 90.5038H62.8133ZM65.1285 86.2332H66.8086L67.5577 90.805H67.5791L68.3282 86.2332H70.0083V92.6209H68.8954V87.7845H68.874L68.0179 92.6209H67.0333L66.1772 87.7845H66.1558V92.6209H65.1285V86.2332ZM72.6313 92.7121C72.0603 92.7121 71.6285 92.5752 71.3364 92.3015C71.0437 92.0218 70.8976 91.623 70.8976 91.1061V90.7411H72.0106V91.1791C72.0106 91.5929 72.2139 91.7996 72.6206 91.7996C72.8201 91.7996 72.9699 91.7508 73.07 91.6536C73.177 91.55 73.2305 91.3858 73.2305 91.1608C73.2305 90.893 73.1588 90.6589 73.0165 90.4582C72.8736 90.2515 72.6098 90.0051 72.2246 89.7191C71.7393 89.354 71.4006 89.0255 71.208 88.7335C71.0153 88.4356 70.919 88.1007 70.919 87.7298C70.919 87.2247 71.0688 86.8355 71.3685 86.5617C71.6681 86.282 72.1031 86.142 72.6741 86.142C73.2375 86.142 73.6618 86.282 73.9475 86.5617C74.2397 86.8355 74.3863 87.2311 74.3863 87.748V88.0126H73.2733V87.6841C73.2733 87.4651 73.223 87.3068 73.1235 87.2096C73.0235 87.106 72.8774 87.0545 72.6848 87.0545C72.292 87.0545 72.0962 87.2584 72.0962 87.6659C72.0962 87.8972 72.1673 88.113 72.3102 88.3138C72.46 88.5145 72.7276 88.7577 73.1128 89.0438C73.6051 89.4088 73.9438 89.7405 74.1294 90.0384C74.3146 90.3364 74.4077 90.6863 74.4077 91.0878C74.4077 91.6112 74.2541 92.0127 73.9475 92.2924C73.6479 92.572 73.2091 92.7121 72.6313 92.7121Z" fill="#00FFA3"/>
</g>
<defs>
<filter id="filter0_d_7044_10048" x="102.132" y="247.468" width="60.4443" height="14.1403" filterUnits="userSpaceOnUse" color-interpolation-filters="sRGB">
<feFlood flood-opacity="0" result="BackgroundImageFix"/>
<feColorMatrix in="SourceAlpha" type="matrix" values="0 0 0 0 0 0 0 0 0 0 0 0 0 0 0 0 0 0 127 0" result="hardAlpha"/>
<feOffset dy="1"/>
<feComposite in2="hardAlpha" operator="out"/>
<feColorMatrix type="matrix" values="0 0 0 0 0 0 0 0 0 0 0 0 0 0 0 0 0 0 1 0"/>
<feBlend mode="normal" in2="BackgroundImageFix" result="effect1_dropShadow_7044_10048"/>
<feBlend mode="normal" in="SourceGraphic" in2="effect1_dropShadow_7044_10048" result="shape"/>
</filter>
<clipPath id="clip0_7044_10048">
<rect width="267" height="266" fill="white"/>
</clipPath>
</defs>
</svg>
