<svg xmlns="http://www.w3.org/2000/svg" width="40" height="34" viewBox="0 0 40 34" fill="none">
  <path d="M39.6515 0.875083C39.5859 0.906185 39.5296 0.953869 39.4881 1.01342C33.8471 8.06338 28.2082 15.1133 22.5716 22.1633C22.3932 22.3183 22.5299 22.6433 22.7699 22.605C26.8349 22.61 30.8982 22.605 34.9632 22.6066C35.1386 22.6157 35.3137 22.5826 35.4738 22.5101C35.6339 22.4376 35.7742 22.3279 35.8832 22.19L39.7565 17.3517C39.9336 17.1179 40.0189 16.8274 39.9965 16.535C39.9931 11.4067 39.9965 6.28006 39.9915 1.15175C40.0181 0.968417 39.8248 0.810084 39.6515 0.875083ZM0.126666 0.898417C-0.00166666 0.96175 0.00333332 1.11842 0 1.24008C0.00222221 6.3645 0.00277776 11.4895 0.00166666 16.615C-0.00932672 16.896 0.0845298 17.171 0.264999 17.3867L12.9983 33.3033C13.1983 33.5566 13.5116 33.7199 13.8399 33.7149C17.9316 33.7149 22.0232 33.7199 26.1149 33.7149C26.3515 33.7483 26.4849 33.4249 26.3082 33.2733C17.7666 22.5816 9.20829 11.8984 0.664997 1.20508C0.531664 1.04842 0.374998 0.751751 0.128333 0.898417H0.126666Z" fill="#582000"/>
</svg>