<svg width="40" height="33" viewBox="0 0 40 33" fill="none" xmlns="http://www.w3.org/2000/svg">
<path d="M39.6515 0.0164256C39.5859 0.0475272 39.5296 0.0952114 39.4881 0.154758C33.8471 7.20472 28.2082 14.2547 22.5716 21.3047C22.3932 21.4597 22.5299 21.7846 22.7699 21.7463C26.8349 21.7513 30.8982 21.7463 34.9632 21.748C35.1386 21.7571 35.3137 21.724 35.4738 21.6515C35.6339 21.579 35.7742 21.4692 35.8832 21.3313L39.7565 16.493C39.9336 16.2593 40.0189 15.9688 39.9965 15.6763C39.9931 10.548 39.9965 5.4214 39.9915 0.293091C40.0181 0.109759 39.8248 -0.0485741 39.6515 0.0164256ZM0.126666 0.0397587C-0.00166666 0.103092 0.00333332 0.259758 0 0.381424C0.00222221 5.50584 0.00277776 10.6308 0.00166666 15.7563C-0.00932672 16.0373 0.0845298 16.3124 0.264999 16.528L12.9983 32.4446C13.1983 32.6979 13.5116 32.8613 13.8399 32.8563C17.9316 32.8563 22.0232 32.8613 26.1149 32.8563C26.3515 32.8896 26.4849 32.5663 26.3082 32.4146C17.7666 21.723 9.20829 11.0397 0.664997 0.346424C0.531664 0.189758 0.374998 -0.106907 0.128333 0.0397587H0.126666Z" fill="black" fill-opacity="0.75"/>
</svg>
